%FSTAX23Y23*%
%MOIN*%
%SFA1B1*%

%IPPOS*%
%ADD11R,0.060000X0.009800*%
%ADD12O,0.060000X0.009800*%
%ADD13O,0.009800X0.060000*%
%ADD14R,0.035000X0.055000*%
%ADD15R,0.045000X0.025000*%
%ADD16R,0.023600X0.015700*%
%ADD17R,0.015700X0.023600*%
%ADD18R,0.055000X0.055000*%
%ADD19C,0.055000*%
%ADD20R,0.070866X0.039370*%
%ADD21R,0.033465X0.037402*%
%ADD22R,0.106000X0.063000*%
%ADD23R,0.059000X0.051200*%
%ADD24R,0.051200X0.059000*%
%ADD25R,0.039370X0.013780*%
%ADD26C,0.062992*%
%ADD27R,0.023622X0.041339*%
%ADD28R,0.043307X0.023622*%
%ADD29R,0.023622X0.043307*%
%ADD30R,0.019685X0.035433*%
%ADD31R,0.035433X0.019685*%
%ADD32R,0.027559X0.031496*%
%ADD33R,0.031496X0.027559*%
%ADD34R,0.059055X0.059055*%
%ADD35C,0.060000*%
%ADD36O,0.011024X0.039370*%
%ADD37O,0.039370X0.011024*%
%ADD38R,0.177165X0.177165*%
%ADD39C,0.019685*%
%ADD40C,0.059055*%
%ADD41C,0.110236*%
%ADD42R,0.027559X0.059055*%
%ADD43R,0.031496X0.031496*%
%ADD44R,0.023622X0.017717*%
%ADD45R,0.017717X0.023622*%
%ADD54C,0.035000*%
%ADD55C,0.010000*%
%ADD56C,0.013780*%
%LNeeg_v2-f_cu_ver2-1*%
%LPD*%
G54D11*
X12423Y-0633D03*
G54D12*
X12423Y-0631D03*
Y-0629D03*
Y-06271D03*
Y-06251D03*
Y-06231D03*
Y-06212D03*
Y-06192D03*
Y-06172D03*
Y-06152D03*
Y-06133D03*
Y-06113D03*
Y-06093D03*
Y-06074D03*
Y-06054D03*
Y-06034D03*
G54D13*
X1234Y-05945D03*
X1232D03*
X123D03*
X12281D03*
X12261D03*
X12241D03*
X12222D03*
X12202D03*
X12182D03*
X12162D03*
X12143D03*
X12123D03*
X12103D03*
X12084D03*
X12064D03*
X12044D03*
G54D12*
X11955Y-06034D03*
Y-06054D03*
Y-06074D03*
Y-06093D03*
Y-06113D03*
Y-06133D03*
Y-06152D03*
Y-06172D03*
Y-06192D03*
Y-06212D03*
Y-06231D03*
Y-06251D03*
Y-06271D03*
Y-0629D03*
Y-0631D03*
Y-0633D03*
G54D13*
X12044Y-06413D03*
X12064D03*
X12103D03*
X12084Y-06414D03*
X12123Y-06413D03*
X12143D03*
X12162D03*
X12182D03*
X12202D03*
X12222D03*
X12241D03*
X12261D03*
X1228D03*
X123D03*
X1232D03*
X12339D03*
G54D14*
X12502Y-06975D03*
X12427D03*
G54D15*
X11905Y-06612D03*
Y-06672D03*
G54D16*
X1104Y-0607D03*
Y-06034D03*
G54D17*
X10842Y-06465D03*
X10877D03*
X10842Y-0651D03*
X10877D03*
X11372Y-061D03*
X11407D03*
G54D16*
X11235Y-06505D03*
Y-06469D03*
G54D17*
X1136Y-06335D03*
X11324D03*
X11467Y-0642D03*
X11502D03*
X11204Y-05787D03*
X1124D03*
G54D18*
X12967Y-06382D03*
G54D19*
X12967Y-06482D03*
Y-06582D03*
Y-06682D03*
Y-06782D03*
Y-06882D03*
Y-06982D03*
Y-07082D03*
G54D18*
X12967Y-05582D03*
G54D19*
X12967Y-05682D03*
Y-05782D03*
Y-05882D03*
Y-05982D03*
Y-06082D03*
Y-06182D03*
Y-06282D03*
X10585Y-0605D03*
Y-0595D03*
X10485Y-0605D03*
Y-0625D03*
G54D18*
X10585Y-0625D03*
G54D19*
X10485Y-0615D03*
X10585D03*
X10485Y-0595D03*
Y-0585D03*
X10585D03*
G54D18*
X12142Y-07077D03*
G54D19*
X12042Y-07077D03*
G54D18*
X11807Y-0662D03*
G54D19*
X11807Y-0672D03*
G54D20*
X10797Y-06186D03*
Y-06088D03*
G54D21*
X11347Y-05901D03*
Y-05958D03*
X11392Y-05901D03*
Y-05958D03*
G54D22*
X12127Y-05787D03*
Y-05677D03*
G54D23*
X11446Y-05785D03*
Y-0571D03*
G54D24*
X11576Y-056D03*
X11651D03*
X11772Y-05595D03*
X11847D03*
G54D23*
X11935Y-05766D03*
Y-05691D03*
X11707Y-0579D03*
Y-05715D03*
G54D24*
X12505Y-06897D03*
X1243D03*
G54D23*
X12355Y-05797D03*
Y-05722D03*
G54D25*
X11114Y-05879D03*
Y-05905D03*
Y-0593D03*
X11185D03*
Y-05905D03*
Y-05879D03*
G54D26*
X11173Y-06597D03*
X10996D03*
Y-06852D03*
X11173D03*
X11258D03*
X11436D03*
Y-06597D03*
X11258D03*
X11521Y-06852D03*
X11698D03*
Y-06597D03*
X11521D03*
G54D27*
X11533Y-05797D03*
X1157D03*
X11607D03*
Y-0569D03*
X1157D03*
X11533D03*
G54D28*
X12081Y-06848D03*
Y-06773D03*
X11975D03*
Y-0681D03*
Y-06848D03*
G54D29*
X12448Y-06521D03*
X12374D03*
Y-06627D03*
X12411D03*
X12448D03*
G54D27*
X11783Y-05787D03*
X11857D03*
Y-0568D03*
X1182D03*
X11783D03*
G54D30*
X12732Y-06922D03*
X12792D03*
X12732Y-06967D03*
X12792D03*
X12732Y-06747D03*
X12792D03*
X12732Y-06792D03*
X12792D03*
X12732Y-06092D03*
X12792D03*
X12732Y-06047D03*
X12792D03*
X12732Y-06442D03*
X12792D03*
X12732Y-05697D03*
X12792D03*
X12732Y-05742D03*
X12792D03*
G54D31*
X12607Y-05687D03*
Y-05747D03*
G54D30*
X12494Y-07042D03*
X12435D03*
X12732Y-05872D03*
X12792D03*
X12732Y-05917D03*
X12792D03*
X12732Y-06397D03*
X12792D03*
X12732Y-06222D03*
X12792D03*
X12732Y-06267D03*
X12792D03*
X12732Y-06617D03*
X12792D03*
X12732Y-06572D03*
X12792D03*
G54D32*
X12736Y-06662D03*
X12788D03*
X12736Y-06527D03*
X12788D03*
X12736Y-06487D03*
X12788D03*
X12736Y-06352D03*
X12788D03*
X12736Y-06702D03*
X12788D03*
X12736Y-06837D03*
X12788D03*
X12736Y-06312D03*
X12788D03*
X12736Y-06177D03*
X12788D03*
X12736Y-06877D03*
X12788D03*
X12736Y-07012D03*
X12788D03*
X12736Y-06137D03*
X12788D03*
X12736Y-06002D03*
X12788D03*
X12736Y-05787D03*
X12788D03*
X12736Y-05827D03*
X12788D03*
G54D33*
X1256Y-05743D03*
Y-05691D03*
G54D32*
X12736Y-05962D03*
X12788D03*
G54D34*
X12597Y-0705D03*
G54D18*
X12617Y-05597D03*
G54D19*
X12517Y-05597D03*
G54D32*
X12736Y-05652D03*
X12788D03*
G54D35*
X12188Y-06862D03*
X12338Y-06763D03*
X11466Y-056D03*
X11937Y-05862D03*
G54D36*
X11061Y-0636D03*
X11081D03*
X111D03*
X1112D03*
X1114D03*
X11159D03*
X11179D03*
X11199D03*
X11218D03*
X11238D03*
G54D37*
X1127Y-06328D03*
Y-06308D03*
Y-06289D03*
Y-06269D03*
Y-06249D03*
Y-0623D03*
Y-0621D03*
Y-0619D03*
Y-06171D03*
Y-06151D03*
G54D36*
X11238Y-06119D03*
X11218D03*
X11199D03*
X11179D03*
X11159D03*
X1114D03*
X1112D03*
X111D03*
X11081D03*
X11061D03*
G54D37*
X11029Y-06151D03*
Y-06171D03*
Y-0619D03*
Y-0621D03*
Y-0623D03*
Y-06249D03*
Y-06269D03*
Y-06289D03*
Y-06308D03*
Y-06328D03*
G54D38*
X1115Y-0624D03*
G54D39*
X1113Y-06259D03*
Y-0622D03*
X11169D03*
Y-06259D03*
Y-06299D03*
X1113D03*
X1109D03*
Y-06259D03*
Y-0622D03*
Y-0618D03*
X1113D03*
X11169D03*
X11209D03*
Y-0622D03*
Y-06259D03*
Y-06299D03*
G54D40*
X1074Y-06731D03*
Y-06633D03*
X10661D03*
Y-06731D03*
G54D41*
X10555Y-06445D03*
Y-06919D03*
G54D40*
X11829Y-07085D03*
X1171D03*
G54D42*
X11681Y-06996D03*
X11799D03*
X11858D03*
G54D43*
X11282Y-06514D03*
Y-06455D03*
X11402Y-06407D03*
X11342D03*
G54D33*
X12285Y-05795D03*
Y-05744D03*
X12312Y-06529D03*
Y-0658D03*
X12035Y-06514D03*
Y-06565D03*
X12086Y-06513D03*
Y-06564D03*
X12222Y-05798D03*
Y-05746D03*
G54D32*
X12166Y-06587D03*
X12218D03*
X12166Y-06527D03*
X12218D03*
G54D33*
X12032Y-05793D03*
Y-05741D03*
X12485Y-05795D03*
Y-05744D03*
X12425Y-05795D03*
Y-05744D03*
G54D32*
X11944Y-06447D03*
X11893D03*
X11944Y-06387D03*
X11893D03*
X12073Y-06715D03*
X12022D03*
X12261Y-06728D03*
X1221D03*
X12261Y-06673D03*
X1221D03*
G54D33*
X11888Y-06815D03*
Y-06866D03*
G54D32*
X12466Y-06702D03*
X12415D03*
G54D44*
X10997Y-06096D03*
Y-06063D03*
G54D45*
X1125Y-06412D03*
X11284D03*
G54D44*
X111Y-06061D03*
Y-06028D03*
X11147Y-06415D03*
Y-06449D03*
G54D45*
X11465Y-06462D03*
X11499D03*
G54D44*
X11185Y-06054D03*
Y-0602D03*
G54D45*
X11288Y-06085D03*
X11321D03*
X11141Y-05787D03*
X11108D03*
X10974Y-06352D03*
X1094D03*
X11353Y-06145D03*
X11386D03*
G54D44*
X1092Y-06428D03*
Y-06461D03*
Y-06513D03*
Y-06546D03*
X1097Y-06299D03*
Y-06265D03*
X10722Y-06196D03*
Y-06163D03*
Y-06078D03*
Y-06111D03*
X11452Y-0587D03*
Y-05904D03*
Y-05989D03*
Y-05955D03*
G54D31*
X11324Y-05745D03*
G54D54*
X11642Y-06205D03*
X11747Y-061D03*
X11587Y-0632D03*
X11795Y-06102D03*
X11452D03*
X11555Y-0654D03*
X11057Y-06522D03*
X1067Y-0616D03*
X10955Y-06107D03*
X11457Y-0638D03*
X11322Y-0604D03*
X1123Y-0602D03*
X1128Y-06372D03*
X11102Y-06457D03*
X10922Y-06305D03*
X11677Y-0566D03*
X11495Y-05955D03*
X11367Y-06052D03*
X10727Y-06015D03*
X11968Y-06893D03*
X12409Y-06755D03*
X12291Y-06476D03*
X12142Y-06995D03*
X12011Y-06452D03*
X11893Y-06271D03*
X11895Y-06202D03*
X11889Y-06023D03*
X12031Y-05881D03*
X12425Y-05688D03*
X1256Y-0565D03*
X1283Y-05652D03*
Y-05807D03*
Y-05982D03*
Y-06157D03*
Y-06332D03*
Y-06682D03*
Y-06507D03*
Y-07015D03*
Y-06857D03*
X1185Y-06387D03*
X11342Y-06452D03*
X1122Y-0597D03*
X11085Y-05975D03*
X11055Y-05787D03*
X11507Y-061D03*
X11147Y-06502D03*
X10585Y-0635D03*
X10707Y-0695D03*
X10877Y-06307D03*
X10997Y-06017D03*
X11324Y-05745D03*
X11242Y-05877D03*
G54D55*
X12241Y-06473D02*
Y-06413D01*
X12303Y-06728D02*
X12338Y-06763D01*
X12173Y-06346D02*
X12241D01*
X12143Y-06413D02*
Y-06356D01*
X12182Y-06355D02*
Y-06413D01*
X12173Y-06346D02*
X12182Y-06355D01*
X12153Y-06346D02*
X12173D01*
X12143Y-06356D02*
X12153Y-06346D01*
X123Y-05945D02*
Y-05907D01*
X12346Y-05862D01*
X12251Y-06003D02*
X12291D01*
X123Y-05994D02*
Y-05945D01*
X12291Y-06003D02*
X123Y-05994D01*
X12241Y-06003D02*
X12251D01*
X12261Y-05994D02*
Y-05945D01*
X12251Y-06003D02*
X12261Y-05994D01*
X12241Y-05945D02*
Y-06003D01*
Y-06346D01*
Y-06413D01*
X12241Y-06413D01*
X1237Y-06525D02*
X12374Y-06521D01*
X12277Y-06509D02*
X12241Y-06473D01*
X12346Y-05862D02*
X12393D01*
X12277Y-06525D02*
Y-06509D01*
X12393Y-05862D02*
X12425Y-0583D01*
X12265Y-06537D02*
X12277Y-06525D01*
X12425Y-0583D02*
Y-05799D01*
X12485D01*
X12265Y-06728D02*
X12303D01*
X12265D02*
Y-06673D01*
Y-06537D01*
X12277Y-06525D02*
X12312D01*
X1237D01*
X11905Y-06612D02*
X11918D01*
X11948Y-06582D01*
X11785Y-0642D01*
X11502D01*
X12188Y-06862D02*
Y-06783D01*
X11948Y-06582D02*
Y-06582D01*
X12003Y-06637D02*
X11948Y-06582D01*
X12039Y-06637D02*
X12003D01*
X12081Y-06773D02*
X12178D01*
X12188Y-06783D01*
X12224Y-06818D01*
X11948Y-06336D02*
X11955Y-0633D01*
X12064Y-06413D02*
Y-06328D01*
X12055Y-06318D01*
X12103Y-06413D02*
Y-06367D01*
X12055Y-06318D01*
X12011Y-06275D01*
Y-06059D02*
Y-06275D01*
Y-06314D01*
X11996Y-0633D02*
X11955D01*
X12011Y-06314D02*
X11996Y-0633D01*
X11955Y-06074D02*
X12D01*
X1157Y-05842D02*
Y-05797D01*
X11594Y-05866D02*
X1157Y-05842D01*
X1185Y-05866D02*
X11594D01*
X12011Y-06027D02*
X1185Y-05866D01*
X12011Y-06062D02*
Y-06059D01*
Y-06027D01*
X12Y-06074D02*
X12011Y-06062D01*
X12374Y-06627D02*
Y-06592D01*
X12448D02*
Y-06627D01*
X12431Y-06574D02*
X12448Y-06592D01*
X12391Y-06574D02*
X12431D01*
X12374Y-06592D02*
X12391Y-06574D01*
X1157Y-05797D02*
X11533D01*
X12077Y-06769D02*
X12081Y-06773D01*
X12077Y-06676D02*
X12039Y-06637D01*
X12224Y-06818D02*
X12401D01*
X1247Y-06749D01*
X11948Y-06387D02*
Y-06336D01*
Y-06387D02*
Y-06447D01*
Y-06582D02*
Y-06447D01*
X1247Y-06749D02*
Y-06702D01*
X12448Y-06681D02*
Y-06627D01*
X1247Y-06702D02*
X12448Y-06681D01*
X12077Y-06715D02*
Y-06676D01*
Y-06715D02*
Y-06769D01*
X12206Y-06673D02*
Y-06728D01*
Y-06673D02*
Y-06628D01*
X122Y-06633D02*
X12206Y-06628D01*
X12222Y-06612D01*
X12141Y-06633D02*
X122D01*
X12123Y-06615D02*
X12141Y-06633D01*
X12123Y-06494D02*
Y-06615D01*
X12108Y-06509D02*
X12123Y-06494D01*
X12222Y-06612D02*
Y-06587D01*
X12086Y-06509D02*
X12108D01*
X11935Y-05766D02*
X11969D01*
X11998Y-05737D01*
X12123Y-06413D02*
Y-06494D01*
Y-06413D02*
Y-06003D01*
X12202Y-06413D02*
Y-06454D01*
X12222Y-06474D01*
Y-06413D01*
X12222Y-06413D01*
Y-05945D02*
Y-05907D01*
X12281Y-05903D02*
Y-05945D01*
X12263Y-05885D02*
X12281Y-05903D01*
X12244Y-05885D02*
X12263D01*
X12222Y-05907D02*
X12244Y-05885D01*
X12165Y-06003D02*
X12204D01*
X12222Y-05986D02*
Y-05945D01*
X12204Y-06003D02*
X12222Y-05986D01*
X12044Y-05945D02*
Y-05991D01*
X12182Y-05986D02*
Y-05945D01*
X12165Y-06003D02*
X12182Y-05986D01*
X12057Y-06003D02*
X12123D01*
X12165D01*
X12044Y-05991D02*
X12057Y-06003D01*
X11935Y-05766D02*
Y-05862D01*
X12044Y-05944D02*
X12044Y-05945D01*
X12017Y-05944D02*
X12044D01*
X11935Y-05862D02*
X12017Y-05944D01*
X12337Y-0574D02*
X12355Y-05722D01*
X12127Y-05677D02*
X12203D01*
X12222Y-05696D01*
X12068Y-05677D02*
X12127D01*
X11857Y-05787D02*
X11862Y-05782D01*
X11919D02*
X11935Y-05766D01*
X11862Y-05782D02*
X11919D01*
X12032Y-05713D02*
X12068Y-05677D01*
X11998Y-05737D02*
X12032D01*
Y-05713D01*
X12285Y-0574D02*
X12337D01*
X12282Y-05742D02*
X12285Y-0574D01*
X12222Y-05742D02*
X12282D01*
X12222Y-05696D02*
Y-05742D01*
X12086Y-06509D02*
X12035D01*
X12035Y-0651D01*
X12222Y-06527D02*
Y-06474D01*
Y-06527D02*
Y-06587D01*
X12792Y-05742D02*
X12907D01*
X12967Y-05682D01*
X12792Y-05697D02*
X12852D01*
X12967Y-05582D01*
X12792Y-05917D02*
X12932D01*
X12967Y-05882D01*
X12792Y-05872D02*
X12877D01*
X12967Y-05782D01*
X12792Y-06092D02*
X12957D01*
X12967Y-06082D01*
X12792Y-06047D02*
X12902D01*
X12967Y-05982D01*
X12792Y-06267D02*
X12952D01*
X12967Y-06282D01*
X12792Y-06222D02*
X12927D01*
X12967Y-06182D01*
X12792Y-06442D02*
X12927D01*
X12967Y-06482D01*
X12792Y-06397D02*
X12952D01*
X12967Y-06382D01*
X12792Y-06617D02*
X12902D01*
X12967Y-06682D01*
X12792Y-06572D02*
X12957D01*
X12967Y-06582D01*
X12792Y-06792D02*
X12877D01*
X12967Y-06882D01*
X12792Y-06747D02*
X12932D01*
X12967Y-06782D01*
X12792Y-06967D02*
X12852D01*
X12967Y-07082D01*
X12792Y-06922D02*
X12907D01*
X12967Y-06982D01*
X12494Y-07042D02*
X1259D01*
X12597Y-0705D01*
X1228Y-06413D02*
Y-06371D01*
X12505Y-06842D02*
Y-06897D01*
X12525Y-06822D02*
X12505Y-06842D01*
X12525Y-06517D02*
Y-06822D01*
X1237Y-06362D02*
X12525Y-06517D01*
X1229Y-06362D02*
X1237D01*
X1228Y-06371D02*
X1229Y-06362D01*
X12505Y-06897D02*
Y-06972D01*
X12502Y-06975D01*
X12435Y-07042D02*
Y-06982D01*
X12427Y-06975D01*
X1243Y-06897D02*
Y-06972D01*
X12427Y-06975D01*
X1232Y-06413D02*
Y-06457D01*
X1243Y-0683D02*
Y-06897D01*
X12507Y-06752D02*
X1243Y-0683D01*
X12507Y-06527D02*
Y-06752D01*
X12457Y-06477D02*
X12507Y-06527D01*
X1234Y-06477D02*
X12457D01*
X1232Y-06457D02*
X1234Y-06477D01*
X123Y-06413D02*
X1232D01*
X11955Y-06152D02*
X11507D01*
X11469Y-0619D02*
X1127D01*
X11507Y-06152D02*
X11469Y-0619D01*
X11955Y-06054D02*
X11793D01*
X11597Y-06249D02*
X1127D01*
X11642Y-06205D02*
X11597Y-06249D01*
X11793Y-06054D02*
X11747Y-061D01*
X11955Y-06231D02*
X11885D01*
X11847Y-06269D02*
X1127D01*
X11885Y-06231D02*
X11847Y-06269D01*
X11955Y-0631D02*
X11875D01*
X11854Y-06289D02*
X1127D01*
X11875Y-0631D02*
X11854Y-06289D01*
X11955Y-06093D02*
X11803D01*
X11576Y-06308D02*
X1127D01*
X11587Y-0632D02*
X11576Y-06308D01*
X11803Y-06093D02*
X11795Y-06102D01*
X12607Y-05687D02*
Y-05607D01*
X12617Y-05597D01*
X1232Y-05945D02*
Y-0591D01*
X12525Y-05605D02*
X12517Y-05597D01*
X12525Y-05822D02*
Y-05605D01*
X12467Y-0588D02*
X12525Y-05822D01*
X12351Y-0588D02*
X12467D01*
X1232Y-0591D02*
X12351Y-0588D01*
X11955Y-06133D02*
X11499D01*
X11461Y-06171D02*
X1127D01*
X11499Y-06133D02*
X11461Y-06171D01*
X12123Y-05945D02*
Y-05791D01*
X12127Y-05787D01*
X12032Y-05831D02*
Y-05797D01*
X12084Y-05883D02*
X12032Y-05831D01*
X12084Y-05945D02*
Y-05883D01*
X12162Y-06587D02*
Y-06527D01*
Y-06413D02*
Y-06527D01*
X12222Y-05828D02*
Y-05802D01*
X12162Y-05888D02*
X12222Y-05828D01*
X12162Y-05945D02*
Y-05888D01*
X12285Y-05799D02*
X12352D01*
X12285Y-05815D02*
Y-05799D01*
X12202Y-05898D02*
X12285Y-05815D01*
X12352Y-05799D02*
X12355Y-05797D01*
X12202Y-05945D02*
Y-05898D01*
X12042Y-07077D02*
X11961Y-06996D01*
X11858D01*
X11242Y-05745D02*
Y-05648D01*
X1124Y-05787D02*
X11242Y-05785D01*
Y-05745D01*
X10585Y-0615D02*
X10672Y-06237D01*
X10854Y-0621D02*
X11029D01*
X10827Y-06237D02*
X10854Y-0621D01*
X10672Y-06237D02*
X10827D01*
X11029Y-0623D02*
X10862D01*
X10532Y-06197D02*
X10485Y-0615D01*
X10605Y-06197D02*
X10532D01*
X10662Y-06255D02*
X10605Y-06197D01*
X10837Y-06255D02*
X10662D01*
X10862Y-0623D02*
X10837Y-06255D01*
X11218Y-0636D02*
Y-06453D01*
X11235Y-06469D01*
X1127Y-06328D02*
X11318D01*
X11324Y-06335D01*
X11348Y-06145D02*
Y-06123D01*
X11372Y-061D01*
X1127Y-06151D02*
X11341D01*
X11348Y-06145D01*
X11521Y-06597D02*
X11644Y-0672D01*
X11807D01*
X11521Y-06597D02*
X11555Y-06563D01*
X1141Y-06102D02*
X11407Y-061D01*
X11452Y-06102D02*
X1141D01*
X11555Y-06563D02*
Y-0654D01*
X10585Y-0595D02*
X1067Y-06035D01*
X11445Y-06672D02*
X11521Y-06597D01*
X11142Y-06672D02*
X11445D01*
X11057Y-06587D02*
X11142Y-06672D01*
X11057Y-06522D02*
Y-06587D01*
X1067Y-06035D02*
Y-0616D01*
X1114Y-06119D02*
Y-0599D01*
X11114Y-05964D02*
Y-0593D01*
X1114Y-0599D02*
X11114Y-05964D01*
X11159Y-06119D02*
Y-0599D01*
X11185Y-05931D02*
X11185Y-0593D01*
X11185Y-05965D02*
Y-05931D01*
X11159Y-0599D02*
X11185Y-05965D01*
X11955Y-06172D02*
X11514D01*
X11457Y-0623D02*
X1127D01*
X11514Y-06172D02*
X11457Y-0623D01*
X11179Y-0636D02*
Y-06591D01*
X11173Y-06597D01*
X11199Y-0636D02*
Y-06537D01*
X11258Y-06597D01*
G54D56*
X11114Y-05879D02*
X11177Y-05816D01*
Y-05787D01*
X11199D02*
X11177D01*
X11146D01*
G54D55*
X10842Y-0651D02*
X1074Y-06611D01*
Y-06633D01*
X111Y-0636D02*
Y-06406D01*
X10994Y-06513D02*
X1092D01*
X111Y-06406D02*
X10994Y-06513D01*
X10877Y-0651D02*
X10916D01*
X1092Y-06513D01*
X10842Y-06465D02*
X10674Y-06633D01*
X10661D01*
X1092Y-06461D02*
X1088D01*
X10877Y-06465D01*
X1092Y-06461D02*
X11015D01*
X11081Y-06396D02*
Y-0636D01*
X11015Y-06461D02*
X11081Y-06396D01*
X11465Y-06462D02*
Y-06421D01*
X11467Y-0642D01*
X11102Y-06457D02*
Y-066D01*
X11278Y-0665D02*
X11465Y-06462D01*
X11152Y-0665D02*
X11278D01*
X11102Y-066D02*
X11152Y-0665D01*
X11465Y-06387D02*
Y-06412D01*
X11457Y-0638D02*
X11465Y-06387D01*
X11283Y-06056D02*
Y-06085D01*
X1129Y-0605D02*
X11283Y-06056D01*
X11312Y-0605D02*
X1129D01*
X11322Y-0604D02*
X11312Y-0605D01*
X11185Y-06059D02*
X1119D01*
X1123Y-0602D01*
X11238Y-0636D02*
X11251Y-06372D01*
X1128D01*
X11238Y-06119D02*
X11273Y-06085D01*
X11283D01*
X11124Y-0641D02*
X11147D01*
X11102Y-06457D02*
Y-06432D01*
X11124Y-0641D01*
X1112Y-0636D02*
Y-06383D01*
X11147Y-0641D01*
X111Y-06066D02*
X11079D01*
X1107Y-06057D01*
Y-06007D01*
X1105Y-05987D01*
X10982D01*
X10955Y-06015D01*
Y-06107D01*
X1097Y-06304D02*
X10923D01*
X10922Y-06305D01*
X1096Y-06101D02*
X10997D01*
X10955Y-06107D02*
X1096Y-06101D01*
X11029Y-06151D02*
Y-06134D01*
X10997Y-06101D01*
X11081Y-06119D02*
Y-06085D01*
X111Y-06066D01*
X111Y-06119D02*
Y-06067D01*
X111Y-06066D01*
X1112Y-06119D02*
Y-06087D01*
X111Y-06066D01*
X11179Y-06119D02*
Y-06064D01*
X11185Y-06059D01*
X11238Y-0636D02*
Y-06405D01*
X11245Y-06412D01*
X11029Y-06308D02*
X10974D01*
X1097Y-06304D01*
X10722Y-06196D02*
X10787D01*
X10797Y-06186D01*
X11029Y-0619D02*
X10801D01*
X10797Y-06186D01*
X10722Y-06078D02*
X10787D01*
X10797Y-06088D01*
X11029Y-06171D02*
X10966D01*
X10883Y-06088D02*
X10797D01*
X10966Y-06171D02*
X10883Y-06088D01*
X11315Y-06D02*
X11377D01*
X11392Y-05985D02*
Y-05958D01*
X11377Y-06D02*
X11392Y-05985D01*
X11452Y-05994D02*
X11428D01*
X11392Y-05958D01*
X11218Y-06119D02*
Y-06096D01*
X11315Y-06D01*
X11313Y-06001D01*
X11301Y-05991D02*
Y-05918D01*
X11318Y-05901D02*
X11347D01*
X11301Y-05918D02*
X11318Y-05901D01*
X11452Y-05865D02*
X11353D01*
X11347Y-05871D01*
Y-05901D01*
X11199Y-06119D02*
Y-06093D01*
X11301Y-05991D01*
X11302Y-0599D01*
X11788Y-05595D02*
X11742Y-0555D01*
X11576Y-05563D02*
Y-056D01*
X1159Y-0555D02*
X11576Y-05563D01*
X11742Y-0555D02*
X1159D01*
X11576Y-056D02*
X11466D01*
X1157Y-0569D02*
Y-05606D01*
X11576Y-056D01*
X11783Y-0568D02*
X1182D01*
X11783D02*
Y-056D01*
X11788Y-05595D01*
X1074Y-06731D02*
X10784D01*
X11048Y-06996D02*
X11681D01*
X10784Y-06731D02*
X11048Y-06996D01*
X11651Y-056D02*
Y-05634D01*
X11677Y-0566D01*
X11707Y-05715D02*
Y-0569D01*
X11677Y-0566D01*
X11607Y-0569D02*
X11646D01*
X11677Y-0566D01*
X11452Y-05955D02*
X11494D01*
X11495Y-05955D01*
X11347Y-05958D02*
Y-05952D01*
X11392Y-05907D02*
Y-05901D01*
X11347Y-05952D02*
X11392Y-05907D01*
X11452Y-05955D02*
Y-05904D01*
X11392Y-05901D02*
X11449D01*
X11452Y-05904D01*
X11321Y-06085D02*
X11335D01*
X11367Y-06052D01*
X12035Y-06565D02*
X12015D01*
X1199Y-06474D02*
X12011Y-06452D01*
X1199Y-0654D02*
Y-06474D01*
X12015Y-06565D02*
X1199Y-0654D01*
X10722Y-06163D02*
Y-06111D01*
X10699D01*
X10695Y-06047D02*
X10727Y-06015D01*
X10695Y-06107D02*
Y-06047D01*
X10699Y-06111D02*
X10695Y-06107D01*
X11499Y-06462D02*
Y-06533D01*
X11436Y-06597D01*
X12018Y-06798D02*
Y-06715D01*
Y-06867D02*
Y-06798D01*
X12006Y-0681D02*
X12018Y-06798D01*
X12003Y-06881D02*
X12018Y-06867D01*
X11968Y-06881D02*
X12003D01*
X11968D02*
Y-06893D01*
X11937Y-06881D02*
X11968D01*
X11925Y-0687D02*
X11937Y-06881D01*
X12411Y-06702D02*
Y-06754D01*
X12332Y-06702D02*
X12411D01*
Y-06754D02*
X12409Y-06755D01*
X12261Y-06446D02*
X12291Y-06476D01*
X11912Y-0629D02*
X11893Y-06271D01*
X11914Y-06251D02*
X11893Y-06271D01*
X11894Y-06271D01*
X11904Y-06212D02*
X11895Y-06202D01*
X11905Y-06192D02*
X11895Y-06202D01*
X119Y-06034D02*
X11889Y-06023D01*
X12055Y-05885D02*
X12035D01*
X12031Y-05881D01*
X12064Y-05895D02*
X12055Y-05885D01*
X1281Y-05827D02*
X1283Y-05807D01*
X1281Y-05787D01*
Y-06002D02*
X1283Y-05982D01*
X1281Y-05962D01*
Y-06177D02*
X1283Y-06157D01*
X1281Y-06137D01*
Y-06352D02*
X1283Y-06332D01*
X1281Y-06312D01*
Y-06702D02*
X1283Y-06682D01*
X1281Y-06662D01*
Y-06527D02*
X1283Y-06507D01*
X1281Y-06487D01*
X1283Y-07015D02*
X12827Y-07012D01*
X1281Y-06877D02*
X1283Y-06857D01*
X1281Y-06837D01*
X12425Y-05689D02*
X12425Y-05688D01*
X12312Y-06584D02*
Y-06683D01*
X12332Y-06702D01*
X12086Y-06568D02*
X12035D01*
X12035Y-06569D01*
X12425Y-0574D02*
Y-05689D01*
Y-0574D02*
X12485D01*
X11893Y-06447D02*
Y-06387D01*
X11892Y-06387D01*
X1185D01*
X10877Y-06307D02*
X1092Y-0635D01*
Y-06373D01*
X1094Y-06352D02*
X1092Y-06373D01*
Y-06428D01*
X11061Y-0636D02*
X10993Y-06428D01*
X1092D01*
X10996Y-06597D02*
X1097D01*
X1092Y-06546D01*
X1097Y-06265D02*
X10919D01*
X10877Y-06307D01*
X11342Y-06407D02*
X11342Y-06407D01*
Y-06452D01*
X11342Y-06407D02*
X11337Y-06412D01*
X11284D01*
X11282Y-06455D02*
X11284Y-06453D01*
Y-06412D01*
X1256Y-05691D02*
Y-0565D01*
X11324Y-05745D02*
Y-05648D01*
X11185Y-06015D02*
Y-06005D01*
X1122Y-0597D01*
X111Y-06023D02*
Y-0599D01*
X11085Y-05975D01*
X11103Y-05787D02*
X11055D01*
X11185Y-05905D02*
X11114D01*
X11185D02*
Y-05879D01*
X11462Y-06145D02*
X11391D01*
X11507Y-061D02*
X11462Y-06145D01*
X11147Y-06454D02*
Y-06502D01*
X12142Y-07077D02*
Y-06995D01*
X10661Y-06902D02*
X10572D01*
X10555Y-06919D01*
X10661Y-06731D02*
Y-06902D01*
Y-06904D01*
X10707Y-0695D02*
X10661Y-06904D01*
X10585Y-0625D02*
Y-0635D01*
Y-06415D01*
X10555Y-06445D01*
X11061Y-0636D02*
Y-06328D01*
X1115Y-0624D01*
X11015Y-0604D02*
Y-06035D01*
X10997Y-06017D01*
X12827Y-07012D02*
X12788D01*
Y-06877D02*
X1281D01*
Y-06837D02*
X12788D01*
Y-06702D02*
X1281D01*
Y-06662D02*
X12788D01*
Y-06527D02*
X1281D01*
Y-06487D02*
X12788D01*
Y-06352D02*
X1281D01*
Y-06312D02*
X12788D01*
Y-06177D02*
X1281D01*
Y-06137D02*
X12788D01*
Y-06002D02*
X1281D01*
Y-05962D02*
X12788D01*
Y-05827D02*
X1281D01*
X12788Y-05652D02*
X1283D01*
X1281Y-05787D02*
X12788D01*
X11185Y-05879D02*
X11187Y-05877D01*
X11242D02*
X11187D01*
X11955Y-06212D02*
X11904D01*
X11955Y-06192D02*
X11905D01*
X10997Y-06058D02*
X11015Y-0604D01*
X11021Y-06034D01*
X1104D01*
X12064Y-05945D02*
Y-05895D01*
X11955Y-06034D02*
X119D01*
X11955Y-0629D02*
X11912D01*
X11955Y-06251D02*
X11914D01*
X11955Y-06271D02*
X11894D01*
X12044Y-06413D02*
Y-06419D01*
X12011Y-06452D01*
X12084Y-06414D02*
Y-06459D01*
X12044Y-06458D02*
Y-06413D01*
X12055Y-06468D02*
X12044Y-06458D01*
X12074Y-06468D02*
X12055D01*
X12084Y-06459D02*
X12074Y-06468D01*
X12261Y-06413D02*
Y-06446D01*
X12411Y-06702D02*
Y-06628D01*
X12411Y-06627D01*
X11707Y-05715D02*
X11725Y-05733D01*
X11857Y-0572D02*
Y-0568D01*
X11845Y-05733D02*
X11857Y-0572D01*
X11725Y-05733D02*
X11845D01*
X11935Y-05691D02*
X11868D01*
X11857Y-0568D01*
Y-056D01*
X11863Y-05595D01*
X11975Y-0681D02*
X12006D01*
X11888Y-0687D02*
X11925D01*
X12423Y-06212D02*
X12612D01*
X12677Y-06387D02*
X12732Y-06442D01*
X12677Y-06277D02*
Y-06387D01*
X12612Y-06212D02*
X12677Y-06277D01*
X12732Y-06442D02*
Y-06483D01*
X12736Y-06487D01*
X11783Y-05787D02*
X11779Y-0579D01*
X11707D01*
X11446Y-05785D02*
X11478D01*
X11607Y-05761D02*
Y-05797D01*
X11594Y-05748D02*
X11607Y-05761D01*
X11515Y-05748D02*
X11594D01*
X11478Y-05785D02*
X11515Y-05748D01*
X11533Y-0569D02*
X11466D01*
X11446Y-0571D01*
X11807Y-0662D02*
X1186Y-06672D01*
X11905D01*
X1104Y-0607D02*
Y-06098D01*
X11061Y-06119D01*
X10979Y-06352D02*
X11006D01*
X11029Y-06328D01*
X11249Y-0652D02*
X11285D01*
X11235Y-06505D02*
X11249Y-0652D01*
X11405Y-06379D02*
Y-064D01*
X1136Y-06335D02*
X11405Y-06379D01*
X12423Y-06113D02*
X12666D01*
X12732Y-06047D01*
Y-06006D01*
X12736Y-06002D01*
X12423Y-06034D02*
Y-06006D01*
X12732Y-05697D01*
Y-05656D01*
X12736Y-05652D01*
X12423Y-06054D02*
X12463D01*
X1269Y-05785D02*
X12732Y-05742D01*
X1269Y-05827D02*
Y-05785D01*
X12463Y-06054D02*
X1269Y-05827D01*
X12732Y-05742D02*
Y-05783D01*
X12736Y-05787D01*
X12423Y-06133D02*
X12692D01*
X12732Y-06092D01*
Y-06133D01*
X12736Y-06137D01*
X12423Y-06074D02*
X12531D01*
X12732Y-05872D01*
Y-05831D01*
X12736Y-05827D01*
X12423Y-06093D02*
X12556D01*
X12732Y-05917D01*
Y-05958D01*
X12736Y-05962D01*
X12607Y-05747D02*
X12563D01*
X1256Y-05743D01*
X1234Y-05945D02*
X12427D01*
X1256Y-05812D02*
Y-05743D01*
X12427Y-05945D02*
X1256Y-05812D01*
X12732Y-06922D02*
X12585Y-06774D01*
X1257Y-0631D02*
X12423D01*
X12585Y-06325D02*
X1257Y-0631D01*
X12585Y-06774D02*
Y-06325D01*
X12732Y-06927D02*
Y-06886D01*
X12736Y-06882D01*
X12423Y-0633D02*
X12547D01*
X12565Y-06799D02*
X12732Y-06967D01*
X12565Y-06347D02*
Y-06799D01*
X12547Y-0633D02*
X12565Y-06347D01*
X12732Y-06972D02*
Y-07013D01*
X12736Y-07017D01*
X12423Y-06231D02*
X12604D01*
X1266Y-06499D02*
X12732Y-06572D01*
X1266Y-06287D02*
Y-06499D01*
X12604Y-06231D02*
X1266Y-06287D01*
X12732Y-06572D02*
Y-06531D01*
X12736Y-06527D01*
X12423Y-06251D02*
X12596D01*
X1264Y-06524D02*
X12732Y-06617D01*
X1264Y-06295D02*
Y-06524D01*
X12596Y-06251D02*
X1264Y-06295D01*
X12732Y-06617D02*
Y-06658D01*
X12736Y-06662D01*
X12732Y-06747D02*
X12622Y-06637D01*
X12591Y-06271D02*
X12423D01*
X12622Y-06302D02*
X12591Y-06271D01*
X12622Y-06637D02*
Y-06302D01*
X12732Y-06747D02*
Y-06706D01*
X12736Y-06702D01*
X12423Y-0629D02*
X12583D01*
X12605Y-06664D02*
X12732Y-06792D01*
X12605Y-06312D02*
Y-06664D01*
X12583Y-0629D02*
X12605Y-06312D01*
X12732Y-06792D02*
Y-06833D01*
X12736Y-06837D01*
X12423Y-06172D02*
X12638D01*
X12732Y-06267D01*
Y-06308D01*
X12736Y-06312D01*
X12423Y-06152D02*
X12663D01*
X12732Y-06222D01*
Y-06181D01*
X12736Y-06177D01*
X12423Y-06192D02*
X12627D01*
X12712Y-06352D02*
X12736D01*
X12695Y-06335D02*
X12712Y-06352D01*
X12695Y-0626D02*
Y-06335D01*
X12627Y-06192D02*
X12695Y-0626D01*
X12732Y-06397D02*
Y-06356D01*
X12736Y-06352D01*
X11823Y-06811D02*
X11888D01*
X11907D01*
X11945Y-06773D01*
X11888Y-06811D02*
X11907D01*
X11944Y-06848D01*
X11799Y-06835D02*
X11823Y-06811D01*
X11799Y-06849D02*
Y-06835D01*
X1172Y-0677D02*
X11799Y-06849D01*
X11197Y-0677D02*
X1172D01*
X11107Y-0668D02*
X11197Y-0677D01*
X10607Y-0668D02*
X11107D01*
X10485Y-06557D02*
X10607Y-0668D01*
X10485Y-0625D02*
Y-06557D01*
X11799Y-06996D02*
Y-06849D01*
X10585Y-0585D02*
X10535Y-059D01*
X10422Y-06187D02*
X10485Y-0625D01*
X10422Y-05945D02*
Y-06187D01*
X10467Y-059D02*
X10422Y-05945D01*
X10535Y-059D02*
X10467D01*
X11945Y-06773D02*
X11975D01*
X11944Y-06848D02*
X11975D01*
M02*