G04 (created by PCBNEW (2013-07-07 BZR 4022)-stable) date 2/3/2015 8:55:35 PM*
%MOIN*%
G04 Gerber Fmt 3.4, Leading zero omitted, Abs format*
%FSLAX34Y34*%
G01*
G70*
G90*
G04 APERTURE LIST*
%ADD10C,0.00590551*%
%ADD11R,0.055X0.055*%
%ADD12C,0.055*%
%ADD13C,0.0629921*%
%ADD14R,0.0590551X0.0590551*%
%ADD15C,0.019685*%
%ADD16C,0.0590551*%
%ADD17C,0.110236*%
%ADD18C,0.035*%
%ADD19C,0.01*%
G04 APERTURE END LIST*
G54D10*
G54D11*
X129675Y-63825D03*
G54D12*
X129675Y-64825D03*
X129675Y-65825D03*
X129675Y-66825D03*
X129675Y-67825D03*
X129675Y-68825D03*
X129675Y-69825D03*
X129675Y-70825D03*
G54D11*
X129675Y-55825D03*
G54D12*
X129675Y-56825D03*
X129675Y-57825D03*
X129675Y-58825D03*
X129675Y-59825D03*
X129675Y-60825D03*
X129675Y-61825D03*
X129675Y-62825D03*
X105850Y-60500D03*
X105850Y-59500D03*
X104850Y-60500D03*
X104850Y-62500D03*
G54D11*
X105850Y-62500D03*
G54D12*
X104850Y-61500D03*
X105850Y-61500D03*
X104850Y-59500D03*
X104850Y-58500D03*
X105850Y-58500D03*
G54D11*
X121425Y-70775D03*
G54D12*
X120425Y-70775D03*
G54D11*
X118075Y-66200D03*
G54D12*
X118075Y-67200D03*
G54D13*
X111735Y-65970D03*
X109964Y-65970D03*
X109964Y-68529D03*
X111735Y-68529D03*
X112589Y-68529D03*
X114360Y-68529D03*
X114360Y-65970D03*
X112589Y-65970D03*
X115214Y-68529D03*
X116985Y-68529D03*
X116985Y-65970D03*
X115214Y-65970D03*
G54D14*
X125975Y-70500D03*
G54D11*
X126175Y-55975D03*
G54D12*
X125175Y-55975D03*
G54D15*
X111303Y-62596D03*
X111303Y-62203D03*
X111696Y-62203D03*
X111696Y-62596D03*
X111696Y-62990D03*
X111303Y-62990D03*
X110909Y-62990D03*
X110909Y-62596D03*
X110909Y-62203D03*
X110909Y-61809D03*
X111303Y-61809D03*
X111696Y-61809D03*
X112090Y-61809D03*
X112090Y-62203D03*
X112090Y-62596D03*
X112090Y-62990D03*
G54D16*
X107404Y-67317D03*
X107404Y-66332D03*
X106616Y-66332D03*
X106616Y-67317D03*
G54D17*
X105550Y-64454D03*
X105550Y-69195D03*
G54D16*
X118290Y-70850D03*
X117109Y-70850D03*
G54D18*
X116425Y-62050D03*
X117475Y-61000D03*
X115875Y-63200D03*
X117950Y-61025D03*
X114525Y-61025D03*
X115550Y-65400D03*
X110575Y-65225D03*
X106700Y-61600D03*
X109550Y-61075D03*
X114575Y-63800D03*
X113225Y-60400D03*
X112300Y-60200D03*
X112800Y-63725D03*
X111025Y-64575D03*
X109225Y-63050D03*
X116775Y-56600D03*
X114950Y-59550D03*
X113675Y-60525D03*
X107275Y-60150D03*
X119685Y-68937D03*
X124094Y-67559D03*
X122913Y-64763D03*
X121425Y-69950D03*
X120118Y-64527D03*
X118937Y-62716D03*
X118950Y-62025D03*
X118897Y-60236D03*
X120314Y-58818D03*
X124251Y-56889D03*
X125600Y-56500D03*
X128300Y-56525D03*
X128300Y-58075D03*
X128300Y-59825D03*
X128300Y-61575D03*
X128300Y-63325D03*
X128300Y-66825D03*
X128300Y-65075D03*
X128300Y-70150D03*
X128300Y-68575D03*
X118500Y-63875D03*
X113425Y-64525D03*
X112200Y-59700D03*
X110850Y-59750D03*
X110550Y-57875D03*
X115075Y-61000D03*
X111475Y-65025D03*
X105850Y-63500D03*
X107075Y-69500D03*
X108775Y-63075D03*
X109975Y-60175D03*
X113249Y-57450D03*
X112425Y-58775D03*
G54D19*
X117475Y-61000D02*
X116425Y-62050D01*
X115875Y-63100D02*
X115875Y-63200D01*
X117950Y-61025D02*
X115875Y-63100D01*
X115550Y-62050D02*
X114525Y-61025D01*
X115550Y-65400D02*
X115550Y-62050D01*
X110325Y-65225D02*
X110575Y-65225D01*
X106700Y-61600D02*
X110325Y-65225D01*
X109225Y-63050D02*
X109550Y-62725D01*
X109550Y-62725D02*
X109550Y-61075D01*
X113225Y-60400D02*
X113225Y-62450D01*
X113225Y-62450D02*
X114575Y-63800D01*
X112800Y-63725D02*
X114500Y-63725D01*
X114500Y-63725D02*
X114575Y-63800D01*
X112300Y-60200D02*
X113025Y-60200D01*
X113025Y-60200D02*
X113225Y-60400D01*
X109225Y-63050D02*
X110750Y-64575D01*
X110750Y-64575D02*
X111025Y-64575D01*
X119641Y-59466D02*
X119666Y-59466D01*
X116775Y-56600D02*
X119641Y-59466D01*
X114360Y-68529D02*
X114360Y-68635D01*
X116415Y-69100D02*
X116985Y-68529D01*
X114825Y-69100D02*
X116415Y-69100D01*
X114360Y-68635D02*
X114825Y-69100D01*
X113975Y-60525D02*
X113675Y-60525D01*
X114950Y-59550D02*
X113975Y-60525D01*
X105850Y-63500D02*
X107493Y-63500D01*
X107493Y-63500D02*
X109964Y-65970D01*
X107300Y-60175D02*
X109975Y-60175D01*
X107275Y-60150D02*
X107300Y-60175D01*
X114360Y-65970D02*
X114360Y-65460D01*
X114360Y-65460D02*
X113425Y-64525D01*
X124074Y-67539D02*
X120137Y-67539D01*
X124094Y-67559D02*
X124074Y-67539D01*
X120137Y-67539D02*
X119685Y-67992D01*
X122913Y-64763D02*
X120137Y-67539D01*
X119685Y-65196D02*
X119685Y-67992D01*
X119685Y-67992D02*
X119685Y-68937D01*
X119277Y-68529D02*
X119685Y-68937D01*
X116985Y-68529D02*
X119277Y-68529D01*
X120412Y-68937D02*
X119685Y-68937D01*
X119685Y-68937D02*
X119685Y-69685D01*
X121425Y-69950D02*
X120412Y-68937D01*
X118937Y-64448D02*
X119685Y-65196D01*
X119685Y-64960D02*
X119685Y-65196D01*
X120118Y-64527D02*
X119685Y-64960D01*
X118937Y-62716D02*
X118937Y-64448D01*
X118937Y-62047D02*
X118937Y-62716D01*
X118967Y-62007D02*
X118976Y-62007D01*
X118950Y-62025D02*
X118967Y-62007D01*
X118937Y-62047D02*
X118976Y-62007D01*
X118976Y-60314D02*
X118976Y-62007D01*
X118897Y-60236D02*
X118976Y-60314D01*
X119527Y-59606D02*
X118897Y-60236D01*
X120314Y-58818D02*
X119666Y-59466D01*
X119666Y-59466D02*
X119527Y-59606D01*
X122322Y-58818D02*
X120314Y-58818D01*
X124251Y-56889D02*
X122322Y-58818D01*
X124641Y-56500D02*
X124251Y-56889D01*
X128300Y-56525D02*
X128275Y-56500D01*
X128275Y-56500D02*
X125600Y-56500D01*
X125600Y-56500D02*
X124641Y-56500D01*
X128300Y-56525D02*
X128300Y-58075D01*
X128300Y-58075D02*
X128300Y-59825D01*
X128300Y-59825D02*
X128300Y-61575D01*
X128300Y-61575D02*
X128300Y-63325D01*
X128300Y-63325D02*
X128300Y-65075D01*
X128300Y-66850D02*
X128300Y-68575D01*
X128300Y-65075D02*
X128300Y-66850D01*
X128300Y-66850D02*
X128300Y-66825D01*
X128300Y-68575D02*
X128300Y-70150D01*
X118500Y-63875D02*
X116985Y-65389D01*
X116985Y-65389D02*
X116985Y-65970D01*
X111975Y-64525D02*
X111475Y-65025D01*
X113425Y-64525D02*
X111975Y-64525D01*
X112200Y-59700D02*
X112775Y-59125D01*
X110850Y-59750D02*
X110625Y-59525D01*
X110550Y-57875D02*
X111450Y-58775D01*
X113675Y-60525D02*
X113675Y-60025D01*
X113675Y-60025D02*
X112775Y-59125D01*
X112775Y-59125D02*
X112425Y-58775D01*
X113675Y-60525D02*
X113800Y-60650D01*
X113800Y-60650D02*
X114725Y-60650D01*
X114725Y-60650D02*
X115075Y-61000D01*
X111175Y-65325D02*
X110925Y-65325D01*
X111475Y-65025D02*
X111175Y-65325D01*
X108775Y-63075D02*
X110550Y-64850D01*
X110429Y-65970D02*
X109964Y-65970D01*
X110925Y-65325D02*
X110925Y-65475D01*
X110925Y-65475D02*
X110429Y-65970D01*
X110925Y-65000D02*
X110925Y-65325D01*
X110775Y-64850D02*
X110925Y-65000D01*
X110550Y-64850D02*
X110775Y-64850D01*
X116985Y-65970D02*
X116985Y-68529D01*
X114360Y-68529D02*
X114360Y-65970D01*
X109964Y-65970D02*
X109964Y-68529D01*
X105725Y-68150D02*
X107075Y-69500D01*
X105725Y-65400D02*
X105725Y-68150D01*
X106450Y-64675D02*
X105725Y-65400D01*
X106450Y-64100D02*
X106450Y-64675D01*
X106450Y-64100D02*
X105850Y-63500D01*
X108775Y-63075D02*
X108775Y-61375D01*
X108775Y-61375D02*
X109975Y-60175D01*
X111375Y-58775D02*
X111450Y-58775D01*
X111450Y-58775D02*
X112425Y-58775D01*
X109975Y-60175D02*
X110625Y-59525D01*
X110625Y-59525D02*
X111375Y-58775D01*
X113249Y-57950D02*
X112425Y-58775D01*
X113249Y-57950D02*
X113249Y-57450D01*
M02*
