G04 (created by PCBNEW (2013-07-07 BZR 4022)-stable) date 2/4/2015 10:54:45 AM*
%MOIN*%
G04 Gerber Fmt 3.4, Leading zero omitted, Abs format*
%FSLAX34Y34*%
G01*
G70*
G90*
G04 APERTURE LIST*
%ADD10C,0.00590551*%
%ADD11R,0.055X0.055*%
%ADD12C,0.055*%
%ADD13C,0.0629921*%
%ADD14R,0.0590551X0.0590551*%
%ADD15C,0.0590551*%
%ADD16C,0.110236*%
%ADD17C,0.035*%
%ADD18C,0.02*%
%ADD19C,0.01*%
G04 APERTURE END LIST*
G54D10*
G54D11*
X129675Y-63825D03*
G54D12*
X129675Y-64825D03*
X129675Y-65825D03*
X129675Y-66825D03*
X129675Y-67825D03*
X129675Y-68825D03*
X129675Y-69825D03*
X129675Y-70825D03*
G54D11*
X129675Y-55825D03*
G54D12*
X129675Y-56825D03*
X129675Y-57825D03*
X129675Y-58825D03*
X129675Y-59825D03*
X129675Y-60825D03*
X129675Y-61825D03*
X129675Y-62825D03*
X105850Y-60500D03*
X105850Y-59500D03*
X104850Y-60500D03*
X104850Y-62500D03*
G54D11*
X105850Y-62500D03*
G54D12*
X104850Y-61500D03*
X105850Y-61500D03*
X104850Y-59500D03*
X104850Y-58500D03*
X105850Y-58500D03*
G54D11*
X121425Y-70775D03*
G54D12*
X120425Y-70775D03*
G54D11*
X118075Y-66200D03*
G54D12*
X118075Y-67200D03*
G54D13*
X111735Y-65970D03*
X109964Y-65970D03*
X109964Y-68529D03*
X111735Y-68529D03*
X112589Y-68529D03*
X114360Y-68529D03*
X114360Y-65970D03*
X112589Y-65970D03*
X115214Y-68529D03*
X116985Y-68529D03*
X116985Y-65970D03*
X115214Y-65970D03*
G54D14*
X125975Y-70500D03*
G54D11*
X126175Y-55975D03*
G54D12*
X125175Y-55975D03*
G54D15*
X107404Y-67317D03*
X107404Y-66332D03*
X106616Y-66332D03*
X106616Y-67317D03*
G54D16*
X105550Y-64454D03*
X105550Y-69195D03*
G54D15*
X118290Y-70850D03*
X117109Y-70850D03*
G54D17*
X116425Y-62050D03*
X117475Y-61000D03*
X115875Y-63200D03*
X117950Y-61025D03*
X114525Y-61025D03*
X115550Y-65400D03*
X110575Y-65225D03*
X106700Y-61600D03*
X109550Y-61075D03*
X114575Y-63800D03*
X113225Y-60400D03*
X112300Y-60200D03*
X112800Y-63725D03*
X111025Y-64575D03*
X109225Y-63050D03*
G54D18*
X106550Y-65300D03*
X107150Y-64350D03*
X106800Y-63850D03*
X107525Y-63650D03*
X107650Y-64525D03*
X108400Y-64000D03*
X108025Y-63425D03*
X107350Y-62975D03*
X106550Y-63325D03*
X122425Y-71075D03*
X123425Y-71075D03*
X124425Y-71075D03*
X125425Y-71075D03*
X126425Y-71075D03*
X127425Y-71075D03*
X128425Y-71075D03*
X109425Y-58075D03*
G54D17*
X108425Y-58075D03*
G54D18*
X108925Y-58575D03*
X107425Y-58075D03*
X107925Y-58575D03*
X106925Y-59575D03*
X106925Y-58575D03*
X107425Y-59075D03*
X107925Y-59575D03*
X108925Y-59575D03*
X109425Y-59075D03*
X108425Y-59075D03*
X118425Y-59575D03*
X108925Y-57575D03*
X107925Y-57575D03*
X106925Y-57575D03*
X105925Y-57575D03*
X104925Y-57575D03*
X104425Y-58075D03*
X109925Y-57575D03*
X117925Y-59075D03*
X116925Y-59075D03*
X115925Y-59075D03*
X115425Y-59575D03*
X115925Y-60075D03*
X115425Y-60575D03*
X116425Y-60575D03*
X117925Y-60075D03*
X117425Y-59575D03*
X116425Y-59575D03*
X116925Y-60075D03*
X107425Y-71075D03*
X108425Y-71075D03*
X109425Y-71075D03*
X110425Y-71075D03*
X111425Y-71075D03*
X112425Y-71075D03*
X113425Y-71075D03*
X114425Y-71075D03*
X115425Y-71075D03*
X116425Y-71075D03*
X106425Y-71075D03*
X105425Y-71075D03*
X104425Y-70575D03*
X104425Y-69575D03*
X104425Y-68575D03*
X104425Y-63575D03*
X104425Y-67575D03*
X104425Y-66575D03*
X104425Y-65575D03*
X104425Y-64575D03*
X124425Y-56075D03*
X123425Y-56075D03*
X122425Y-56075D03*
X121425Y-56075D03*
X120425Y-56075D03*
X119425Y-56075D03*
X116925Y-63575D03*
X117925Y-63325D03*
X115925Y-64825D03*
X116675Y-65075D03*
X112425Y-58325D03*
X112925Y-58575D03*
X113675Y-57825D03*
X112925Y-58075D03*
X110909Y-62990D03*
X110909Y-62596D03*
X110909Y-62203D03*
X110909Y-61809D03*
X111303Y-61809D03*
X111303Y-62203D03*
X111303Y-62596D03*
X111303Y-62990D03*
X111696Y-62990D03*
X111696Y-62596D03*
X111696Y-62203D03*
X111696Y-61809D03*
X112090Y-61809D03*
X112090Y-62203D03*
X112090Y-62596D03*
X112090Y-62990D03*
G54D17*
X110175Y-58675D03*
X116775Y-56600D03*
X114950Y-59550D03*
X113675Y-60525D03*
X107275Y-60150D03*
X119685Y-68937D03*
X124094Y-67559D03*
X122913Y-64763D03*
X121425Y-69950D03*
X120118Y-64527D03*
X118937Y-62716D03*
X118950Y-62025D03*
X118897Y-60236D03*
X120314Y-58818D03*
X124251Y-56889D03*
X125600Y-56500D03*
X128300Y-56525D03*
X128300Y-58075D03*
X128300Y-59825D03*
X128300Y-61575D03*
X128300Y-63325D03*
X128300Y-66825D03*
X128300Y-65075D03*
X128300Y-70150D03*
X128300Y-68575D03*
X118500Y-63875D03*
X113425Y-64525D03*
X112200Y-59700D03*
X110850Y-59750D03*
X110550Y-57875D03*
X115075Y-61000D03*
X111475Y-65025D03*
X105850Y-63500D03*
X107075Y-69500D03*
X108775Y-63075D03*
X109975Y-60175D03*
X113249Y-57450D03*
X112425Y-58775D03*
G54D19*
X117475Y-61000D02*
X116425Y-62050D01*
X115875Y-63100D02*
X115875Y-63200D01*
X117950Y-61025D02*
X115875Y-63100D01*
X115550Y-62050D02*
X114525Y-61025D01*
X115550Y-65400D02*
X115550Y-62050D01*
X110325Y-65225D02*
X110575Y-65225D01*
X106700Y-61600D02*
X110325Y-65225D01*
X109225Y-63050D02*
X109550Y-62725D01*
X109550Y-62725D02*
X109550Y-61075D01*
X113225Y-60400D02*
X113225Y-62450D01*
X113225Y-62450D02*
X114575Y-63800D01*
X112800Y-63725D02*
X114500Y-63725D01*
X114500Y-63725D02*
X114575Y-63800D01*
X112300Y-60200D02*
X113025Y-60200D01*
X113025Y-60200D02*
X113225Y-60400D01*
X109225Y-63050D02*
X110750Y-64575D01*
X110750Y-64575D02*
X111025Y-64575D01*
X106800Y-64000D02*
X107150Y-64350D01*
X106800Y-63850D02*
X106800Y-64000D01*
X107650Y-63775D02*
X107525Y-63650D01*
X107650Y-64525D02*
X107650Y-63775D01*
X108025Y-63625D02*
X108400Y-64000D01*
X108025Y-63425D02*
X108025Y-63625D01*
X107000Y-63325D02*
X107350Y-62975D01*
X106550Y-63325D02*
X107000Y-63325D01*
X123425Y-71075D02*
X124425Y-71075D01*
X125425Y-71075D02*
X126425Y-71075D01*
X128425Y-71075D02*
X127425Y-71075D01*
X108425Y-58075D02*
X108925Y-58575D01*
X107425Y-58075D02*
X107925Y-58575D01*
X107425Y-59075D02*
X106925Y-58575D01*
X108925Y-59575D02*
X107925Y-59575D01*
X108425Y-59075D02*
X109425Y-59075D01*
X108925Y-57575D02*
X109925Y-57575D01*
X107925Y-57575D02*
X106925Y-57575D01*
X105925Y-57575D02*
X104925Y-57575D01*
X117925Y-59075D02*
X116925Y-59075D01*
X115925Y-59075D02*
X115425Y-59575D01*
X115925Y-60075D02*
X115425Y-60575D01*
X116425Y-60575D02*
X117425Y-60575D01*
X117425Y-60575D02*
X117925Y-60075D01*
X117425Y-59575D02*
X116425Y-59575D01*
X106425Y-71075D02*
X107425Y-71075D01*
X108425Y-71075D02*
X109425Y-71075D01*
X110425Y-71075D02*
X111425Y-71075D01*
X112425Y-71075D02*
X113425Y-71075D01*
X114425Y-71075D02*
X115425Y-71075D01*
X104425Y-70575D02*
X105425Y-71075D01*
X104425Y-68575D02*
X104425Y-69575D01*
X104425Y-66575D02*
X104425Y-67575D01*
X104425Y-64575D02*
X104425Y-65575D01*
X123425Y-56075D02*
X124425Y-56075D01*
X122425Y-56075D02*
X121425Y-56075D01*
X119425Y-56075D02*
X120425Y-56075D01*
X118500Y-63875D02*
X117950Y-63325D01*
X117950Y-63325D02*
X117925Y-63325D01*
X116985Y-65970D02*
X116675Y-65659D01*
X116675Y-65659D02*
X116675Y-65075D01*
X113249Y-57450D02*
X112925Y-57774D01*
X113675Y-57825D02*
X112925Y-58575D01*
X112925Y-57774D02*
X112925Y-58075D01*
X110909Y-62596D02*
X110909Y-62990D01*
X110909Y-62203D02*
X110909Y-62596D01*
X110909Y-61809D02*
X110909Y-62203D01*
X111303Y-61809D02*
X110909Y-61809D01*
X111303Y-62203D02*
X111303Y-61809D01*
X111303Y-62596D02*
X111303Y-62203D01*
X111303Y-62990D02*
X111303Y-62596D01*
X111696Y-62990D02*
X111303Y-62990D01*
X111696Y-62596D02*
X111696Y-62990D01*
X111696Y-62203D02*
X111696Y-62596D01*
X111696Y-61809D02*
X111696Y-62203D01*
X112090Y-61809D02*
X111696Y-61809D01*
X112090Y-62203D02*
X112090Y-61809D01*
X112090Y-62596D02*
X112090Y-62203D01*
X112090Y-62990D02*
X112090Y-62596D01*
X111472Y-65027D02*
X112090Y-64409D01*
X112090Y-64409D02*
X112090Y-62990D01*
X110550Y-57875D02*
X110550Y-58300D01*
X110550Y-58300D02*
X110175Y-58675D01*
X119641Y-59466D02*
X119666Y-59466D01*
X116775Y-56600D02*
X119641Y-59466D01*
X114360Y-68529D02*
X114360Y-68635D01*
X116415Y-69100D02*
X116985Y-68529D01*
X114825Y-69100D02*
X116415Y-69100D01*
X114360Y-68635D02*
X114825Y-69100D01*
X113975Y-60525D02*
X113675Y-60525D01*
X114950Y-59550D02*
X113975Y-60525D01*
X105850Y-63500D02*
X107493Y-63500D01*
X107493Y-63500D02*
X109964Y-65970D01*
X107300Y-60175D02*
X109975Y-60175D01*
X107275Y-60150D02*
X107300Y-60175D01*
X114360Y-65970D02*
X114360Y-65460D01*
X114360Y-65460D02*
X113425Y-64525D01*
X124074Y-67539D02*
X120137Y-67539D01*
X124094Y-67559D02*
X124074Y-67539D01*
X120137Y-67539D02*
X119685Y-67992D01*
X122913Y-64763D02*
X120137Y-67539D01*
X119685Y-65196D02*
X119685Y-67992D01*
X119685Y-67992D02*
X119685Y-68937D01*
X119277Y-68529D02*
X119685Y-68937D01*
X116985Y-68529D02*
X119277Y-68529D01*
X120412Y-68937D02*
X119685Y-68937D01*
X119685Y-68937D02*
X119685Y-69685D01*
X121425Y-69950D02*
X120412Y-68937D01*
X118937Y-64448D02*
X119685Y-65196D01*
X119685Y-64960D02*
X119685Y-65196D01*
X120118Y-64527D02*
X119685Y-64960D01*
X118937Y-62716D02*
X118937Y-64448D01*
X118937Y-62047D02*
X118937Y-62716D01*
X118967Y-62007D02*
X118976Y-62007D01*
X118950Y-62025D02*
X118967Y-62007D01*
X118937Y-62047D02*
X118976Y-62007D01*
X118976Y-60314D02*
X118976Y-62007D01*
X118897Y-60236D02*
X118976Y-60314D01*
X119527Y-59606D02*
X118897Y-60236D01*
X120314Y-58818D02*
X119666Y-59466D01*
X119666Y-59466D02*
X119527Y-59606D01*
X122322Y-58818D02*
X120314Y-58818D01*
X124251Y-56889D02*
X122322Y-58818D01*
X124641Y-56500D02*
X124251Y-56889D01*
X128300Y-56525D02*
X128275Y-56500D01*
X128275Y-56500D02*
X125600Y-56500D01*
X125600Y-56500D02*
X124641Y-56500D01*
X128300Y-56525D02*
X128300Y-58075D01*
X128300Y-58075D02*
X128300Y-59825D01*
X128300Y-59825D02*
X128300Y-61575D01*
X128300Y-61575D02*
X128300Y-63325D01*
X128300Y-63325D02*
X128300Y-65075D01*
X128300Y-66850D02*
X128300Y-68575D01*
X128300Y-65075D02*
X128300Y-66850D01*
X128300Y-66850D02*
X128300Y-66825D01*
X128300Y-68575D02*
X128300Y-70150D01*
X118500Y-63875D02*
X116985Y-65389D01*
X116985Y-65389D02*
X116985Y-65970D01*
X111975Y-64525D02*
X111472Y-65027D01*
X111472Y-65027D02*
X111475Y-65025D01*
X113425Y-64525D02*
X111975Y-64525D01*
X112200Y-59700D02*
X112775Y-59125D01*
X110850Y-59750D02*
X110625Y-59525D01*
X110550Y-57875D02*
X110550Y-57875D01*
X110550Y-57875D02*
X111450Y-58775D01*
X113675Y-60525D02*
X113675Y-60025D01*
X113675Y-60025D02*
X112775Y-59125D01*
X112775Y-59125D02*
X112425Y-58775D01*
X113675Y-60525D02*
X113800Y-60650D01*
X113800Y-60650D02*
X114725Y-60650D01*
X114725Y-60650D02*
X115075Y-61000D01*
X111175Y-65325D02*
X110925Y-65325D01*
X111475Y-65025D02*
X111175Y-65325D01*
X108775Y-63075D02*
X110550Y-64850D01*
X110429Y-65970D02*
X109964Y-65970D01*
X110925Y-65325D02*
X110925Y-65475D01*
X110925Y-65475D02*
X110429Y-65970D01*
X110925Y-65000D02*
X110925Y-65325D01*
X110775Y-64850D02*
X110925Y-65000D01*
X110550Y-64850D02*
X110775Y-64850D01*
X116985Y-65970D02*
X116985Y-68529D01*
X114360Y-68529D02*
X114360Y-65970D01*
X109964Y-65970D02*
X109964Y-68529D01*
X105725Y-68150D02*
X107075Y-69500D01*
X105725Y-65400D02*
X105725Y-68150D01*
X106450Y-64675D02*
X105725Y-65400D01*
X106450Y-64100D02*
X106450Y-64675D01*
X106450Y-64100D02*
X105850Y-63500D01*
X108775Y-63075D02*
X108775Y-61375D01*
X108775Y-61375D02*
X109975Y-60175D01*
X111375Y-58775D02*
X111450Y-58775D01*
X111450Y-58775D02*
X112425Y-58775D01*
X109975Y-60175D02*
X110625Y-59525D01*
X110625Y-59525D02*
X111375Y-58775D01*
X113249Y-57950D02*
X112425Y-58775D01*
X113249Y-57950D02*
X113249Y-57450D01*
G54D10*
G36*
X130080Y-71405D02*
X126600Y-71405D01*
X126600Y-56220D01*
X126600Y-55670D01*
X126577Y-55615D01*
X126535Y-55572D01*
X126479Y-55550D01*
X126420Y-55549D01*
X125870Y-55549D01*
X125815Y-55572D01*
X125772Y-55614D01*
X125750Y-55670D01*
X125749Y-55729D01*
X125749Y-56279D01*
X125772Y-56334D01*
X125814Y-56377D01*
X125870Y-56399D01*
X125929Y-56400D01*
X126479Y-56400D01*
X126534Y-56377D01*
X126577Y-56335D01*
X126599Y-56279D01*
X126600Y-56220D01*
X126600Y-71405D01*
X126420Y-71405D01*
X126420Y-70765D01*
X126420Y-70175D01*
X126397Y-70119D01*
X126355Y-70077D01*
X126300Y-70054D01*
X126240Y-70054D01*
X125650Y-70054D01*
X125600Y-70075D01*
X125600Y-55890D01*
X125535Y-55734D01*
X125416Y-55614D01*
X125259Y-55550D01*
X125090Y-55549D01*
X124934Y-55614D01*
X124814Y-55733D01*
X124750Y-55890D01*
X124749Y-56059D01*
X124814Y-56215D01*
X124933Y-56335D01*
X125090Y-56399D01*
X125259Y-56400D01*
X125415Y-56335D01*
X125535Y-56216D01*
X125599Y-56059D01*
X125600Y-55890D01*
X125600Y-70075D01*
X125594Y-70077D01*
X125552Y-70119D01*
X125529Y-70174D01*
X125529Y-70234D01*
X125529Y-70824D01*
X125552Y-70880D01*
X125594Y-70922D01*
X125649Y-70945D01*
X125709Y-70945D01*
X126299Y-70945D01*
X126355Y-70922D01*
X126397Y-70880D01*
X126420Y-70825D01*
X126420Y-70765D01*
X126420Y-71405D01*
X120850Y-71405D01*
X120850Y-70690D01*
X120785Y-70534D01*
X120666Y-70414D01*
X120509Y-70350D01*
X120340Y-70349D01*
X120184Y-70414D01*
X120064Y-70533D01*
X120000Y-70690D01*
X119999Y-70859D01*
X120064Y-71015D01*
X120183Y-71135D01*
X120340Y-71199D01*
X120509Y-71200D01*
X120665Y-71135D01*
X120785Y-71016D01*
X120849Y-70859D01*
X120850Y-70690D01*
X120850Y-71405D01*
X118735Y-71405D01*
X118735Y-70761D01*
X118668Y-70598D01*
X118543Y-70472D01*
X118500Y-70454D01*
X118500Y-67115D01*
X118500Y-67115D01*
X118500Y-66445D01*
X118500Y-65895D01*
X118477Y-65840D01*
X118435Y-65797D01*
X118379Y-65775D01*
X118320Y-65774D01*
X118275Y-65774D01*
X118275Y-60960D01*
X118225Y-60841D01*
X118134Y-60749D01*
X118014Y-60700D01*
X117885Y-60699D01*
X117766Y-60749D01*
X117724Y-60790D01*
X117659Y-60724D01*
X117539Y-60675D01*
X117410Y-60674D01*
X117291Y-60724D01*
X117199Y-60815D01*
X117150Y-60935D01*
X117149Y-61042D01*
X116467Y-61725D01*
X116360Y-61724D01*
X116241Y-61774D01*
X116149Y-61865D01*
X116100Y-61985D01*
X116099Y-62114D01*
X116149Y-62233D01*
X116240Y-62325D01*
X116329Y-62362D01*
X115817Y-62874D01*
X115810Y-62874D01*
X115750Y-62899D01*
X115750Y-62050D01*
X115734Y-61973D01*
X115691Y-61908D01*
X114849Y-61067D01*
X114850Y-60960D01*
X114800Y-60841D01*
X114709Y-60749D01*
X114589Y-60700D01*
X114460Y-60699D01*
X114341Y-60749D01*
X114249Y-60840D01*
X114200Y-60960D01*
X114199Y-61089D01*
X114249Y-61208D01*
X114340Y-61300D01*
X114460Y-61349D01*
X114567Y-61350D01*
X115350Y-62132D01*
X115350Y-65140D01*
X115274Y-65215D01*
X115225Y-65335D01*
X115224Y-65464D01*
X115241Y-65505D01*
X115122Y-65505D01*
X114951Y-65576D01*
X114900Y-65627D01*
X114900Y-63735D01*
X114850Y-63616D01*
X114759Y-63524D01*
X114639Y-63475D01*
X114532Y-63474D01*
X113425Y-62367D01*
X113425Y-60659D01*
X113500Y-60584D01*
X113549Y-60464D01*
X113550Y-60335D01*
X113500Y-60216D01*
X113409Y-60124D01*
X113289Y-60075D01*
X113182Y-60074D01*
X113166Y-60058D01*
X113101Y-60015D01*
X113025Y-60000D01*
X112559Y-60000D01*
X112484Y-59924D01*
X112364Y-59875D01*
X112235Y-59874D01*
X112116Y-59924D01*
X112024Y-60015D01*
X111975Y-60135D01*
X111974Y-60264D01*
X112024Y-60383D01*
X112115Y-60475D01*
X112235Y-60524D01*
X112364Y-60525D01*
X112483Y-60475D01*
X112559Y-60400D01*
X112899Y-60400D01*
X112899Y-60464D01*
X112949Y-60583D01*
X113025Y-60659D01*
X113025Y-62450D01*
X113040Y-62526D01*
X113083Y-62591D01*
X114017Y-63525D01*
X113059Y-63525D01*
X112984Y-63449D01*
X112864Y-63400D01*
X112735Y-63399D01*
X112616Y-63449D01*
X112524Y-63540D01*
X112475Y-63660D01*
X112474Y-63789D01*
X112524Y-63908D01*
X112615Y-64000D01*
X112735Y-64049D01*
X112864Y-64050D01*
X112983Y-64000D01*
X113059Y-63925D01*
X114274Y-63925D01*
X114299Y-63983D01*
X114390Y-64075D01*
X114510Y-64124D01*
X114639Y-64125D01*
X114758Y-64075D01*
X114850Y-63984D01*
X114899Y-63864D01*
X114900Y-63735D01*
X114900Y-65627D01*
X114820Y-65706D01*
X114749Y-65877D01*
X114749Y-66062D01*
X114819Y-66233D01*
X114950Y-66364D01*
X115121Y-66435D01*
X115306Y-66435D01*
X115477Y-66364D01*
X115608Y-66234D01*
X115679Y-66063D01*
X115679Y-65878D01*
X115615Y-65724D01*
X115733Y-65675D01*
X115825Y-65584D01*
X115874Y-65464D01*
X115875Y-65335D01*
X115825Y-65216D01*
X115750Y-65140D01*
X115750Y-63500D01*
X115810Y-63524D01*
X115939Y-63525D01*
X116058Y-63475D01*
X116150Y-63384D01*
X116199Y-63264D01*
X116200Y-63135D01*
X116177Y-63080D01*
X117907Y-61349D01*
X118014Y-61350D01*
X118133Y-61300D01*
X118225Y-61209D01*
X118274Y-61089D01*
X118275Y-60960D01*
X118275Y-65774D01*
X117770Y-65774D01*
X117715Y-65797D01*
X117672Y-65839D01*
X117650Y-65895D01*
X117649Y-65954D01*
X117649Y-66504D01*
X117672Y-66559D01*
X117714Y-66602D01*
X117770Y-66624D01*
X117829Y-66625D01*
X118379Y-66625D01*
X118434Y-66602D01*
X118477Y-66560D01*
X118499Y-66504D01*
X118500Y-66445D01*
X118500Y-67115D01*
X118435Y-66959D01*
X118316Y-66839D01*
X118159Y-66775D01*
X117990Y-66774D01*
X117834Y-66839D01*
X117714Y-66958D01*
X117650Y-67115D01*
X117649Y-67284D01*
X117714Y-67440D01*
X117833Y-67560D01*
X117990Y-67624D01*
X118159Y-67625D01*
X118315Y-67560D01*
X118435Y-67441D01*
X118499Y-67284D01*
X118500Y-67115D01*
X118500Y-70454D01*
X118379Y-70404D01*
X118202Y-70404D01*
X118038Y-70472D01*
X117913Y-70597D01*
X117845Y-70761D01*
X117845Y-70938D01*
X117912Y-71101D01*
X118037Y-71227D01*
X118201Y-71295D01*
X118378Y-71295D01*
X118542Y-71227D01*
X118667Y-71102D01*
X118735Y-70938D01*
X118735Y-70761D01*
X118735Y-71405D01*
X117554Y-71405D01*
X117554Y-70761D01*
X117487Y-70598D01*
X117362Y-70472D01*
X117198Y-70404D01*
X117021Y-70404D01*
X116857Y-70472D01*
X116732Y-70597D01*
X116664Y-70761D01*
X116664Y-70938D01*
X116731Y-71101D01*
X116856Y-71227D01*
X117020Y-71295D01*
X117197Y-71295D01*
X117361Y-71227D01*
X117486Y-71102D01*
X117554Y-70938D01*
X117554Y-70761D01*
X117554Y-71405D01*
X115679Y-71405D01*
X115679Y-68437D01*
X115608Y-68266D01*
X115477Y-68135D01*
X115307Y-68064D01*
X115122Y-68064D01*
X114951Y-68135D01*
X114820Y-68265D01*
X114749Y-68436D01*
X114749Y-68621D01*
X114819Y-68792D01*
X114950Y-68923D01*
X115121Y-68994D01*
X115306Y-68994D01*
X115477Y-68923D01*
X115608Y-68793D01*
X115679Y-68622D01*
X115679Y-68437D01*
X115679Y-71405D01*
X113054Y-71405D01*
X113054Y-68437D01*
X113054Y-65878D01*
X112983Y-65707D01*
X112852Y-65576D01*
X112682Y-65505D01*
X112497Y-65505D01*
X112326Y-65576D01*
X112195Y-65706D01*
X112162Y-65785D01*
X112130Y-65707D01*
X111999Y-65576D01*
X111828Y-65505D01*
X111643Y-65505D01*
X111472Y-65576D01*
X111350Y-65698D01*
X111350Y-64510D01*
X111300Y-64391D01*
X111209Y-64299D01*
X111089Y-64250D01*
X110960Y-64249D01*
X110841Y-64299D01*
X110799Y-64341D01*
X109549Y-63092D01*
X109550Y-63007D01*
X109691Y-62866D01*
X109734Y-62801D01*
X109734Y-62801D01*
X109737Y-62788D01*
X109749Y-62725D01*
X109750Y-62725D01*
X109750Y-61334D01*
X109825Y-61259D01*
X109874Y-61139D01*
X109875Y-61010D01*
X109825Y-60891D01*
X109734Y-60799D01*
X109614Y-60750D01*
X109485Y-60749D01*
X109366Y-60799D01*
X109274Y-60890D01*
X109225Y-61010D01*
X109224Y-61139D01*
X109274Y-61258D01*
X109350Y-61334D01*
X109350Y-62642D01*
X109267Y-62725D01*
X109160Y-62724D01*
X109041Y-62774D01*
X108949Y-62865D01*
X108900Y-62985D01*
X108899Y-63114D01*
X108949Y-63233D01*
X109040Y-63325D01*
X109160Y-63374D01*
X109267Y-63375D01*
X110608Y-64716D01*
X110673Y-64759D01*
X110673Y-64759D01*
X110686Y-64762D01*
X110750Y-64775D01*
X110765Y-64775D01*
X110840Y-64850D01*
X110960Y-64899D01*
X111089Y-64900D01*
X111208Y-64850D01*
X111300Y-64759D01*
X111349Y-64639D01*
X111350Y-64510D01*
X111350Y-65698D01*
X111341Y-65706D01*
X111270Y-65877D01*
X111270Y-66062D01*
X111341Y-66233D01*
X111472Y-66364D01*
X111642Y-66435D01*
X111827Y-66435D01*
X111998Y-66364D01*
X112129Y-66234D01*
X112162Y-66155D01*
X112194Y-66233D01*
X112325Y-66364D01*
X112496Y-66435D01*
X112681Y-66435D01*
X112852Y-66364D01*
X112983Y-66234D01*
X113054Y-66063D01*
X113054Y-65878D01*
X113054Y-68437D01*
X112983Y-68266D01*
X112852Y-68135D01*
X112682Y-68064D01*
X112497Y-68064D01*
X112326Y-68135D01*
X112195Y-68265D01*
X112162Y-68344D01*
X112130Y-68266D01*
X111999Y-68135D01*
X111828Y-68064D01*
X111643Y-68064D01*
X111472Y-68135D01*
X111341Y-68265D01*
X111270Y-68436D01*
X111270Y-68621D01*
X111341Y-68792D01*
X111472Y-68923D01*
X111642Y-68994D01*
X111827Y-68994D01*
X111998Y-68923D01*
X112129Y-68793D01*
X112162Y-68714D01*
X112194Y-68792D01*
X112325Y-68923D01*
X112496Y-68994D01*
X112681Y-68994D01*
X112852Y-68923D01*
X112983Y-68793D01*
X113054Y-68622D01*
X113054Y-68437D01*
X113054Y-71405D01*
X110900Y-71405D01*
X110900Y-65160D01*
X110850Y-65041D01*
X110759Y-64949D01*
X110639Y-64900D01*
X110510Y-64899D01*
X110391Y-64949D01*
X110361Y-64978D01*
X107024Y-61642D01*
X107025Y-61535D01*
X106975Y-61416D01*
X106884Y-61324D01*
X106764Y-61275D01*
X106635Y-61274D01*
X106516Y-61324D01*
X106424Y-61415D01*
X106375Y-61535D01*
X106374Y-61664D01*
X106424Y-61783D01*
X106515Y-61875D01*
X106635Y-61924D01*
X106742Y-61925D01*
X110183Y-65366D01*
X110183Y-65366D01*
X110248Y-65409D01*
X110248Y-65409D01*
X110261Y-65412D01*
X110313Y-65422D01*
X110390Y-65500D01*
X110510Y-65549D01*
X110639Y-65550D01*
X110758Y-65500D01*
X110850Y-65409D01*
X110899Y-65289D01*
X110900Y-65160D01*
X110900Y-71405D01*
X107849Y-71405D01*
X107849Y-67228D01*
X107849Y-66244D01*
X107782Y-66080D01*
X107656Y-65955D01*
X107493Y-65887D01*
X107316Y-65887D01*
X107152Y-65955D01*
X107027Y-66080D01*
X107010Y-66119D01*
X106994Y-66080D01*
X106869Y-65955D01*
X106705Y-65887D01*
X106528Y-65887D01*
X106365Y-65955D01*
X106275Y-66044D01*
X106275Y-61415D01*
X106275Y-60415D01*
X106275Y-59415D01*
X106275Y-58415D01*
X106210Y-58259D01*
X106091Y-58139D01*
X105934Y-58075D01*
X105765Y-58074D01*
X105609Y-58139D01*
X105489Y-58258D01*
X105425Y-58415D01*
X105424Y-58584D01*
X105489Y-58740D01*
X105608Y-58860D01*
X105765Y-58924D01*
X105934Y-58925D01*
X106090Y-58860D01*
X106210Y-58741D01*
X106274Y-58584D01*
X106275Y-58415D01*
X106275Y-59415D01*
X106210Y-59259D01*
X106091Y-59139D01*
X105934Y-59075D01*
X105765Y-59074D01*
X105609Y-59139D01*
X105489Y-59258D01*
X105425Y-59415D01*
X105424Y-59584D01*
X105489Y-59740D01*
X105608Y-59860D01*
X105765Y-59924D01*
X105934Y-59925D01*
X106090Y-59860D01*
X106210Y-59741D01*
X106274Y-59584D01*
X106275Y-59415D01*
X106275Y-60415D01*
X106210Y-60259D01*
X106091Y-60139D01*
X105934Y-60075D01*
X105765Y-60074D01*
X105609Y-60139D01*
X105489Y-60258D01*
X105425Y-60415D01*
X105424Y-60584D01*
X105489Y-60740D01*
X105608Y-60860D01*
X105765Y-60924D01*
X105934Y-60925D01*
X106090Y-60860D01*
X106210Y-60741D01*
X106274Y-60584D01*
X106275Y-60415D01*
X106275Y-61415D01*
X106210Y-61259D01*
X106091Y-61139D01*
X105934Y-61075D01*
X105765Y-61074D01*
X105609Y-61139D01*
X105489Y-61258D01*
X105425Y-61415D01*
X105424Y-61584D01*
X105489Y-61740D01*
X105608Y-61860D01*
X105765Y-61924D01*
X105934Y-61925D01*
X106090Y-61860D01*
X106210Y-61741D01*
X106274Y-61584D01*
X106275Y-61415D01*
X106275Y-66044D01*
X106239Y-66080D01*
X106171Y-66243D01*
X106171Y-66421D01*
X106239Y-66584D01*
X106364Y-66710D01*
X106527Y-66778D01*
X106705Y-66778D01*
X106868Y-66710D01*
X106994Y-66585D01*
X107010Y-66545D01*
X107026Y-66584D01*
X107151Y-66710D01*
X107315Y-66778D01*
X107492Y-66778D01*
X107656Y-66710D01*
X107781Y-66585D01*
X107849Y-66421D01*
X107849Y-66244D01*
X107849Y-67228D01*
X107782Y-67065D01*
X107656Y-66939D01*
X107493Y-66871D01*
X107316Y-66871D01*
X107152Y-66939D01*
X107027Y-67064D01*
X106959Y-67228D01*
X106958Y-67405D01*
X107026Y-67569D01*
X107151Y-67694D01*
X107315Y-67762D01*
X107492Y-67762D01*
X107656Y-67694D01*
X107781Y-67569D01*
X107849Y-67406D01*
X107849Y-67228D01*
X107849Y-71405D01*
X105275Y-71405D01*
X105275Y-62415D01*
X105275Y-61415D01*
X105275Y-60415D01*
X105275Y-59415D01*
X105275Y-58415D01*
X105210Y-58259D01*
X105091Y-58139D01*
X104934Y-58075D01*
X104765Y-58074D01*
X104609Y-58139D01*
X104489Y-58258D01*
X104425Y-58415D01*
X104424Y-58584D01*
X104489Y-58740D01*
X104608Y-58860D01*
X104765Y-58924D01*
X104934Y-58925D01*
X105090Y-58860D01*
X105210Y-58741D01*
X105274Y-58584D01*
X105275Y-58415D01*
X105275Y-59415D01*
X105210Y-59259D01*
X105091Y-59139D01*
X104934Y-59075D01*
X104765Y-59074D01*
X104609Y-59139D01*
X104489Y-59258D01*
X104425Y-59415D01*
X104424Y-59584D01*
X104489Y-59740D01*
X104608Y-59860D01*
X104765Y-59924D01*
X104934Y-59925D01*
X105090Y-59860D01*
X105210Y-59741D01*
X105274Y-59584D01*
X105275Y-59415D01*
X105275Y-60415D01*
X105210Y-60259D01*
X105091Y-60139D01*
X104934Y-60075D01*
X104765Y-60074D01*
X104609Y-60139D01*
X104489Y-60258D01*
X104425Y-60415D01*
X104424Y-60584D01*
X104489Y-60740D01*
X104608Y-60860D01*
X104765Y-60924D01*
X104934Y-60925D01*
X105090Y-60860D01*
X105210Y-60741D01*
X105274Y-60584D01*
X105275Y-60415D01*
X105275Y-61415D01*
X105210Y-61259D01*
X105091Y-61139D01*
X104934Y-61075D01*
X104765Y-61074D01*
X104609Y-61139D01*
X104489Y-61258D01*
X104425Y-61415D01*
X104424Y-61584D01*
X104489Y-61740D01*
X104608Y-61860D01*
X104765Y-61924D01*
X104934Y-61925D01*
X105090Y-61860D01*
X105210Y-61741D01*
X105274Y-61584D01*
X105275Y-61415D01*
X105275Y-62415D01*
X105210Y-62259D01*
X105091Y-62139D01*
X104934Y-62075D01*
X104765Y-62074D01*
X104609Y-62139D01*
X104489Y-62258D01*
X104425Y-62415D01*
X104424Y-62584D01*
X104489Y-62740D01*
X104608Y-62860D01*
X104765Y-62924D01*
X104934Y-62925D01*
X105090Y-62860D01*
X105210Y-62741D01*
X105274Y-62584D01*
X105275Y-62415D01*
X105275Y-71405D01*
X104094Y-71405D01*
X104094Y-57400D01*
X113700Y-57400D01*
X113700Y-57325D01*
X113700Y-55419D01*
X129322Y-55419D01*
X129315Y-55422D01*
X129272Y-55464D01*
X129250Y-55520D01*
X129249Y-55579D01*
X129249Y-56129D01*
X129272Y-56184D01*
X129314Y-56227D01*
X129370Y-56249D01*
X129429Y-56250D01*
X129979Y-56250D01*
X130034Y-56227D01*
X130077Y-56185D01*
X130080Y-56177D01*
X130080Y-56693D01*
X130035Y-56584D01*
X129916Y-56464D01*
X129759Y-56400D01*
X129590Y-56399D01*
X129434Y-56464D01*
X129314Y-56583D01*
X129250Y-56740D01*
X129249Y-56909D01*
X129314Y-57065D01*
X129433Y-57185D01*
X129590Y-57249D01*
X129759Y-57250D01*
X129915Y-57185D01*
X130035Y-57066D01*
X130080Y-56957D01*
X130080Y-57693D01*
X130035Y-57584D01*
X129916Y-57464D01*
X129759Y-57400D01*
X129590Y-57399D01*
X129434Y-57464D01*
X129314Y-57583D01*
X129250Y-57740D01*
X129249Y-57909D01*
X129314Y-58065D01*
X129433Y-58185D01*
X129590Y-58249D01*
X129759Y-58250D01*
X129915Y-58185D01*
X130035Y-58066D01*
X130080Y-57957D01*
X130080Y-58693D01*
X130035Y-58584D01*
X129916Y-58464D01*
X129759Y-58400D01*
X129590Y-58399D01*
X129434Y-58464D01*
X129314Y-58583D01*
X129250Y-58740D01*
X129249Y-58909D01*
X129314Y-59065D01*
X129433Y-59185D01*
X129590Y-59249D01*
X129759Y-59250D01*
X129915Y-59185D01*
X130035Y-59066D01*
X130080Y-58957D01*
X130080Y-59693D01*
X130035Y-59584D01*
X129916Y-59464D01*
X129759Y-59400D01*
X129590Y-59399D01*
X129434Y-59464D01*
X129314Y-59583D01*
X129250Y-59740D01*
X129249Y-59909D01*
X129314Y-60065D01*
X129433Y-60185D01*
X129590Y-60249D01*
X129759Y-60250D01*
X129915Y-60185D01*
X130035Y-60066D01*
X130080Y-59957D01*
X130080Y-60693D01*
X130035Y-60584D01*
X129916Y-60464D01*
X129759Y-60400D01*
X129590Y-60399D01*
X129434Y-60464D01*
X129314Y-60583D01*
X129250Y-60740D01*
X129249Y-60909D01*
X129314Y-61065D01*
X129433Y-61185D01*
X129590Y-61249D01*
X129759Y-61250D01*
X129915Y-61185D01*
X130035Y-61066D01*
X130080Y-60957D01*
X130080Y-61693D01*
X130035Y-61584D01*
X129916Y-61464D01*
X129759Y-61400D01*
X129590Y-61399D01*
X129434Y-61464D01*
X129314Y-61583D01*
X129250Y-61740D01*
X129249Y-61909D01*
X129314Y-62065D01*
X129433Y-62185D01*
X129590Y-62249D01*
X129759Y-62250D01*
X129915Y-62185D01*
X130035Y-62066D01*
X130080Y-61957D01*
X130080Y-62693D01*
X130035Y-62584D01*
X129916Y-62464D01*
X129759Y-62400D01*
X129590Y-62399D01*
X129434Y-62464D01*
X129314Y-62583D01*
X129250Y-62740D01*
X129249Y-62909D01*
X129314Y-63065D01*
X129433Y-63185D01*
X129590Y-63249D01*
X129759Y-63250D01*
X129915Y-63185D01*
X130035Y-63066D01*
X130080Y-62957D01*
X130080Y-63472D01*
X130077Y-63465D01*
X130035Y-63422D01*
X129979Y-63400D01*
X129920Y-63399D01*
X129370Y-63399D01*
X129315Y-63422D01*
X129272Y-63464D01*
X129250Y-63520D01*
X129249Y-63579D01*
X129249Y-64129D01*
X129272Y-64184D01*
X129314Y-64227D01*
X129370Y-64249D01*
X129429Y-64250D01*
X129979Y-64250D01*
X130034Y-64227D01*
X130077Y-64185D01*
X130080Y-64177D01*
X130080Y-64693D01*
X130035Y-64584D01*
X129916Y-64464D01*
X129759Y-64400D01*
X129590Y-64399D01*
X129434Y-64464D01*
X129314Y-64583D01*
X129250Y-64740D01*
X129249Y-64909D01*
X129314Y-65065D01*
X129433Y-65185D01*
X129590Y-65249D01*
X129759Y-65250D01*
X129915Y-65185D01*
X130035Y-65066D01*
X130080Y-64957D01*
X130080Y-65693D01*
X130035Y-65584D01*
X129916Y-65464D01*
X129759Y-65400D01*
X129590Y-65399D01*
X129434Y-65464D01*
X129314Y-65583D01*
X129250Y-65740D01*
X129249Y-65909D01*
X129314Y-66065D01*
X129433Y-66185D01*
X129590Y-66249D01*
X129759Y-66250D01*
X129915Y-66185D01*
X130035Y-66066D01*
X130080Y-65957D01*
X130080Y-66693D01*
X130035Y-66584D01*
X129916Y-66464D01*
X129759Y-66400D01*
X129590Y-66399D01*
X129434Y-66464D01*
X129314Y-66583D01*
X129250Y-66740D01*
X129249Y-66909D01*
X129314Y-67065D01*
X129433Y-67185D01*
X129590Y-67249D01*
X129759Y-67250D01*
X129915Y-67185D01*
X130035Y-67066D01*
X130080Y-66957D01*
X130080Y-67693D01*
X130035Y-67584D01*
X129916Y-67464D01*
X129759Y-67400D01*
X129590Y-67399D01*
X129434Y-67464D01*
X129314Y-67583D01*
X129250Y-67740D01*
X129249Y-67909D01*
X129314Y-68065D01*
X129433Y-68185D01*
X129590Y-68249D01*
X129759Y-68250D01*
X129915Y-68185D01*
X130035Y-68066D01*
X130080Y-67957D01*
X130080Y-68693D01*
X130035Y-68584D01*
X129916Y-68464D01*
X129759Y-68400D01*
X129590Y-68399D01*
X129434Y-68464D01*
X129314Y-68583D01*
X129250Y-68740D01*
X129249Y-68909D01*
X129314Y-69065D01*
X129433Y-69185D01*
X129590Y-69249D01*
X129759Y-69250D01*
X129915Y-69185D01*
X130035Y-69066D01*
X130080Y-68957D01*
X130080Y-69693D01*
X130035Y-69584D01*
X129916Y-69464D01*
X129759Y-69400D01*
X129590Y-69399D01*
X129434Y-69464D01*
X129314Y-69583D01*
X129250Y-69740D01*
X129249Y-69909D01*
X129314Y-70065D01*
X129433Y-70185D01*
X129590Y-70249D01*
X129759Y-70250D01*
X129915Y-70185D01*
X130035Y-70066D01*
X130080Y-69957D01*
X130080Y-70693D01*
X130035Y-70584D01*
X129916Y-70464D01*
X129759Y-70400D01*
X129590Y-70399D01*
X129434Y-70464D01*
X129314Y-70583D01*
X129250Y-70740D01*
X129249Y-70909D01*
X129314Y-71065D01*
X129433Y-71185D01*
X129590Y-71249D01*
X129759Y-71250D01*
X129915Y-71185D01*
X130035Y-71066D01*
X130080Y-70957D01*
X130080Y-71405D01*
X130080Y-71405D01*
G37*
G54D19*
X130080Y-71405D02*
X126600Y-71405D01*
X126600Y-56220D01*
X126600Y-55670D01*
X126577Y-55615D01*
X126535Y-55572D01*
X126479Y-55550D01*
X126420Y-55549D01*
X125870Y-55549D01*
X125815Y-55572D01*
X125772Y-55614D01*
X125750Y-55670D01*
X125749Y-55729D01*
X125749Y-56279D01*
X125772Y-56334D01*
X125814Y-56377D01*
X125870Y-56399D01*
X125929Y-56400D01*
X126479Y-56400D01*
X126534Y-56377D01*
X126577Y-56335D01*
X126599Y-56279D01*
X126600Y-56220D01*
X126600Y-71405D01*
X126420Y-71405D01*
X126420Y-70765D01*
X126420Y-70175D01*
X126397Y-70119D01*
X126355Y-70077D01*
X126300Y-70054D01*
X126240Y-70054D01*
X125650Y-70054D01*
X125600Y-70075D01*
X125600Y-55890D01*
X125535Y-55734D01*
X125416Y-55614D01*
X125259Y-55550D01*
X125090Y-55549D01*
X124934Y-55614D01*
X124814Y-55733D01*
X124750Y-55890D01*
X124749Y-56059D01*
X124814Y-56215D01*
X124933Y-56335D01*
X125090Y-56399D01*
X125259Y-56400D01*
X125415Y-56335D01*
X125535Y-56216D01*
X125599Y-56059D01*
X125600Y-55890D01*
X125600Y-70075D01*
X125594Y-70077D01*
X125552Y-70119D01*
X125529Y-70174D01*
X125529Y-70234D01*
X125529Y-70824D01*
X125552Y-70880D01*
X125594Y-70922D01*
X125649Y-70945D01*
X125709Y-70945D01*
X126299Y-70945D01*
X126355Y-70922D01*
X126397Y-70880D01*
X126420Y-70825D01*
X126420Y-70765D01*
X126420Y-71405D01*
X120850Y-71405D01*
X120850Y-70690D01*
X120785Y-70534D01*
X120666Y-70414D01*
X120509Y-70350D01*
X120340Y-70349D01*
X120184Y-70414D01*
X120064Y-70533D01*
X120000Y-70690D01*
X119999Y-70859D01*
X120064Y-71015D01*
X120183Y-71135D01*
X120340Y-71199D01*
X120509Y-71200D01*
X120665Y-71135D01*
X120785Y-71016D01*
X120849Y-70859D01*
X120850Y-70690D01*
X120850Y-71405D01*
X118735Y-71405D01*
X118735Y-70761D01*
X118668Y-70598D01*
X118543Y-70472D01*
X118500Y-70454D01*
X118500Y-67115D01*
X118500Y-67115D01*
X118500Y-66445D01*
X118500Y-65895D01*
X118477Y-65840D01*
X118435Y-65797D01*
X118379Y-65775D01*
X118320Y-65774D01*
X118275Y-65774D01*
X118275Y-60960D01*
X118225Y-60841D01*
X118134Y-60749D01*
X118014Y-60700D01*
X117885Y-60699D01*
X117766Y-60749D01*
X117724Y-60790D01*
X117659Y-60724D01*
X117539Y-60675D01*
X117410Y-60674D01*
X117291Y-60724D01*
X117199Y-60815D01*
X117150Y-60935D01*
X117149Y-61042D01*
X116467Y-61725D01*
X116360Y-61724D01*
X116241Y-61774D01*
X116149Y-61865D01*
X116100Y-61985D01*
X116099Y-62114D01*
X116149Y-62233D01*
X116240Y-62325D01*
X116329Y-62362D01*
X115817Y-62874D01*
X115810Y-62874D01*
X115750Y-62899D01*
X115750Y-62050D01*
X115734Y-61973D01*
X115691Y-61908D01*
X114849Y-61067D01*
X114850Y-60960D01*
X114800Y-60841D01*
X114709Y-60749D01*
X114589Y-60700D01*
X114460Y-60699D01*
X114341Y-60749D01*
X114249Y-60840D01*
X114200Y-60960D01*
X114199Y-61089D01*
X114249Y-61208D01*
X114340Y-61300D01*
X114460Y-61349D01*
X114567Y-61350D01*
X115350Y-62132D01*
X115350Y-65140D01*
X115274Y-65215D01*
X115225Y-65335D01*
X115224Y-65464D01*
X115241Y-65505D01*
X115122Y-65505D01*
X114951Y-65576D01*
X114900Y-65627D01*
X114900Y-63735D01*
X114850Y-63616D01*
X114759Y-63524D01*
X114639Y-63475D01*
X114532Y-63474D01*
X113425Y-62367D01*
X113425Y-60659D01*
X113500Y-60584D01*
X113549Y-60464D01*
X113550Y-60335D01*
X113500Y-60216D01*
X113409Y-60124D01*
X113289Y-60075D01*
X113182Y-60074D01*
X113166Y-60058D01*
X113101Y-60015D01*
X113025Y-60000D01*
X112559Y-60000D01*
X112484Y-59924D01*
X112364Y-59875D01*
X112235Y-59874D01*
X112116Y-59924D01*
X112024Y-60015D01*
X111975Y-60135D01*
X111974Y-60264D01*
X112024Y-60383D01*
X112115Y-60475D01*
X112235Y-60524D01*
X112364Y-60525D01*
X112483Y-60475D01*
X112559Y-60400D01*
X112899Y-60400D01*
X112899Y-60464D01*
X112949Y-60583D01*
X113025Y-60659D01*
X113025Y-62450D01*
X113040Y-62526D01*
X113083Y-62591D01*
X114017Y-63525D01*
X113059Y-63525D01*
X112984Y-63449D01*
X112864Y-63400D01*
X112735Y-63399D01*
X112616Y-63449D01*
X112524Y-63540D01*
X112475Y-63660D01*
X112474Y-63789D01*
X112524Y-63908D01*
X112615Y-64000D01*
X112735Y-64049D01*
X112864Y-64050D01*
X112983Y-64000D01*
X113059Y-63925D01*
X114274Y-63925D01*
X114299Y-63983D01*
X114390Y-64075D01*
X114510Y-64124D01*
X114639Y-64125D01*
X114758Y-64075D01*
X114850Y-63984D01*
X114899Y-63864D01*
X114900Y-63735D01*
X114900Y-65627D01*
X114820Y-65706D01*
X114749Y-65877D01*
X114749Y-66062D01*
X114819Y-66233D01*
X114950Y-66364D01*
X115121Y-66435D01*
X115306Y-66435D01*
X115477Y-66364D01*
X115608Y-66234D01*
X115679Y-66063D01*
X115679Y-65878D01*
X115615Y-65724D01*
X115733Y-65675D01*
X115825Y-65584D01*
X115874Y-65464D01*
X115875Y-65335D01*
X115825Y-65216D01*
X115750Y-65140D01*
X115750Y-63500D01*
X115810Y-63524D01*
X115939Y-63525D01*
X116058Y-63475D01*
X116150Y-63384D01*
X116199Y-63264D01*
X116200Y-63135D01*
X116177Y-63080D01*
X117907Y-61349D01*
X118014Y-61350D01*
X118133Y-61300D01*
X118225Y-61209D01*
X118274Y-61089D01*
X118275Y-60960D01*
X118275Y-65774D01*
X117770Y-65774D01*
X117715Y-65797D01*
X117672Y-65839D01*
X117650Y-65895D01*
X117649Y-65954D01*
X117649Y-66504D01*
X117672Y-66559D01*
X117714Y-66602D01*
X117770Y-66624D01*
X117829Y-66625D01*
X118379Y-66625D01*
X118434Y-66602D01*
X118477Y-66560D01*
X118499Y-66504D01*
X118500Y-66445D01*
X118500Y-67115D01*
X118435Y-66959D01*
X118316Y-66839D01*
X118159Y-66775D01*
X117990Y-66774D01*
X117834Y-66839D01*
X117714Y-66958D01*
X117650Y-67115D01*
X117649Y-67284D01*
X117714Y-67440D01*
X117833Y-67560D01*
X117990Y-67624D01*
X118159Y-67625D01*
X118315Y-67560D01*
X118435Y-67441D01*
X118499Y-67284D01*
X118500Y-67115D01*
X118500Y-70454D01*
X118379Y-70404D01*
X118202Y-70404D01*
X118038Y-70472D01*
X117913Y-70597D01*
X117845Y-70761D01*
X117845Y-70938D01*
X117912Y-71101D01*
X118037Y-71227D01*
X118201Y-71295D01*
X118378Y-71295D01*
X118542Y-71227D01*
X118667Y-71102D01*
X118735Y-70938D01*
X118735Y-70761D01*
X118735Y-71405D01*
X117554Y-71405D01*
X117554Y-70761D01*
X117487Y-70598D01*
X117362Y-70472D01*
X117198Y-70404D01*
X117021Y-70404D01*
X116857Y-70472D01*
X116732Y-70597D01*
X116664Y-70761D01*
X116664Y-70938D01*
X116731Y-71101D01*
X116856Y-71227D01*
X117020Y-71295D01*
X117197Y-71295D01*
X117361Y-71227D01*
X117486Y-71102D01*
X117554Y-70938D01*
X117554Y-70761D01*
X117554Y-71405D01*
X115679Y-71405D01*
X115679Y-68437D01*
X115608Y-68266D01*
X115477Y-68135D01*
X115307Y-68064D01*
X115122Y-68064D01*
X114951Y-68135D01*
X114820Y-68265D01*
X114749Y-68436D01*
X114749Y-68621D01*
X114819Y-68792D01*
X114950Y-68923D01*
X115121Y-68994D01*
X115306Y-68994D01*
X115477Y-68923D01*
X115608Y-68793D01*
X115679Y-68622D01*
X115679Y-68437D01*
X115679Y-71405D01*
X113054Y-71405D01*
X113054Y-68437D01*
X113054Y-65878D01*
X112983Y-65707D01*
X112852Y-65576D01*
X112682Y-65505D01*
X112497Y-65505D01*
X112326Y-65576D01*
X112195Y-65706D01*
X112162Y-65785D01*
X112130Y-65707D01*
X111999Y-65576D01*
X111828Y-65505D01*
X111643Y-65505D01*
X111472Y-65576D01*
X111350Y-65698D01*
X111350Y-64510D01*
X111300Y-64391D01*
X111209Y-64299D01*
X111089Y-64250D01*
X110960Y-64249D01*
X110841Y-64299D01*
X110799Y-64341D01*
X109549Y-63092D01*
X109550Y-63007D01*
X109691Y-62866D01*
X109734Y-62801D01*
X109734Y-62801D01*
X109737Y-62788D01*
X109749Y-62725D01*
X109750Y-62725D01*
X109750Y-61334D01*
X109825Y-61259D01*
X109874Y-61139D01*
X109875Y-61010D01*
X109825Y-60891D01*
X109734Y-60799D01*
X109614Y-60750D01*
X109485Y-60749D01*
X109366Y-60799D01*
X109274Y-60890D01*
X109225Y-61010D01*
X109224Y-61139D01*
X109274Y-61258D01*
X109350Y-61334D01*
X109350Y-62642D01*
X109267Y-62725D01*
X109160Y-62724D01*
X109041Y-62774D01*
X108949Y-62865D01*
X108900Y-62985D01*
X108899Y-63114D01*
X108949Y-63233D01*
X109040Y-63325D01*
X109160Y-63374D01*
X109267Y-63375D01*
X110608Y-64716D01*
X110673Y-64759D01*
X110673Y-64759D01*
X110686Y-64762D01*
X110750Y-64775D01*
X110765Y-64775D01*
X110840Y-64850D01*
X110960Y-64899D01*
X111089Y-64900D01*
X111208Y-64850D01*
X111300Y-64759D01*
X111349Y-64639D01*
X111350Y-64510D01*
X111350Y-65698D01*
X111341Y-65706D01*
X111270Y-65877D01*
X111270Y-66062D01*
X111341Y-66233D01*
X111472Y-66364D01*
X111642Y-66435D01*
X111827Y-66435D01*
X111998Y-66364D01*
X112129Y-66234D01*
X112162Y-66155D01*
X112194Y-66233D01*
X112325Y-66364D01*
X112496Y-66435D01*
X112681Y-66435D01*
X112852Y-66364D01*
X112983Y-66234D01*
X113054Y-66063D01*
X113054Y-65878D01*
X113054Y-68437D01*
X112983Y-68266D01*
X112852Y-68135D01*
X112682Y-68064D01*
X112497Y-68064D01*
X112326Y-68135D01*
X112195Y-68265D01*
X112162Y-68344D01*
X112130Y-68266D01*
X111999Y-68135D01*
X111828Y-68064D01*
X111643Y-68064D01*
X111472Y-68135D01*
X111341Y-68265D01*
X111270Y-68436D01*
X111270Y-68621D01*
X111341Y-68792D01*
X111472Y-68923D01*
X111642Y-68994D01*
X111827Y-68994D01*
X111998Y-68923D01*
X112129Y-68793D01*
X112162Y-68714D01*
X112194Y-68792D01*
X112325Y-68923D01*
X112496Y-68994D01*
X112681Y-68994D01*
X112852Y-68923D01*
X112983Y-68793D01*
X113054Y-68622D01*
X113054Y-68437D01*
X113054Y-71405D01*
X110900Y-71405D01*
X110900Y-65160D01*
X110850Y-65041D01*
X110759Y-64949D01*
X110639Y-64900D01*
X110510Y-64899D01*
X110391Y-64949D01*
X110361Y-64978D01*
X107024Y-61642D01*
X107025Y-61535D01*
X106975Y-61416D01*
X106884Y-61324D01*
X106764Y-61275D01*
X106635Y-61274D01*
X106516Y-61324D01*
X106424Y-61415D01*
X106375Y-61535D01*
X106374Y-61664D01*
X106424Y-61783D01*
X106515Y-61875D01*
X106635Y-61924D01*
X106742Y-61925D01*
X110183Y-65366D01*
X110183Y-65366D01*
X110248Y-65409D01*
X110248Y-65409D01*
X110261Y-65412D01*
X110313Y-65422D01*
X110390Y-65500D01*
X110510Y-65549D01*
X110639Y-65550D01*
X110758Y-65500D01*
X110850Y-65409D01*
X110899Y-65289D01*
X110900Y-65160D01*
X110900Y-71405D01*
X107849Y-71405D01*
X107849Y-67228D01*
X107849Y-66244D01*
X107782Y-66080D01*
X107656Y-65955D01*
X107493Y-65887D01*
X107316Y-65887D01*
X107152Y-65955D01*
X107027Y-66080D01*
X107010Y-66119D01*
X106994Y-66080D01*
X106869Y-65955D01*
X106705Y-65887D01*
X106528Y-65887D01*
X106365Y-65955D01*
X106275Y-66044D01*
X106275Y-61415D01*
X106275Y-60415D01*
X106275Y-59415D01*
X106275Y-58415D01*
X106210Y-58259D01*
X106091Y-58139D01*
X105934Y-58075D01*
X105765Y-58074D01*
X105609Y-58139D01*
X105489Y-58258D01*
X105425Y-58415D01*
X105424Y-58584D01*
X105489Y-58740D01*
X105608Y-58860D01*
X105765Y-58924D01*
X105934Y-58925D01*
X106090Y-58860D01*
X106210Y-58741D01*
X106274Y-58584D01*
X106275Y-58415D01*
X106275Y-59415D01*
X106210Y-59259D01*
X106091Y-59139D01*
X105934Y-59075D01*
X105765Y-59074D01*
X105609Y-59139D01*
X105489Y-59258D01*
X105425Y-59415D01*
X105424Y-59584D01*
X105489Y-59740D01*
X105608Y-59860D01*
X105765Y-59924D01*
X105934Y-59925D01*
X106090Y-59860D01*
X106210Y-59741D01*
X106274Y-59584D01*
X106275Y-59415D01*
X106275Y-60415D01*
X106210Y-60259D01*
X106091Y-60139D01*
X105934Y-60075D01*
X105765Y-60074D01*
X105609Y-60139D01*
X105489Y-60258D01*
X105425Y-60415D01*
X105424Y-60584D01*
X105489Y-60740D01*
X105608Y-60860D01*
X105765Y-60924D01*
X105934Y-60925D01*
X106090Y-60860D01*
X106210Y-60741D01*
X106274Y-60584D01*
X106275Y-60415D01*
X106275Y-61415D01*
X106210Y-61259D01*
X106091Y-61139D01*
X105934Y-61075D01*
X105765Y-61074D01*
X105609Y-61139D01*
X105489Y-61258D01*
X105425Y-61415D01*
X105424Y-61584D01*
X105489Y-61740D01*
X105608Y-61860D01*
X105765Y-61924D01*
X105934Y-61925D01*
X106090Y-61860D01*
X106210Y-61741D01*
X106274Y-61584D01*
X106275Y-61415D01*
X106275Y-66044D01*
X106239Y-66080D01*
X106171Y-66243D01*
X106171Y-66421D01*
X106239Y-66584D01*
X106364Y-66710D01*
X106527Y-66778D01*
X106705Y-66778D01*
X106868Y-66710D01*
X106994Y-66585D01*
X107010Y-66545D01*
X107026Y-66584D01*
X107151Y-66710D01*
X107315Y-66778D01*
X107492Y-66778D01*
X107656Y-66710D01*
X107781Y-66585D01*
X107849Y-66421D01*
X107849Y-66244D01*
X107849Y-67228D01*
X107782Y-67065D01*
X107656Y-66939D01*
X107493Y-66871D01*
X107316Y-66871D01*
X107152Y-66939D01*
X107027Y-67064D01*
X106959Y-67228D01*
X106958Y-67405D01*
X107026Y-67569D01*
X107151Y-67694D01*
X107315Y-67762D01*
X107492Y-67762D01*
X107656Y-67694D01*
X107781Y-67569D01*
X107849Y-67406D01*
X107849Y-67228D01*
X107849Y-71405D01*
X105275Y-71405D01*
X105275Y-62415D01*
X105275Y-61415D01*
X105275Y-60415D01*
X105275Y-59415D01*
X105275Y-58415D01*
X105210Y-58259D01*
X105091Y-58139D01*
X104934Y-58075D01*
X104765Y-58074D01*
X104609Y-58139D01*
X104489Y-58258D01*
X104425Y-58415D01*
X104424Y-58584D01*
X104489Y-58740D01*
X104608Y-58860D01*
X104765Y-58924D01*
X104934Y-58925D01*
X105090Y-58860D01*
X105210Y-58741D01*
X105274Y-58584D01*
X105275Y-58415D01*
X105275Y-59415D01*
X105210Y-59259D01*
X105091Y-59139D01*
X104934Y-59075D01*
X104765Y-59074D01*
X104609Y-59139D01*
X104489Y-59258D01*
X104425Y-59415D01*
X104424Y-59584D01*
X104489Y-59740D01*
X104608Y-59860D01*
X104765Y-59924D01*
X104934Y-59925D01*
X105090Y-59860D01*
X105210Y-59741D01*
X105274Y-59584D01*
X105275Y-59415D01*
X105275Y-60415D01*
X105210Y-60259D01*
X105091Y-60139D01*
X104934Y-60075D01*
X104765Y-60074D01*
X104609Y-60139D01*
X104489Y-60258D01*
X104425Y-60415D01*
X104424Y-60584D01*
X104489Y-60740D01*
X104608Y-60860D01*
X104765Y-60924D01*
X104934Y-60925D01*
X105090Y-60860D01*
X105210Y-60741D01*
X105274Y-60584D01*
X105275Y-60415D01*
X105275Y-61415D01*
X105210Y-61259D01*
X105091Y-61139D01*
X104934Y-61075D01*
X104765Y-61074D01*
X104609Y-61139D01*
X104489Y-61258D01*
X104425Y-61415D01*
X104424Y-61584D01*
X104489Y-61740D01*
X104608Y-61860D01*
X104765Y-61924D01*
X104934Y-61925D01*
X105090Y-61860D01*
X105210Y-61741D01*
X105274Y-61584D01*
X105275Y-61415D01*
X105275Y-62415D01*
X105210Y-62259D01*
X105091Y-62139D01*
X104934Y-62075D01*
X104765Y-62074D01*
X104609Y-62139D01*
X104489Y-62258D01*
X104425Y-62415D01*
X104424Y-62584D01*
X104489Y-62740D01*
X104608Y-62860D01*
X104765Y-62924D01*
X104934Y-62925D01*
X105090Y-62860D01*
X105210Y-62741D01*
X105274Y-62584D01*
X105275Y-62415D01*
X105275Y-71405D01*
X104094Y-71405D01*
X104094Y-57400D01*
X113700Y-57400D01*
X113700Y-57325D01*
X113700Y-55419D01*
X129322Y-55419D01*
X129315Y-55422D01*
X129272Y-55464D01*
X129250Y-55520D01*
X129249Y-55579D01*
X129249Y-56129D01*
X129272Y-56184D01*
X129314Y-56227D01*
X129370Y-56249D01*
X129429Y-56250D01*
X129979Y-56250D01*
X130034Y-56227D01*
X130077Y-56185D01*
X130080Y-56177D01*
X130080Y-56693D01*
X130035Y-56584D01*
X129916Y-56464D01*
X129759Y-56400D01*
X129590Y-56399D01*
X129434Y-56464D01*
X129314Y-56583D01*
X129250Y-56740D01*
X129249Y-56909D01*
X129314Y-57065D01*
X129433Y-57185D01*
X129590Y-57249D01*
X129759Y-57250D01*
X129915Y-57185D01*
X130035Y-57066D01*
X130080Y-56957D01*
X130080Y-57693D01*
X130035Y-57584D01*
X129916Y-57464D01*
X129759Y-57400D01*
X129590Y-57399D01*
X129434Y-57464D01*
X129314Y-57583D01*
X129250Y-57740D01*
X129249Y-57909D01*
X129314Y-58065D01*
X129433Y-58185D01*
X129590Y-58249D01*
X129759Y-58250D01*
X129915Y-58185D01*
X130035Y-58066D01*
X130080Y-57957D01*
X130080Y-58693D01*
X130035Y-58584D01*
X129916Y-58464D01*
X129759Y-58400D01*
X129590Y-58399D01*
X129434Y-58464D01*
X129314Y-58583D01*
X129250Y-58740D01*
X129249Y-58909D01*
X129314Y-59065D01*
X129433Y-59185D01*
X129590Y-59249D01*
X129759Y-59250D01*
X129915Y-59185D01*
X130035Y-59066D01*
X130080Y-58957D01*
X130080Y-59693D01*
X130035Y-59584D01*
X129916Y-59464D01*
X129759Y-59400D01*
X129590Y-59399D01*
X129434Y-59464D01*
X129314Y-59583D01*
X129250Y-59740D01*
X129249Y-59909D01*
X129314Y-60065D01*
X129433Y-60185D01*
X129590Y-60249D01*
X129759Y-60250D01*
X129915Y-60185D01*
X130035Y-60066D01*
X130080Y-59957D01*
X130080Y-60693D01*
X130035Y-60584D01*
X129916Y-60464D01*
X129759Y-60400D01*
X129590Y-60399D01*
X129434Y-60464D01*
X129314Y-60583D01*
X129250Y-60740D01*
X129249Y-60909D01*
X129314Y-61065D01*
X129433Y-61185D01*
X129590Y-61249D01*
X129759Y-61250D01*
X129915Y-61185D01*
X130035Y-61066D01*
X130080Y-60957D01*
X130080Y-61693D01*
X130035Y-61584D01*
X129916Y-61464D01*
X129759Y-61400D01*
X129590Y-61399D01*
X129434Y-61464D01*
X129314Y-61583D01*
X129250Y-61740D01*
X129249Y-61909D01*
X129314Y-62065D01*
X129433Y-62185D01*
X129590Y-62249D01*
X129759Y-62250D01*
X129915Y-62185D01*
X130035Y-62066D01*
X130080Y-61957D01*
X130080Y-62693D01*
X130035Y-62584D01*
X129916Y-62464D01*
X129759Y-62400D01*
X129590Y-62399D01*
X129434Y-62464D01*
X129314Y-62583D01*
X129250Y-62740D01*
X129249Y-62909D01*
X129314Y-63065D01*
X129433Y-63185D01*
X129590Y-63249D01*
X129759Y-63250D01*
X129915Y-63185D01*
X130035Y-63066D01*
X130080Y-62957D01*
X130080Y-63472D01*
X130077Y-63465D01*
X130035Y-63422D01*
X129979Y-63400D01*
X129920Y-63399D01*
X129370Y-63399D01*
X129315Y-63422D01*
X129272Y-63464D01*
X129250Y-63520D01*
X129249Y-63579D01*
X129249Y-64129D01*
X129272Y-64184D01*
X129314Y-64227D01*
X129370Y-64249D01*
X129429Y-64250D01*
X129979Y-64250D01*
X130034Y-64227D01*
X130077Y-64185D01*
X130080Y-64177D01*
X130080Y-64693D01*
X130035Y-64584D01*
X129916Y-64464D01*
X129759Y-64400D01*
X129590Y-64399D01*
X129434Y-64464D01*
X129314Y-64583D01*
X129250Y-64740D01*
X129249Y-64909D01*
X129314Y-65065D01*
X129433Y-65185D01*
X129590Y-65249D01*
X129759Y-65250D01*
X129915Y-65185D01*
X130035Y-65066D01*
X130080Y-64957D01*
X130080Y-65693D01*
X130035Y-65584D01*
X129916Y-65464D01*
X129759Y-65400D01*
X129590Y-65399D01*
X129434Y-65464D01*
X129314Y-65583D01*
X129250Y-65740D01*
X129249Y-65909D01*
X129314Y-66065D01*
X129433Y-66185D01*
X129590Y-66249D01*
X129759Y-66250D01*
X129915Y-66185D01*
X130035Y-66066D01*
X130080Y-65957D01*
X130080Y-66693D01*
X130035Y-66584D01*
X129916Y-66464D01*
X129759Y-66400D01*
X129590Y-66399D01*
X129434Y-66464D01*
X129314Y-66583D01*
X129250Y-66740D01*
X129249Y-66909D01*
X129314Y-67065D01*
X129433Y-67185D01*
X129590Y-67249D01*
X129759Y-67250D01*
X129915Y-67185D01*
X130035Y-67066D01*
X130080Y-66957D01*
X130080Y-67693D01*
X130035Y-67584D01*
X129916Y-67464D01*
X129759Y-67400D01*
X129590Y-67399D01*
X129434Y-67464D01*
X129314Y-67583D01*
X129250Y-67740D01*
X129249Y-67909D01*
X129314Y-68065D01*
X129433Y-68185D01*
X129590Y-68249D01*
X129759Y-68250D01*
X129915Y-68185D01*
X130035Y-68066D01*
X130080Y-67957D01*
X130080Y-68693D01*
X130035Y-68584D01*
X129916Y-68464D01*
X129759Y-68400D01*
X129590Y-68399D01*
X129434Y-68464D01*
X129314Y-68583D01*
X129250Y-68740D01*
X129249Y-68909D01*
X129314Y-69065D01*
X129433Y-69185D01*
X129590Y-69249D01*
X129759Y-69250D01*
X129915Y-69185D01*
X130035Y-69066D01*
X130080Y-68957D01*
X130080Y-69693D01*
X130035Y-69584D01*
X129916Y-69464D01*
X129759Y-69400D01*
X129590Y-69399D01*
X129434Y-69464D01*
X129314Y-69583D01*
X129250Y-69740D01*
X129249Y-69909D01*
X129314Y-70065D01*
X129433Y-70185D01*
X129590Y-70249D01*
X129759Y-70250D01*
X129915Y-70185D01*
X130035Y-70066D01*
X130080Y-69957D01*
X130080Y-70693D01*
X130035Y-70584D01*
X129916Y-70464D01*
X129759Y-70400D01*
X129590Y-70399D01*
X129434Y-70464D01*
X129314Y-70583D01*
X129250Y-70740D01*
X129249Y-70909D01*
X129314Y-71065D01*
X129433Y-71185D01*
X129590Y-71249D01*
X129759Y-71250D01*
X129915Y-71185D01*
X130035Y-71066D01*
X130080Y-70957D01*
X130080Y-71405D01*
M02*
