G04 (created by PCBNEW (2013-07-07 BZR 4022)-stable) date 2/3/2015 8:55:35 PM*
%MOIN*%
G04 Gerber Fmt 3.4, Leading zero omitted, Abs format*
%FSLAX34Y34*%
G01*
G70*
G90*
G04 APERTURE LIST*
%ADD10C,0.00590551*%
%ADD11R,0.06X0.0098*%
%ADD12O,0.06X0.0098*%
%ADD13O,0.0098X0.06*%
%ADD14R,0.035X0.055*%
%ADD15R,0.045X0.025*%
%ADD16R,0.0236X0.0157*%
%ADD17R,0.0157X0.0236*%
%ADD18R,0.055X0.055*%
%ADD19C,0.055*%
%ADD20R,0.0708661X0.0393701*%
%ADD21R,0.0334646X0.0374016*%
%ADD22R,0.106X0.063*%
%ADD23R,0.059X0.0512*%
%ADD24R,0.0512X0.059*%
%ADD25R,0.0448819X0.0192913*%
%ADD26C,0.0629921*%
%ADD27R,0.0291339X0.0468504*%
%ADD28R,0.0488189X0.0291339*%
%ADD29R,0.0291339X0.0488189*%
%ADD30R,0.019685X0.0354331*%
%ADD31R,0.0354331X0.019685*%
%ADD32R,0.0330709X0.0370079*%
%ADD33R,0.0370079X0.0330709*%
%ADD34R,0.0590551X0.0590551*%
%ADD35C,0.06*%
%ADD36O,0.0165354X0.0448819*%
%ADD37O,0.0448819X0.0165354*%
%ADD38R,0.182677X0.182677*%
%ADD39C,0.0590551*%
%ADD40C,0.110236*%
%ADD41R,0.0275591X0.0590551*%
%ADD42R,0.0314961X0.0314961*%
%ADD43R,0.023622X0.0177165*%
%ADD44R,0.0177165X0.023622*%
%ADD45R,0.019685X0.019685*%
%ADD46R,0.019685X0.173228*%
%ADD47R,0.0354331X0.173228*%
%ADD48R,0.19685X0.019685*%
%ADD49R,0.019685X0.103937*%
%ADD50R,0.0787402X0.019685*%
%ADD51R,0.106299X0.019685*%
%ADD52R,0.019685X0.155118*%
G04 APERTURE END LIST*
G54D10*
G54D11*
X124236Y-63301D03*
G54D12*
X124236Y-63104D03*
X124236Y-62907D03*
X124236Y-62710D03*
X124236Y-62513D03*
X124236Y-62317D03*
X124236Y-62120D03*
X124236Y-61923D03*
X124236Y-61726D03*
X124236Y-61529D03*
X124236Y-61332D03*
X124236Y-61136D03*
X124236Y-60939D03*
X124236Y-60742D03*
X124236Y-60545D03*
X124236Y-60348D03*
G54D13*
X123401Y-59450D03*
X123204Y-59450D03*
X123007Y-59450D03*
X122810Y-59450D03*
X122613Y-59450D03*
X122417Y-59450D03*
X122220Y-59450D03*
X122023Y-59450D03*
X121826Y-59450D03*
X121629Y-59450D03*
X121432Y-59450D03*
X121236Y-59450D03*
X121039Y-59450D03*
X120842Y-59450D03*
X120645Y-59450D03*
X120448Y-59450D03*
G54D12*
X119550Y-60348D03*
X119550Y-60545D03*
X119550Y-60742D03*
X119550Y-60939D03*
X119550Y-61136D03*
X119550Y-61332D03*
X119550Y-61529D03*
X119550Y-61726D03*
X119550Y-61923D03*
X119550Y-62120D03*
X119550Y-62317D03*
X119550Y-62513D03*
X119550Y-62710D03*
X119550Y-62907D03*
X119550Y-63104D03*
X119550Y-63301D03*
G54D13*
X120448Y-64136D03*
X120645Y-64136D03*
X121039Y-64136D03*
X120842Y-64143D03*
X121236Y-64136D03*
X121432Y-64136D03*
X121629Y-64136D03*
X121826Y-64136D03*
X122023Y-64136D03*
X122220Y-64136D03*
X122414Y-64136D03*
X122611Y-64136D03*
X122808Y-64136D03*
X123005Y-64136D03*
X123201Y-64136D03*
X123398Y-64136D03*
G54D14*
X125025Y-69750D03*
X124275Y-69750D03*
G54D15*
X119050Y-66125D03*
X119050Y-66725D03*
G54D16*
X110400Y-60702D03*
X110400Y-60348D03*
G54D17*
X108423Y-64650D03*
X108777Y-64650D03*
X108423Y-65100D03*
X108777Y-65100D03*
X113723Y-61000D03*
X114077Y-61000D03*
G54D16*
X112350Y-65052D03*
X112350Y-64698D03*
G54D17*
X113602Y-63350D03*
X113248Y-63350D03*
X114673Y-64200D03*
X115027Y-64200D03*
X112048Y-57875D03*
X112402Y-57875D03*
G54D18*
X129675Y-63825D03*
G54D19*
X129675Y-64825D03*
X129675Y-65825D03*
X129675Y-66825D03*
X129675Y-67825D03*
X129675Y-68825D03*
X129675Y-69825D03*
X129675Y-70825D03*
G54D18*
X129675Y-55825D03*
G54D19*
X129675Y-56825D03*
X129675Y-57825D03*
X129675Y-58825D03*
X129675Y-59825D03*
X129675Y-60825D03*
X129675Y-61825D03*
X129675Y-62825D03*
X105850Y-60500D03*
X105850Y-59500D03*
X104850Y-60500D03*
X104850Y-62500D03*
G54D18*
X105850Y-62500D03*
G54D19*
X104850Y-61500D03*
X105850Y-61500D03*
X104850Y-59500D03*
X104850Y-58500D03*
X105850Y-58500D03*
G54D18*
X121425Y-70775D03*
G54D19*
X120425Y-70775D03*
G54D18*
X118075Y-66200D03*
G54D19*
X118075Y-67200D03*
G54D20*
X107975Y-61867D03*
X107975Y-60882D03*
G54D21*
X113473Y-59014D03*
X113473Y-59585D03*
X113926Y-59014D03*
X113926Y-59585D03*
G54D22*
X121275Y-57875D03*
X121275Y-56775D03*
G54D23*
X114468Y-57855D03*
X114468Y-57105D03*
G54D24*
X115766Y-56003D03*
X116516Y-56003D03*
X117725Y-55950D03*
X118475Y-55950D03*
G54D23*
X119355Y-57664D03*
X119355Y-56914D03*
X117076Y-57904D03*
X117076Y-57154D03*
G54D24*
X125050Y-68975D03*
X124300Y-68975D03*
G54D23*
X123550Y-57975D03*
X123550Y-57225D03*
G54D25*
X111145Y-58794D03*
X111145Y-59050D03*
X111145Y-59305D03*
X111854Y-59305D03*
X111854Y-59050D03*
X111854Y-58794D03*
G54D26*
X111735Y-65970D03*
X109964Y-65970D03*
X109964Y-68529D03*
X111735Y-68529D03*
X112589Y-68529D03*
X114360Y-68529D03*
X114360Y-65970D03*
X112589Y-65970D03*
X115214Y-68529D03*
X116985Y-68529D03*
X116985Y-65970D03*
X115214Y-65970D03*
G54D27*
X115331Y-57970D03*
X115705Y-57970D03*
X116079Y-57970D03*
X116079Y-56907D03*
X115705Y-56907D03*
X115331Y-56907D03*
G54D28*
X120812Y-68481D03*
X120812Y-67733D03*
X119750Y-67733D03*
X119750Y-68107D03*
X119750Y-68481D03*
G54D29*
X124488Y-65216D03*
X123740Y-65216D03*
X123740Y-66279D03*
X124114Y-66279D03*
X124488Y-66279D03*
G54D27*
X117831Y-57871D03*
X118579Y-57871D03*
X118579Y-56808D03*
X118205Y-56808D03*
X117831Y-56808D03*
G54D30*
X127329Y-69225D03*
X127920Y-69225D03*
X127329Y-69675D03*
X127920Y-69675D03*
X127329Y-67475D03*
X127920Y-67475D03*
X127329Y-67925D03*
X127920Y-67925D03*
X127329Y-60925D03*
X127920Y-60925D03*
X127329Y-60475D03*
X127920Y-60475D03*
X127329Y-64425D03*
X127920Y-64425D03*
X127329Y-56975D03*
X127920Y-56975D03*
X127329Y-57425D03*
X127920Y-57425D03*
G54D31*
X126075Y-56879D03*
X126075Y-57470D03*
G54D30*
X124945Y-70425D03*
X124354Y-70425D03*
X127329Y-58725D03*
X127920Y-58725D03*
X127329Y-59175D03*
X127920Y-59175D03*
X127329Y-63975D03*
X127920Y-63975D03*
X127329Y-62225D03*
X127920Y-62225D03*
X127329Y-62675D03*
X127920Y-62675D03*
X127329Y-66175D03*
X127920Y-66175D03*
X127329Y-65725D03*
X127920Y-65725D03*
G54D32*
X127369Y-66625D03*
X127880Y-66625D03*
X127369Y-65275D03*
X127880Y-65275D03*
X127369Y-64875D03*
X127880Y-64875D03*
X127369Y-63525D03*
X127880Y-63525D03*
X127369Y-67025D03*
X127880Y-67025D03*
X127369Y-68375D03*
X127880Y-68375D03*
X127369Y-63125D03*
X127880Y-63125D03*
X127369Y-61775D03*
X127880Y-61775D03*
X127369Y-68775D03*
X127880Y-68775D03*
X127369Y-70125D03*
X127880Y-70125D03*
X127369Y-61375D03*
X127880Y-61375D03*
X127369Y-60025D03*
X127880Y-60025D03*
X127369Y-57875D03*
X127880Y-57875D03*
X127369Y-58275D03*
X127880Y-58275D03*
G54D33*
X125600Y-57430D03*
X125600Y-56919D03*
G54D32*
X127369Y-59625D03*
X127880Y-59625D03*
G54D34*
X125975Y-70500D03*
G54D18*
X126175Y-55975D03*
G54D19*
X125175Y-55975D03*
G54D32*
X127369Y-56525D03*
X127880Y-56525D03*
G54D35*
X121889Y-68622D03*
X123385Y-67637D03*
X114665Y-56003D03*
X119370Y-58622D03*
G54D36*
X110614Y-63600D03*
X110811Y-63600D03*
X111007Y-63600D03*
X111204Y-63600D03*
X111401Y-63600D03*
X111598Y-63600D03*
X111795Y-63600D03*
X111992Y-63600D03*
X112188Y-63600D03*
X112385Y-63600D03*
G54D37*
X112700Y-63285D03*
X112700Y-63088D03*
X112700Y-62892D03*
X112700Y-62695D03*
X112700Y-62498D03*
X112700Y-62301D03*
X112700Y-62104D03*
X112700Y-61907D03*
X112700Y-61711D03*
X112700Y-61514D03*
G54D36*
X112385Y-61199D03*
X112188Y-61199D03*
X111992Y-61199D03*
X111795Y-61199D03*
X111598Y-61199D03*
X111401Y-61199D03*
X111204Y-61199D03*
X111007Y-61199D03*
X110811Y-61199D03*
X110614Y-61199D03*
G54D37*
X110299Y-61514D03*
X110299Y-61711D03*
X110299Y-61907D03*
X110299Y-62104D03*
X110299Y-62301D03*
X110299Y-62498D03*
X110299Y-62695D03*
X110299Y-62892D03*
X110299Y-63088D03*
X110299Y-63285D03*
G54D38*
X111500Y-62400D03*
G54D39*
X107404Y-67317D03*
X107404Y-66332D03*
X106616Y-66332D03*
X106616Y-67317D03*
G54D40*
X105550Y-64454D03*
X105550Y-69195D03*
G54D39*
X118290Y-70850D03*
X117109Y-70850D03*
G54D41*
X116814Y-69964D03*
X117995Y-69964D03*
X118585Y-69964D03*
G54D42*
X112825Y-65145D03*
X112825Y-64554D03*
X114020Y-64075D03*
X113429Y-64075D03*
G54D33*
X122850Y-57955D03*
X122850Y-57444D03*
X123129Y-65295D03*
X123129Y-65807D03*
X120350Y-65144D03*
X120350Y-65655D03*
X120866Y-65137D03*
X120866Y-65649D03*
X122225Y-57980D03*
X122225Y-57469D03*
G54D32*
X121669Y-65875D03*
X122180Y-65875D03*
X121669Y-65275D03*
X122180Y-65275D03*
G54D33*
X120325Y-57930D03*
X120325Y-57419D03*
X124850Y-57955D03*
X124850Y-57444D03*
X124250Y-57955D03*
X124250Y-57444D03*
G54D32*
X119442Y-64474D03*
X118930Y-64474D03*
X119442Y-63874D03*
X118930Y-63874D03*
X120737Y-67157D03*
X120225Y-67157D03*
X122618Y-67283D03*
X122106Y-67283D03*
X122618Y-66732D03*
X122106Y-66732D03*
G54D33*
X118881Y-68151D03*
X118881Y-68663D03*
G54D32*
X124665Y-67027D03*
X124153Y-67027D03*
G54D43*
X109975Y-60967D03*
X109975Y-60632D03*
G54D44*
X112507Y-64125D03*
X112842Y-64125D03*
G54D43*
X111000Y-60617D03*
X111000Y-60282D03*
X111475Y-64157D03*
X111475Y-64492D03*
G54D44*
X114657Y-64625D03*
X114992Y-64625D03*
G54D43*
X111850Y-60542D03*
X111850Y-60207D03*
G54D44*
X112882Y-60850D03*
X113217Y-60850D03*
X111417Y-57875D03*
X111082Y-57875D03*
X109742Y-63525D03*
X109407Y-63525D03*
X113532Y-61450D03*
X113867Y-61450D03*
G54D43*
X109200Y-64282D03*
X109200Y-64617D03*
X109200Y-65132D03*
X109200Y-65467D03*
X109700Y-62992D03*
X109700Y-62657D03*
X107225Y-61967D03*
X107225Y-61632D03*
X107225Y-60782D03*
X107225Y-61117D03*
X114525Y-58707D03*
X114525Y-59042D03*
X114525Y-59892D03*
X114525Y-59557D03*
G54D45*
X112422Y-57450D03*
G54D46*
X112422Y-56485D03*
G54D31*
X113249Y-57450D03*
G54D47*
X113249Y-56485D03*
G54D48*
X112442Y-55520D03*
G54D49*
X111556Y-56138D03*
G54D50*
X111064Y-56560D03*
G54D49*
X110572Y-56138D03*
X109706Y-56138D03*
X108721Y-56138D03*
G54D51*
X110139Y-55520D03*
X108288Y-55520D03*
G54D50*
X109213Y-56560D03*
G54D52*
X107855Y-56394D03*
M02*
