M48
;DRILL file {Pcbnew (2013-07-07 BZR 4022)-stable} date 2/3/2015 8:26:18 PM
;FORMAT={-:-/ absolute / inch / decimal}
FMAT,2
INCH,TZ
T1C0.012
T2C0.025
T3C0.031
T4C0.032
T5C0.035
T6C0.036
T7C0.039
T8C0.091
%
G90
G05
M72
T1
X11.0909Y-6.1809
X11.0909Y-6.2203
X11.0909Y-6.2597
X11.0909Y-6.2991
X11.1303Y-6.1809
X11.1303Y-6.2203
X11.1303Y-6.2597
X11.1303Y-6.2991
X11.1697Y-6.1809
X11.1697Y-6.2203
X11.1697Y-6.2597
X11.1697Y-6.2991
X11.2091Y-6.1809
X11.2091Y-6.2203
X11.2091Y-6.2597
X11.2091Y-6.2991
T2
X10.585Y-6.35
X10.67Y-6.16
X10.7075Y-6.95
X10.7275Y-6.015
X10.8775Y-6.3075
X10.9225Y-6.305
X10.955Y-6.1075
X10.9975Y-6.0175
X11.055Y-5.7875
X11.0575Y-6.5225
X11.085Y-5.975
X11.1025Y-6.4575
X11.1475Y-6.5025
X11.22Y-5.97
X11.23Y-6.02
X11.2425Y-5.8775
X11.28Y-6.3725
X11.3225Y-6.04
X11.3249Y-5.745
X11.3425Y-6.4525
X11.3675Y-6.0525
X11.4525Y-6.1025
X11.4575Y-6.38
X11.495Y-5.955
X11.5075Y-6.1
X11.555Y-6.54
X11.5875Y-6.32
X11.6425Y-6.205
X11.6775Y-5.66
X11.7475Y-6.1
X11.795Y-6.1025
X11.85Y-6.3875
X11.8898Y-6.0236
X11.8937Y-6.2717
X11.895Y-6.2025
X11.9685Y-6.8937
X12.0118Y-6.4528
X12.0315Y-5.8819
X12.1425Y-6.995
X12.2913Y-6.4764
X12.4094Y-6.7559
X12.4252Y-5.689
X12.56Y-5.65
X12.83Y-5.6525
X12.83Y-5.8075
X12.83Y-5.9825
X12.83Y-6.1575
X12.83Y-6.3325
X12.83Y-6.5075
X12.83Y-6.6825
X12.83Y-6.8575
X12.83Y-7.015
T3
X12.5975Y-7.05
T4
X10.485Y-5.85
X10.485Y-5.95
X10.485Y-6.05
X10.485Y-6.15
X10.485Y-6.25
X10.585Y-5.85
X10.585Y-5.95
X10.585Y-6.05
X10.585Y-6.15
X10.585Y-6.25
X11.8075Y-6.62
X11.8075Y-6.72
X12.0425Y-7.0775
X12.1425Y-7.0775
X12.5175Y-5.5975
X12.6175Y-5.5975
X12.9675Y-5.5825
X12.9675Y-5.6825
X12.9675Y-5.7825
X12.9675Y-5.8825
X12.9675Y-5.9825
X12.9675Y-6.0825
X12.9675Y-6.1825
X12.9675Y-6.2825
X12.9675Y-6.3825
X12.9675Y-6.4825
X12.9675Y-6.5825
X12.9675Y-6.6825
X12.9675Y-6.7825
X12.9675Y-6.8825
X12.9675Y-6.9825
X12.9675Y-7.0825
T5
X11.7109Y-7.085
X11.8291Y-7.085
T6
X10.6617Y-6.6333
X10.6617Y-6.7317
X10.7404Y-6.6333
X10.7404Y-6.7317
T7
X10.9964Y-6.597
X10.9964Y-6.853
X11.1736Y-6.597
X11.1736Y-6.853
X11.2589Y-6.597
X11.2589Y-6.853
X11.4361Y-6.597
X11.4361Y-6.853
X11.5214Y-6.597
X11.5214Y-6.853
X11.6986Y-6.597
X11.6986Y-6.853
T8
X10.555Y-6.4455
X10.555Y-6.9195
T0
M30
