G04 (created by PCBNEW (2013-07-07 BZR 4022)-stable) date 2/3/2015 8:55:35 PM*
%MOIN*%
G04 Gerber Fmt 3.4, Leading zero omitted, Abs format*
%FSLAX34Y34*%
G01*
G70*
G90*
G04 APERTURE LIST*
%ADD10C,0.00590551*%
%ADD11R,0.055X0.055*%
%ADD12C,0.055*%
%ADD13C,0.0629921*%
%ADD14R,0.0590551X0.0590551*%
%ADD15C,0.0251968*%
%ADD16C,0.0590551*%
%ADD17C,0.110236*%
G04 APERTURE END LIST*
G54D10*
G54D11*
X129675Y-63825D03*
G54D12*
X129675Y-64825D03*
X129675Y-65825D03*
X129675Y-66825D03*
X129675Y-67825D03*
X129675Y-68825D03*
X129675Y-69825D03*
X129675Y-70825D03*
G54D11*
X129675Y-55825D03*
G54D12*
X129675Y-56825D03*
X129675Y-57825D03*
X129675Y-58825D03*
X129675Y-59825D03*
X129675Y-60825D03*
X129675Y-61825D03*
X129675Y-62825D03*
X105850Y-60500D03*
X105850Y-59500D03*
X104850Y-60500D03*
X104850Y-62500D03*
G54D11*
X105850Y-62500D03*
G54D12*
X104850Y-61500D03*
X105850Y-61500D03*
X104850Y-59500D03*
X104850Y-58500D03*
X105850Y-58500D03*
G54D11*
X121425Y-70775D03*
G54D12*
X120425Y-70775D03*
G54D11*
X118075Y-66200D03*
G54D12*
X118075Y-67200D03*
G54D13*
X111735Y-65970D03*
X109964Y-65970D03*
X109964Y-68529D03*
X111735Y-68529D03*
X112589Y-68529D03*
X114360Y-68529D03*
X114360Y-65970D03*
X112589Y-65970D03*
X115214Y-68529D03*
X116985Y-68529D03*
X116985Y-65970D03*
X115214Y-65970D03*
G54D14*
X125975Y-70500D03*
G54D11*
X126175Y-55975D03*
G54D12*
X125175Y-55975D03*
G54D15*
X111303Y-62596D03*
X111303Y-62203D03*
X111696Y-62203D03*
X111696Y-62596D03*
X111696Y-62990D03*
X111303Y-62990D03*
X110909Y-62990D03*
X110909Y-62596D03*
X110909Y-62203D03*
X110909Y-61809D03*
X111303Y-61809D03*
X111696Y-61809D03*
X112090Y-61809D03*
X112090Y-62203D03*
X112090Y-62596D03*
X112090Y-62990D03*
G54D16*
X107404Y-67317D03*
X107404Y-66332D03*
X106616Y-66332D03*
X106616Y-67317D03*
G54D17*
X105550Y-64454D03*
X105550Y-69195D03*
G54D16*
X118290Y-70850D03*
X117109Y-70850D03*
M02*
