G04 (created by PCBNEW (2013-07-07 BZR 4022)-stable) date 2/3/2015 8:55:35 PM*
%MOIN*%
G04 Gerber Fmt 3.4, Leading zero omitted, Abs format*
%FSLAX34Y34*%
G01*
G70*
G90*
G04 APERTURE LIST*
%ADD10C,0.00590551*%
%ADD11C,0.008*%
%ADD12C,0.0039*%
%ADD13C,0.005*%
%ADD14C,0.0028*%
%ADD15C,0.012*%
%ADD16C,0.00393701*%
%ADD17C,0.0043*%
%ADD18C,0.00492126*%
%ADD19C,0.00984252*%
%ADD20C,0.00246063*%
G04 APERTURE END LIST*
G54D10*
G54D11*
X123643Y-63393D02*
G75*
G03X123643Y-63393I-150J0D01*
G74*
G01*
X119893Y-59793D02*
X119893Y-63793D01*
X119893Y-63793D02*
X123643Y-63793D01*
X123643Y-63793D02*
X123893Y-63543D01*
X123893Y-63543D02*
X123893Y-59793D01*
X123893Y-59793D02*
X119893Y-59793D01*
G54D12*
X125350Y-69450D02*
G75*
G03X125350Y-69450I-50J0D01*
G74*
G01*
X124850Y-69450D02*
X125250Y-69450D01*
X125250Y-69450D02*
X125250Y-70050D01*
X125250Y-70050D02*
X124850Y-70050D01*
X124450Y-70050D02*
X124050Y-70050D01*
X124050Y-70050D02*
X124050Y-69450D01*
X124050Y-69450D02*
X124450Y-69450D01*
G54D13*
X119325Y-66228D02*
X119325Y-65950D01*
X119325Y-65950D02*
X118775Y-65950D01*
X118775Y-65950D02*
X118775Y-66228D01*
X119325Y-66900D02*
X119325Y-66622D01*
X119325Y-66900D02*
X118775Y-66900D01*
X118775Y-66900D02*
X118775Y-66622D01*
G54D14*
X110250Y-60625D02*
X110250Y-60825D01*
X110250Y-60825D02*
X110550Y-60825D01*
X110550Y-60825D02*
X110550Y-60625D01*
X110250Y-60425D02*
X110250Y-60225D01*
X110250Y-60225D02*
X110550Y-60225D01*
X110550Y-60225D02*
X110550Y-60425D01*
X108500Y-64500D02*
X108300Y-64500D01*
X108300Y-64500D02*
X108300Y-64800D01*
X108300Y-64800D02*
X108500Y-64800D01*
X108700Y-64500D02*
X108900Y-64500D01*
X108900Y-64500D02*
X108900Y-64800D01*
X108900Y-64800D02*
X108700Y-64800D01*
X108500Y-64950D02*
X108300Y-64950D01*
X108300Y-64950D02*
X108300Y-65250D01*
X108300Y-65250D02*
X108500Y-65250D01*
X108700Y-64950D02*
X108900Y-64950D01*
X108900Y-64950D02*
X108900Y-65250D01*
X108900Y-65250D02*
X108700Y-65250D01*
X113800Y-60850D02*
X113600Y-60850D01*
X113600Y-60850D02*
X113600Y-61150D01*
X113600Y-61150D02*
X113800Y-61150D01*
X114000Y-60850D02*
X114200Y-60850D01*
X114200Y-60850D02*
X114200Y-61150D01*
X114200Y-61150D02*
X114000Y-61150D01*
X112200Y-64975D02*
X112200Y-65175D01*
X112200Y-65175D02*
X112500Y-65175D01*
X112500Y-65175D02*
X112500Y-64975D01*
X112200Y-64775D02*
X112200Y-64575D01*
X112200Y-64575D02*
X112500Y-64575D01*
X112500Y-64575D02*
X112500Y-64775D01*
X113525Y-63500D02*
X113725Y-63500D01*
X113725Y-63500D02*
X113725Y-63200D01*
X113725Y-63200D02*
X113525Y-63200D01*
X113325Y-63500D02*
X113125Y-63500D01*
X113125Y-63500D02*
X113125Y-63200D01*
X113125Y-63200D02*
X113325Y-63200D01*
X114750Y-64050D02*
X114550Y-64050D01*
X114550Y-64050D02*
X114550Y-64350D01*
X114550Y-64350D02*
X114750Y-64350D01*
X114950Y-64050D02*
X115150Y-64050D01*
X115150Y-64050D02*
X115150Y-64350D01*
X115150Y-64350D02*
X114950Y-64350D01*
X112125Y-57725D02*
X111925Y-57725D01*
X111925Y-57725D02*
X111925Y-58025D01*
X111925Y-58025D02*
X112125Y-58025D01*
X112325Y-57725D02*
X112525Y-57725D01*
X112525Y-57725D02*
X112525Y-58025D01*
X112525Y-58025D02*
X112325Y-58025D01*
G54D15*
X130175Y-63325D02*
X130175Y-71325D01*
X130175Y-71325D02*
X129175Y-71325D01*
X129175Y-71325D02*
X129175Y-63325D01*
X129175Y-63325D02*
X130175Y-63325D01*
X129175Y-64325D02*
X130175Y-64325D01*
X130175Y-55325D02*
X130175Y-63325D01*
X130175Y-63325D02*
X129175Y-63325D01*
X129175Y-63325D02*
X129175Y-55325D01*
X129175Y-55325D02*
X130175Y-55325D01*
X129175Y-56325D02*
X130175Y-56325D01*
X106350Y-62000D02*
X105350Y-62000D01*
X106350Y-58000D02*
X106350Y-63000D01*
X105350Y-58000D02*
X106350Y-58000D01*
X106350Y-63000D02*
X105350Y-63000D01*
X105350Y-63000D02*
X104350Y-63000D01*
X104350Y-63000D02*
X104350Y-58000D01*
X104350Y-58000D02*
X105350Y-58000D01*
X105350Y-63000D02*
X105350Y-62000D01*
X121925Y-70275D02*
X121925Y-71275D01*
X121925Y-71275D02*
X119925Y-71275D01*
X119925Y-71275D02*
X119925Y-70275D01*
X119925Y-70275D02*
X121925Y-70275D01*
X117575Y-65700D02*
X118575Y-65700D01*
X118575Y-65700D02*
X118575Y-67700D01*
X118575Y-67700D02*
X117575Y-67700D01*
X117575Y-67700D02*
X117575Y-65700D01*
G54D13*
X121765Y-56695D02*
X120785Y-56695D01*
X120785Y-57955D02*
X121765Y-57955D01*
X121765Y-57775D02*
X120785Y-57775D01*
X120785Y-56875D02*
X121765Y-56875D01*
X120785Y-56695D02*
X120785Y-57955D01*
X121765Y-57955D02*
X121765Y-56695D01*
X114718Y-57730D02*
X114218Y-57730D01*
X114718Y-57230D02*
X114228Y-57230D01*
X114718Y-57080D02*
X114718Y-57880D01*
X114718Y-57880D02*
X114218Y-57880D01*
X114218Y-57880D02*
X114218Y-57080D01*
X114218Y-57080D02*
X114718Y-57080D01*
X115891Y-56253D02*
X115891Y-55753D01*
X116391Y-56253D02*
X116391Y-55763D01*
X116541Y-56253D02*
X115741Y-56253D01*
X115741Y-56253D02*
X115741Y-55753D01*
X115741Y-55753D02*
X116541Y-55753D01*
X116541Y-55753D02*
X116541Y-56253D01*
X117850Y-56200D02*
X117850Y-55700D01*
X118350Y-56200D02*
X118350Y-55710D01*
X118500Y-56200D02*
X117700Y-56200D01*
X117700Y-56200D02*
X117700Y-55700D01*
X117700Y-55700D02*
X118500Y-55700D01*
X118500Y-55700D02*
X118500Y-56200D01*
X119605Y-57539D02*
X119105Y-57539D01*
X119605Y-57039D02*
X119115Y-57039D01*
X119605Y-56889D02*
X119605Y-57689D01*
X119605Y-57689D02*
X119105Y-57689D01*
X119105Y-57689D02*
X119105Y-56889D01*
X119105Y-56889D02*
X119605Y-56889D01*
X117326Y-57779D02*
X116826Y-57779D01*
X117326Y-57279D02*
X116836Y-57279D01*
X117326Y-57129D02*
X117326Y-57929D01*
X117326Y-57929D02*
X116826Y-57929D01*
X116826Y-57929D02*
X116826Y-57129D01*
X116826Y-57129D02*
X117326Y-57129D01*
X124925Y-68725D02*
X124925Y-69225D01*
X124425Y-68725D02*
X124425Y-69215D01*
X124275Y-68725D02*
X125075Y-68725D01*
X125075Y-68725D02*
X125075Y-69225D01*
X125075Y-69225D02*
X124275Y-69225D01*
X124275Y-69225D02*
X124275Y-68725D01*
X123800Y-57850D02*
X123300Y-57850D01*
X123800Y-57350D02*
X123310Y-57350D01*
X123800Y-57200D02*
X123800Y-58000D01*
X123800Y-58000D02*
X123300Y-58000D01*
X123300Y-58000D02*
X123300Y-57200D01*
X123300Y-57200D02*
X123800Y-57200D01*
G54D16*
X111519Y-67250D02*
G75*
G03X111519Y-67250I-669J0D01*
G74*
G01*
X109668Y-66068D02*
X109668Y-68431D01*
X109668Y-68431D02*
X112031Y-68431D01*
X112031Y-68431D02*
X112031Y-66068D01*
X112031Y-66068D02*
X109668Y-66068D01*
X114144Y-67250D02*
G75*
G03X114144Y-67250I-669J0D01*
G74*
G01*
X114656Y-68431D02*
X114656Y-66068D01*
X114656Y-66068D02*
X112293Y-66068D01*
X112293Y-66068D02*
X112293Y-68431D01*
X112293Y-68431D02*
X114656Y-68431D01*
X116769Y-67250D02*
G75*
G03X116769Y-67250I-669J0D01*
G74*
G01*
X117281Y-68431D02*
X117281Y-66068D01*
X117281Y-66068D02*
X114918Y-66068D01*
X114918Y-66068D02*
X114918Y-68431D01*
X114918Y-68431D02*
X117281Y-68431D01*
G54D10*
X116495Y-56632D02*
G75*
G03X116495Y-56632I-81J0D01*
G74*
G01*
X119503Y-67438D02*
G75*
G03X119503Y-67438I-88J0D01*
G74*
G01*
X123532Y-66614D02*
G75*
G03X123532Y-66614I-88J0D01*
G74*
G01*
X118962Y-56473D02*
G75*
G03X118962Y-56473I-88J0D01*
G74*
G01*
X126329Y-70854D02*
X125620Y-70854D01*
X125620Y-70854D02*
X125620Y-70145D01*
X125620Y-70145D02*
X126329Y-70145D01*
X126329Y-70145D02*
X126329Y-70854D01*
G54D15*
X126675Y-55475D02*
X126675Y-56475D01*
X126675Y-56475D02*
X124675Y-56475D01*
X124675Y-56475D02*
X124675Y-55475D01*
X124675Y-55475D02*
X126675Y-55475D01*
G54D10*
X110419Y-63915D02*
G75*
G03X110419Y-63915I-81J0D01*
G74*
G01*
X105550Y-64462D02*
X107833Y-64462D01*
X107833Y-64462D02*
X107833Y-69187D01*
X107833Y-69187D02*
X105550Y-69187D01*
X119018Y-70338D02*
X116381Y-70338D01*
X116381Y-70338D02*
X116381Y-71361D01*
X116381Y-71361D02*
X119018Y-71361D01*
X119018Y-71361D02*
X119018Y-70338D01*
X113199Y-64790D02*
X113199Y-64574D01*
X113199Y-64987D02*
X113199Y-65224D01*
X113317Y-64790D02*
X113080Y-64790D01*
X113317Y-64987D02*
X113080Y-64987D01*
X113080Y-64987D02*
X113199Y-64810D01*
X113199Y-64810D02*
X113317Y-64987D01*
X113665Y-63700D02*
X113449Y-63700D01*
X113862Y-63700D02*
X114099Y-63700D01*
X113665Y-63582D02*
X113665Y-63819D01*
X113862Y-63582D02*
X113862Y-63819D01*
X113862Y-63819D02*
X113685Y-63700D01*
X113685Y-63700D02*
X113862Y-63582D01*
G54D13*
X124195Y-63617D02*
X124195Y-63967D01*
X124215Y-64009D01*
X124236Y-64029D01*
X124277Y-64050D01*
X124360Y-64050D01*
X124401Y-64029D01*
X124421Y-64009D01*
X124442Y-63967D01*
X124442Y-63617D01*
X124875Y-64050D02*
X124628Y-64050D01*
X124751Y-64050D02*
X124751Y-63617D01*
X124710Y-63679D01*
X124669Y-63720D01*
X124628Y-63740D01*
G54D17*
X123767Y-69829D02*
X123701Y-69735D01*
X123654Y-69829D02*
X123654Y-69632D01*
X123729Y-69632D01*
X123748Y-69642D01*
X123757Y-69651D01*
X123767Y-69670D01*
X123767Y-69698D01*
X123757Y-69717D01*
X123748Y-69726D01*
X123729Y-69735D01*
X123654Y-69735D01*
X123860Y-69829D02*
X123898Y-69829D01*
X123917Y-69820D01*
X123926Y-69810D01*
X123945Y-69782D01*
X123954Y-69745D01*
X123954Y-69670D01*
X123945Y-69651D01*
X123936Y-69642D01*
X123917Y-69632D01*
X123879Y-69632D01*
X123860Y-69642D01*
X123851Y-69651D01*
X123842Y-69670D01*
X123842Y-69717D01*
X123851Y-69735D01*
X123860Y-69745D01*
X123879Y-69754D01*
X123917Y-69754D01*
X123936Y-69745D01*
X123945Y-69735D01*
X123954Y-69717D01*
G54D18*
X119629Y-66432D02*
X119535Y-66498D01*
X119629Y-66545D02*
X119432Y-66545D01*
X119432Y-66470D01*
X119442Y-66451D01*
X119451Y-66442D01*
X119470Y-66432D01*
X119498Y-66432D01*
X119517Y-66442D01*
X119526Y-66451D01*
X119535Y-66470D01*
X119535Y-66545D01*
X119629Y-66245D02*
X119629Y-66357D01*
X119629Y-66301D02*
X119432Y-66301D01*
X119460Y-66320D01*
X119479Y-66339D01*
X119489Y-66357D01*
X110273Y-60154D02*
X110207Y-60060D01*
X110160Y-60154D02*
X110160Y-59957D01*
X110235Y-59957D01*
X110254Y-59967D01*
X110264Y-59976D01*
X110273Y-59995D01*
X110273Y-60023D01*
X110264Y-60042D01*
X110254Y-60051D01*
X110235Y-60060D01*
X110160Y-60060D01*
X110348Y-59976D02*
X110357Y-59967D01*
X110376Y-59957D01*
X110423Y-59957D01*
X110442Y-59967D01*
X110451Y-59976D01*
X110460Y-59995D01*
X110460Y-60014D01*
X110451Y-60042D01*
X110339Y-60154D01*
X110460Y-60154D01*
X110535Y-59976D02*
X110545Y-59967D01*
X110564Y-59957D01*
X110610Y-59957D01*
X110629Y-59967D01*
X110639Y-59976D01*
X110648Y-59995D01*
X110648Y-60014D01*
X110639Y-60042D01*
X110526Y-60154D01*
X110648Y-60154D01*
X108323Y-64429D02*
X108257Y-64335D01*
X108210Y-64429D02*
X108210Y-64232D01*
X108285Y-64232D01*
X108304Y-64242D01*
X108314Y-64251D01*
X108323Y-64270D01*
X108323Y-64298D01*
X108314Y-64317D01*
X108304Y-64326D01*
X108285Y-64335D01*
X108210Y-64335D01*
X108398Y-64251D02*
X108407Y-64242D01*
X108426Y-64232D01*
X108473Y-64232D01*
X108492Y-64242D01*
X108501Y-64251D01*
X108510Y-64270D01*
X108510Y-64289D01*
X108501Y-64317D01*
X108389Y-64429D01*
X108510Y-64429D01*
X108576Y-64232D02*
X108698Y-64232D01*
X108632Y-64307D01*
X108660Y-64307D01*
X108679Y-64317D01*
X108689Y-64326D01*
X108698Y-64345D01*
X108698Y-64392D01*
X108689Y-64410D01*
X108679Y-64420D01*
X108660Y-64429D01*
X108604Y-64429D01*
X108585Y-64420D01*
X108576Y-64410D01*
X108323Y-65504D02*
X108257Y-65410D01*
X108210Y-65504D02*
X108210Y-65307D01*
X108285Y-65307D01*
X108304Y-65317D01*
X108314Y-65326D01*
X108323Y-65345D01*
X108323Y-65373D01*
X108314Y-65392D01*
X108304Y-65401D01*
X108285Y-65410D01*
X108210Y-65410D01*
X108398Y-65326D02*
X108407Y-65317D01*
X108426Y-65307D01*
X108473Y-65307D01*
X108492Y-65317D01*
X108501Y-65326D01*
X108510Y-65345D01*
X108510Y-65364D01*
X108501Y-65392D01*
X108389Y-65504D01*
X108510Y-65504D01*
X108679Y-65373D02*
X108679Y-65504D01*
X108632Y-65298D02*
X108585Y-65439D01*
X108707Y-65439D01*
G54D14*
X113822Y-61055D02*
X113782Y-60990D01*
X113754Y-61055D02*
X113754Y-60917D01*
X113800Y-60917D01*
X113811Y-60924D01*
X113817Y-60931D01*
X113822Y-60944D01*
X113822Y-60963D01*
X113817Y-60977D01*
X113811Y-60983D01*
X113800Y-60990D01*
X113754Y-60990D01*
X113868Y-60931D02*
X113874Y-60924D01*
X113885Y-60917D01*
X113914Y-60917D01*
X113925Y-60924D01*
X113931Y-60931D01*
X113937Y-60944D01*
X113937Y-60957D01*
X113931Y-60977D01*
X113862Y-61055D01*
X113937Y-61055D01*
X113977Y-60917D02*
X114057Y-60917D01*
X114005Y-61055D01*
X112197Y-65380D02*
X112157Y-65315D01*
X112129Y-65380D02*
X112129Y-65242D01*
X112175Y-65242D01*
X112186Y-65249D01*
X112192Y-65256D01*
X112197Y-65269D01*
X112197Y-65288D01*
X112192Y-65302D01*
X112186Y-65308D01*
X112175Y-65315D01*
X112129Y-65315D01*
X112243Y-65256D02*
X112249Y-65249D01*
X112260Y-65242D01*
X112289Y-65242D01*
X112300Y-65249D01*
X112306Y-65256D01*
X112312Y-65269D01*
X112312Y-65282D01*
X112306Y-65302D01*
X112237Y-65380D01*
X112312Y-65380D01*
X112420Y-65242D02*
X112363Y-65242D01*
X112357Y-65308D01*
X112363Y-65302D01*
X112375Y-65295D01*
X112403Y-65295D01*
X112415Y-65302D01*
X112420Y-65308D01*
X112426Y-65321D01*
X112426Y-65354D01*
X112420Y-65367D01*
X112415Y-65374D01*
X112403Y-65380D01*
X112375Y-65380D01*
X112363Y-65374D01*
X112357Y-65367D01*
X113955Y-63427D02*
X113890Y-63467D01*
X113955Y-63495D02*
X113817Y-63495D01*
X113817Y-63450D01*
X113824Y-63438D01*
X113831Y-63432D01*
X113844Y-63427D01*
X113863Y-63427D01*
X113877Y-63432D01*
X113883Y-63438D01*
X113890Y-63450D01*
X113890Y-63495D01*
X113831Y-63381D02*
X113824Y-63375D01*
X113817Y-63364D01*
X113817Y-63335D01*
X113824Y-63324D01*
X113831Y-63318D01*
X113844Y-63312D01*
X113857Y-63312D01*
X113877Y-63318D01*
X113955Y-63387D01*
X113955Y-63312D01*
X113817Y-63210D02*
X113817Y-63232D01*
X113824Y-63244D01*
X113831Y-63250D01*
X113850Y-63261D01*
X113877Y-63267D01*
X113929Y-63267D01*
X113942Y-63261D01*
X113949Y-63255D01*
X113955Y-63244D01*
X113955Y-63221D01*
X113949Y-63210D01*
X113942Y-63204D01*
X113929Y-63198D01*
X113896Y-63198D01*
X113883Y-63204D01*
X113877Y-63210D01*
X113870Y-63221D01*
X113870Y-63244D01*
X113877Y-63255D01*
X113883Y-63261D01*
X113896Y-63267D01*
G54D18*
X114992Y-63979D02*
X114898Y-63979D01*
X114898Y-63782D01*
X115160Y-63979D02*
X115048Y-63979D01*
X115104Y-63979D02*
X115104Y-63782D01*
X115085Y-63810D01*
X115067Y-63829D01*
X115048Y-63839D01*
X112098Y-58329D02*
X112032Y-58235D01*
X111985Y-58329D02*
X111985Y-58132D01*
X112060Y-58132D01*
X112079Y-58142D01*
X112089Y-58151D01*
X112098Y-58170D01*
X112098Y-58198D01*
X112089Y-58217D01*
X112079Y-58226D01*
X112060Y-58235D01*
X111985Y-58235D01*
X112173Y-58151D02*
X112182Y-58142D01*
X112201Y-58132D01*
X112248Y-58132D01*
X112267Y-58142D01*
X112276Y-58151D01*
X112285Y-58170D01*
X112285Y-58189D01*
X112276Y-58217D01*
X112164Y-58329D01*
X112285Y-58329D01*
X112473Y-58329D02*
X112360Y-58329D01*
X112417Y-58329D02*
X112417Y-58132D01*
X112398Y-58160D01*
X112379Y-58179D01*
X112360Y-58189D01*
G54D19*
X128959Y-71165D02*
X128565Y-71165D01*
X128565Y-71015D01*
X128584Y-70978D01*
X128603Y-70959D01*
X128640Y-70940D01*
X128696Y-70940D01*
X128734Y-70959D01*
X128753Y-70978D01*
X128771Y-71015D01*
X128771Y-71165D01*
X128696Y-70603D02*
X128959Y-70603D01*
X128546Y-70696D02*
X128828Y-70790D01*
X128828Y-70546D01*
X128859Y-56190D02*
X128465Y-56190D01*
X128465Y-56040D01*
X128484Y-56003D01*
X128503Y-55984D01*
X128540Y-55965D01*
X128596Y-55965D01*
X128634Y-55984D01*
X128653Y-56003D01*
X128671Y-56040D01*
X128671Y-56190D01*
X128503Y-55815D02*
X128484Y-55796D01*
X128465Y-55759D01*
X128465Y-55665D01*
X128484Y-55628D01*
X128503Y-55609D01*
X128540Y-55590D01*
X128578Y-55590D01*
X128634Y-55609D01*
X128859Y-55834D01*
X128859Y-55590D01*
X106609Y-59009D02*
X106609Y-58615D01*
X106759Y-58615D01*
X106796Y-58634D01*
X106815Y-58653D01*
X106834Y-58690D01*
X106834Y-58746D01*
X106815Y-58784D01*
X106796Y-58803D01*
X106759Y-58821D01*
X106609Y-58821D01*
X107190Y-58615D02*
X107003Y-58615D01*
X106984Y-58803D01*
X107003Y-58784D01*
X107040Y-58765D01*
X107134Y-58765D01*
X107171Y-58784D01*
X107190Y-58803D01*
X107209Y-58840D01*
X107209Y-58934D01*
X107190Y-58971D01*
X107171Y-58990D01*
X107134Y-59009D01*
X107040Y-59009D01*
X107003Y-58990D01*
X106984Y-58971D01*
X122209Y-71034D02*
X122209Y-70640D01*
X122359Y-70640D01*
X122396Y-70659D01*
X122415Y-70678D01*
X122434Y-70715D01*
X122434Y-70771D01*
X122415Y-70809D01*
X122396Y-70828D01*
X122359Y-70846D01*
X122209Y-70846D01*
X122809Y-71034D02*
X122584Y-71034D01*
X122696Y-71034D02*
X122696Y-70640D01*
X122659Y-70696D01*
X122621Y-70734D01*
X122584Y-70753D01*
X117721Y-65065D02*
X117721Y-65346D01*
X117703Y-65403D01*
X117665Y-65440D01*
X117609Y-65459D01*
X117571Y-65459D01*
X117909Y-65459D02*
X117909Y-65065D01*
X118059Y-65065D01*
X118096Y-65084D01*
X118115Y-65103D01*
X118134Y-65140D01*
X118134Y-65196D01*
X118115Y-65234D01*
X118096Y-65253D01*
X118059Y-65271D01*
X117909Y-65271D01*
X118509Y-65459D02*
X118284Y-65459D01*
X118396Y-65459D02*
X118396Y-65065D01*
X118359Y-65121D01*
X118321Y-65159D01*
X118284Y-65178D01*
G54D18*
X107765Y-60257D02*
X107896Y-60454D01*
X107896Y-60257D02*
X107765Y-60454D01*
X108074Y-60454D02*
X107962Y-60454D01*
X108018Y-60454D02*
X108018Y-60257D01*
X107999Y-60285D01*
X107981Y-60304D01*
X107962Y-60314D01*
X113390Y-58382D02*
X113521Y-58579D01*
X113521Y-58382D02*
X113390Y-58579D01*
X113587Y-58401D02*
X113596Y-58392D01*
X113615Y-58382D01*
X113662Y-58382D01*
X113681Y-58392D01*
X113690Y-58401D01*
X113699Y-58420D01*
X113699Y-58439D01*
X113690Y-58467D01*
X113578Y-58579D01*
X113699Y-58579D01*
X120873Y-56310D02*
X120864Y-56320D01*
X120835Y-56329D01*
X120817Y-56329D01*
X120789Y-56320D01*
X120770Y-56301D01*
X120760Y-56282D01*
X120751Y-56245D01*
X120751Y-56217D01*
X120760Y-56179D01*
X120770Y-56160D01*
X120789Y-56142D01*
X120817Y-56132D01*
X120835Y-56132D01*
X120864Y-56142D01*
X120873Y-56151D01*
X121060Y-56329D02*
X120948Y-56329D01*
X121004Y-56329D02*
X121004Y-56132D01*
X120985Y-56160D01*
X120967Y-56179D01*
X120948Y-56189D01*
X121229Y-56132D02*
X121192Y-56132D01*
X121173Y-56142D01*
X121164Y-56151D01*
X121145Y-56179D01*
X121135Y-56217D01*
X121135Y-56292D01*
X121145Y-56310D01*
X121154Y-56320D01*
X121173Y-56329D01*
X121210Y-56329D01*
X121229Y-56320D01*
X121239Y-56310D01*
X121248Y-56292D01*
X121248Y-56245D01*
X121239Y-56226D01*
X121229Y-56217D01*
X121210Y-56207D01*
X121173Y-56207D01*
X121154Y-56217D01*
X121145Y-56226D01*
X121135Y-56245D01*
X114348Y-58385D02*
X114339Y-58395D01*
X114310Y-58404D01*
X114292Y-58404D01*
X114264Y-58395D01*
X114245Y-58376D01*
X114235Y-58357D01*
X114226Y-58320D01*
X114226Y-58292D01*
X114235Y-58254D01*
X114245Y-58235D01*
X114264Y-58217D01*
X114292Y-58207D01*
X114310Y-58207D01*
X114339Y-58217D01*
X114348Y-58226D01*
X114414Y-58207D02*
X114535Y-58207D01*
X114470Y-58282D01*
X114498Y-58282D01*
X114517Y-58292D01*
X114526Y-58301D01*
X114535Y-58320D01*
X114535Y-58367D01*
X114526Y-58385D01*
X114517Y-58395D01*
X114498Y-58404D01*
X114442Y-58404D01*
X114423Y-58395D01*
X114414Y-58385D01*
X114648Y-58292D02*
X114629Y-58282D01*
X114620Y-58273D01*
X114610Y-58254D01*
X114610Y-58245D01*
X114620Y-58226D01*
X114629Y-58217D01*
X114648Y-58207D01*
X114685Y-58207D01*
X114704Y-58217D01*
X114714Y-58226D01*
X114723Y-58245D01*
X114723Y-58254D01*
X114714Y-58273D01*
X114704Y-58282D01*
X114685Y-58292D01*
X114648Y-58292D01*
X114629Y-58301D01*
X114620Y-58310D01*
X114610Y-58329D01*
X114610Y-58367D01*
X114620Y-58385D01*
X114629Y-58395D01*
X114648Y-58404D01*
X114685Y-58404D01*
X114704Y-58395D01*
X114714Y-58385D01*
X114723Y-58367D01*
X114723Y-58329D01*
X114714Y-58310D01*
X114704Y-58301D01*
X114685Y-58292D01*
X117085Y-56151D02*
X117095Y-56160D01*
X117104Y-56189D01*
X117104Y-56207D01*
X117095Y-56235D01*
X117076Y-56254D01*
X117057Y-56264D01*
X117020Y-56273D01*
X116992Y-56273D01*
X116954Y-56264D01*
X116935Y-56254D01*
X116917Y-56235D01*
X116907Y-56207D01*
X116907Y-56189D01*
X116917Y-56160D01*
X116926Y-56151D01*
X116973Y-55982D02*
X117104Y-55982D01*
X116898Y-56029D02*
X117039Y-56076D01*
X117039Y-55954D01*
X117104Y-55776D02*
X117104Y-55889D01*
X117104Y-55832D02*
X116907Y-55832D01*
X116935Y-55851D01*
X116954Y-55870D01*
X116964Y-55889D01*
X119010Y-56076D02*
X119020Y-56085D01*
X119029Y-56114D01*
X119029Y-56132D01*
X119020Y-56160D01*
X119001Y-56179D01*
X118982Y-56189D01*
X118945Y-56198D01*
X118917Y-56198D01*
X118879Y-56189D01*
X118860Y-56179D01*
X118842Y-56160D01*
X118832Y-56132D01*
X118832Y-56114D01*
X118842Y-56085D01*
X118851Y-56076D01*
X118832Y-56010D02*
X118832Y-55889D01*
X118907Y-55954D01*
X118907Y-55926D01*
X118917Y-55907D01*
X118926Y-55898D01*
X118945Y-55889D01*
X118992Y-55889D01*
X119010Y-55898D01*
X119020Y-55907D01*
X119029Y-55926D01*
X119029Y-55982D01*
X119020Y-56001D01*
X119010Y-56010D01*
X119029Y-55795D02*
X119029Y-55757D01*
X119020Y-55739D01*
X119010Y-55729D01*
X118982Y-55710D01*
X118945Y-55701D01*
X118870Y-55701D01*
X118851Y-55710D01*
X118842Y-55720D01*
X118832Y-55739D01*
X118832Y-55776D01*
X118842Y-55795D01*
X118851Y-55804D01*
X118870Y-55814D01*
X118917Y-55814D01*
X118935Y-55804D01*
X118945Y-55795D01*
X118954Y-55776D01*
X118954Y-55739D01*
X118945Y-55720D01*
X118935Y-55710D01*
X118917Y-55701D01*
X119323Y-56510D02*
X119314Y-56520D01*
X119285Y-56529D01*
X119267Y-56529D01*
X119239Y-56520D01*
X119220Y-56501D01*
X119210Y-56482D01*
X119201Y-56445D01*
X119201Y-56417D01*
X119210Y-56379D01*
X119220Y-56360D01*
X119239Y-56342D01*
X119267Y-56332D01*
X119285Y-56332D01*
X119314Y-56342D01*
X119323Y-56351D01*
X119492Y-56398D02*
X119492Y-56529D01*
X119445Y-56323D02*
X119398Y-56464D01*
X119520Y-56464D01*
X119632Y-56332D02*
X119651Y-56332D01*
X119670Y-56342D01*
X119679Y-56351D01*
X119689Y-56370D01*
X119698Y-56407D01*
X119698Y-56454D01*
X119689Y-56492D01*
X119679Y-56510D01*
X119670Y-56520D01*
X119651Y-56529D01*
X119632Y-56529D01*
X119614Y-56520D01*
X119604Y-56510D01*
X119595Y-56492D01*
X119585Y-56454D01*
X119585Y-56407D01*
X119595Y-56370D01*
X119604Y-56351D01*
X119614Y-56342D01*
X119632Y-56332D01*
X116948Y-58460D02*
X116939Y-58470D01*
X116910Y-58479D01*
X116892Y-58479D01*
X116864Y-58470D01*
X116845Y-58451D01*
X116835Y-58432D01*
X116826Y-58395D01*
X116826Y-58367D01*
X116835Y-58329D01*
X116845Y-58310D01*
X116864Y-58292D01*
X116892Y-58282D01*
X116910Y-58282D01*
X116939Y-58292D01*
X116948Y-58301D01*
X117117Y-58348D02*
X117117Y-58479D01*
X117070Y-58273D02*
X117023Y-58414D01*
X117145Y-58414D01*
X117210Y-58301D02*
X117220Y-58292D01*
X117239Y-58282D01*
X117285Y-58282D01*
X117304Y-58292D01*
X117314Y-58301D01*
X117323Y-58320D01*
X117323Y-58339D01*
X117314Y-58367D01*
X117201Y-58479D01*
X117323Y-58479D01*
X124548Y-68485D02*
X124539Y-68495D01*
X124510Y-68504D01*
X124492Y-68504D01*
X124464Y-68495D01*
X124445Y-68476D01*
X124435Y-68457D01*
X124426Y-68420D01*
X124426Y-68392D01*
X124435Y-68354D01*
X124445Y-68335D01*
X124464Y-68317D01*
X124492Y-68307D01*
X124510Y-68307D01*
X124539Y-68317D01*
X124548Y-68326D01*
X124735Y-68504D02*
X124623Y-68504D01*
X124679Y-68504D02*
X124679Y-68307D01*
X124660Y-68335D01*
X124642Y-68354D01*
X124623Y-68364D01*
X124801Y-68307D02*
X124923Y-68307D01*
X124857Y-68382D01*
X124885Y-68382D01*
X124904Y-68392D01*
X124914Y-68401D01*
X124923Y-68420D01*
X124923Y-68467D01*
X124914Y-68485D01*
X124904Y-68495D01*
X124885Y-68504D01*
X124829Y-68504D01*
X124810Y-68495D01*
X124801Y-68485D01*
X123298Y-56810D02*
X123289Y-56820D01*
X123260Y-56829D01*
X123242Y-56829D01*
X123214Y-56820D01*
X123195Y-56801D01*
X123185Y-56782D01*
X123176Y-56745D01*
X123176Y-56717D01*
X123185Y-56679D01*
X123195Y-56660D01*
X123214Y-56642D01*
X123242Y-56632D01*
X123260Y-56632D01*
X123289Y-56642D01*
X123298Y-56651D01*
X123373Y-56651D02*
X123382Y-56642D01*
X123401Y-56632D01*
X123448Y-56632D01*
X123467Y-56642D01*
X123476Y-56651D01*
X123485Y-56670D01*
X123485Y-56689D01*
X123476Y-56717D01*
X123364Y-56829D01*
X123485Y-56829D01*
X123560Y-56651D02*
X123570Y-56642D01*
X123589Y-56632D01*
X123635Y-56632D01*
X123654Y-56642D01*
X123664Y-56651D01*
X123673Y-56670D01*
X123673Y-56689D01*
X123664Y-56717D01*
X123551Y-56829D01*
X123673Y-56829D01*
X112207Y-59349D02*
X112367Y-59349D01*
X112385Y-59340D01*
X112395Y-59331D01*
X112404Y-59312D01*
X112404Y-59274D01*
X112395Y-59256D01*
X112385Y-59246D01*
X112367Y-59237D01*
X112207Y-59237D01*
X112207Y-59162D02*
X112207Y-59031D01*
X112404Y-59115D01*
G54D10*
X110275Y-69340D02*
X110331Y-69359D01*
X110425Y-69359D01*
X110462Y-69340D01*
X110481Y-69321D01*
X110500Y-69284D01*
X110500Y-69246D01*
X110481Y-69209D01*
X110462Y-69190D01*
X110425Y-69171D01*
X110350Y-69153D01*
X110312Y-69134D01*
X110293Y-69115D01*
X110275Y-69078D01*
X110275Y-69040D01*
X110293Y-69003D01*
X110312Y-68984D01*
X110350Y-68965D01*
X110443Y-68965D01*
X110500Y-68984D01*
X110631Y-68965D02*
X110725Y-69359D01*
X110800Y-69078D01*
X110874Y-69359D01*
X110968Y-68965D01*
X111081Y-68965D02*
X111324Y-68965D01*
X111193Y-69115D01*
X111249Y-69115D01*
X111287Y-69134D01*
X111306Y-69153D01*
X111324Y-69190D01*
X111324Y-69284D01*
X111306Y-69321D01*
X111287Y-69340D01*
X111249Y-69359D01*
X111137Y-69359D01*
X111099Y-69340D01*
X111081Y-69321D01*
X112875Y-69340D02*
X112931Y-69359D01*
X113025Y-69359D01*
X113062Y-69340D01*
X113081Y-69321D01*
X113100Y-69284D01*
X113100Y-69246D01*
X113081Y-69209D01*
X113062Y-69190D01*
X113025Y-69171D01*
X112950Y-69153D01*
X112912Y-69134D01*
X112893Y-69115D01*
X112875Y-69078D01*
X112875Y-69040D01*
X112893Y-69003D01*
X112912Y-68984D01*
X112950Y-68965D01*
X113043Y-68965D01*
X113100Y-68984D01*
X113231Y-68965D02*
X113325Y-69359D01*
X113400Y-69078D01*
X113474Y-69359D01*
X113568Y-68965D01*
X113887Y-69096D02*
X113887Y-69359D01*
X113793Y-68946D02*
X113699Y-69228D01*
X113943Y-69228D01*
X115525Y-69340D02*
X115581Y-69359D01*
X115675Y-69359D01*
X115712Y-69340D01*
X115731Y-69321D01*
X115750Y-69284D01*
X115750Y-69246D01*
X115731Y-69209D01*
X115712Y-69190D01*
X115675Y-69171D01*
X115600Y-69153D01*
X115562Y-69134D01*
X115543Y-69115D01*
X115525Y-69078D01*
X115525Y-69040D01*
X115543Y-69003D01*
X115562Y-68984D01*
X115600Y-68965D01*
X115693Y-68965D01*
X115750Y-68984D01*
X115881Y-68965D02*
X115975Y-69359D01*
X116050Y-69078D01*
X116124Y-69359D01*
X116218Y-68965D01*
X116349Y-69003D02*
X116368Y-68984D01*
X116406Y-68965D01*
X116499Y-68965D01*
X116537Y-68984D01*
X116556Y-69003D01*
X116574Y-69040D01*
X116574Y-69078D01*
X116556Y-69134D01*
X116331Y-69359D01*
X116574Y-69359D01*
G54D18*
X116282Y-57574D02*
X116442Y-57574D01*
X116460Y-57565D01*
X116470Y-57556D01*
X116479Y-57537D01*
X116479Y-57499D01*
X116470Y-57481D01*
X116460Y-57471D01*
X116442Y-57462D01*
X116282Y-57462D01*
X116348Y-57284D02*
X116479Y-57284D01*
X116273Y-57331D02*
X116414Y-57378D01*
X116414Y-57256D01*
X120150Y-68857D02*
X120150Y-69017D01*
X120159Y-69035D01*
X120168Y-69045D01*
X120187Y-69054D01*
X120225Y-69054D01*
X120243Y-69045D01*
X120253Y-69035D01*
X120262Y-69017D01*
X120262Y-68857D01*
X120346Y-68876D02*
X120356Y-68867D01*
X120374Y-68857D01*
X120421Y-68857D01*
X120440Y-68867D01*
X120449Y-68876D01*
X120459Y-68895D01*
X120459Y-68914D01*
X120449Y-68942D01*
X120337Y-69054D01*
X120459Y-69054D01*
X124732Y-65899D02*
X124892Y-65899D01*
X124910Y-65890D01*
X124920Y-65881D01*
X124929Y-65862D01*
X124929Y-65824D01*
X124920Y-65806D01*
X124910Y-65796D01*
X124892Y-65787D01*
X124732Y-65787D01*
X124732Y-65712D02*
X124732Y-65590D01*
X124807Y-65656D01*
X124807Y-65628D01*
X124817Y-65609D01*
X124826Y-65600D01*
X124845Y-65590D01*
X124892Y-65590D01*
X124910Y-65600D01*
X124920Y-65609D01*
X124929Y-65628D01*
X124929Y-65684D01*
X124920Y-65703D01*
X124910Y-65712D01*
X117675Y-58257D02*
X117675Y-58417D01*
X117684Y-58435D01*
X117693Y-58445D01*
X117712Y-58454D01*
X117750Y-58454D01*
X117768Y-58445D01*
X117778Y-58435D01*
X117787Y-58417D01*
X117787Y-58257D01*
X117974Y-58257D02*
X117881Y-58257D01*
X117871Y-58351D01*
X117881Y-58342D01*
X117899Y-58332D01*
X117946Y-58332D01*
X117965Y-58342D01*
X117974Y-58351D01*
X117984Y-58370D01*
X117984Y-58417D01*
X117974Y-58435D01*
X117965Y-58445D01*
X117946Y-58454D01*
X117899Y-58454D01*
X117881Y-58445D01*
X117871Y-58435D01*
G54D20*
X127074Y-69288D02*
X127027Y-69321D01*
X127074Y-69344D02*
X126975Y-69344D01*
X126975Y-69307D01*
X126980Y-69297D01*
X126985Y-69292D01*
X126994Y-69288D01*
X127008Y-69288D01*
X127018Y-69292D01*
X127022Y-69297D01*
X127027Y-69307D01*
X127027Y-69344D01*
X127074Y-69194D02*
X127074Y-69250D01*
X127074Y-69222D02*
X126975Y-69222D01*
X126989Y-69232D01*
X126999Y-69241D01*
X127003Y-69250D01*
X127074Y-69147D02*
X127074Y-69128D01*
X127069Y-69119D01*
X127064Y-69114D01*
X127050Y-69105D01*
X127032Y-69100D01*
X126994Y-69100D01*
X126985Y-69105D01*
X126980Y-69110D01*
X126975Y-69119D01*
X126975Y-69138D01*
X126980Y-69147D01*
X126985Y-69152D01*
X126994Y-69157D01*
X127018Y-69157D01*
X127027Y-69152D01*
X127032Y-69147D01*
X127036Y-69138D01*
X127036Y-69119D01*
X127032Y-69110D01*
X127027Y-69105D01*
X127018Y-69100D01*
X127074Y-69738D02*
X127027Y-69771D01*
X127074Y-69794D02*
X126975Y-69794D01*
X126975Y-69757D01*
X126980Y-69747D01*
X126985Y-69742D01*
X126994Y-69738D01*
X127008Y-69738D01*
X127018Y-69742D01*
X127022Y-69747D01*
X127027Y-69757D01*
X127027Y-69794D01*
X126985Y-69700D02*
X126980Y-69696D01*
X126975Y-69686D01*
X126975Y-69663D01*
X126980Y-69653D01*
X126985Y-69649D01*
X126994Y-69644D01*
X127003Y-69644D01*
X127018Y-69649D01*
X127074Y-69705D01*
X127074Y-69644D01*
X126975Y-69583D02*
X126975Y-69574D01*
X126980Y-69564D01*
X126985Y-69560D01*
X126994Y-69555D01*
X127013Y-69550D01*
X127036Y-69550D01*
X127055Y-69555D01*
X127064Y-69560D01*
X127069Y-69564D01*
X127074Y-69574D01*
X127074Y-69583D01*
X127069Y-69592D01*
X127064Y-69597D01*
X127055Y-69602D01*
X127036Y-69607D01*
X127013Y-69607D01*
X126994Y-69602D01*
X126985Y-69597D01*
X126980Y-69592D01*
X126975Y-69583D01*
X127074Y-67538D02*
X127027Y-67571D01*
X127074Y-67594D02*
X126975Y-67594D01*
X126975Y-67557D01*
X126980Y-67547D01*
X126985Y-67542D01*
X126994Y-67538D01*
X127008Y-67538D01*
X127018Y-67542D01*
X127022Y-67547D01*
X127027Y-67557D01*
X127027Y-67594D01*
X127074Y-67444D02*
X127074Y-67500D01*
X127074Y-67472D02*
X126975Y-67472D01*
X126989Y-67482D01*
X126999Y-67491D01*
X127003Y-67500D01*
X126975Y-67411D02*
X126975Y-67346D01*
X127074Y-67388D01*
X127074Y-67988D02*
X127027Y-68021D01*
X127074Y-68044D02*
X126975Y-68044D01*
X126975Y-68007D01*
X126980Y-67997D01*
X126985Y-67992D01*
X126994Y-67988D01*
X127008Y-67988D01*
X127018Y-67992D01*
X127022Y-67997D01*
X127027Y-68007D01*
X127027Y-68044D01*
X127074Y-67894D02*
X127074Y-67950D01*
X127074Y-67922D02*
X126975Y-67922D01*
X126989Y-67932D01*
X126999Y-67941D01*
X127003Y-67950D01*
X127018Y-67838D02*
X127013Y-67847D01*
X127008Y-67852D01*
X126999Y-67857D01*
X126994Y-67857D01*
X126985Y-67852D01*
X126980Y-67847D01*
X126975Y-67838D01*
X126975Y-67819D01*
X126980Y-67810D01*
X126985Y-67805D01*
X126994Y-67800D01*
X126999Y-67800D01*
X127008Y-67805D01*
X127013Y-67810D01*
X127018Y-67819D01*
X127018Y-67838D01*
X127022Y-67847D01*
X127027Y-67852D01*
X127036Y-67857D01*
X127055Y-67857D01*
X127064Y-67852D01*
X127069Y-67847D01*
X127074Y-67838D01*
X127074Y-67819D01*
X127069Y-67810D01*
X127064Y-67805D01*
X127055Y-67800D01*
X127036Y-67800D01*
X127027Y-67805D01*
X127022Y-67810D01*
X127018Y-67819D01*
X127074Y-60941D02*
X127027Y-60974D01*
X127074Y-60997D02*
X126975Y-60997D01*
X126975Y-60960D01*
X126980Y-60950D01*
X126985Y-60946D01*
X126994Y-60941D01*
X127008Y-60941D01*
X127018Y-60946D01*
X127022Y-60950D01*
X127027Y-60960D01*
X127027Y-60997D01*
X126975Y-60908D02*
X126975Y-60842D01*
X127074Y-60885D01*
X127074Y-60491D02*
X127027Y-60524D01*
X127074Y-60547D02*
X126975Y-60547D01*
X126975Y-60510D01*
X126980Y-60500D01*
X126985Y-60496D01*
X126994Y-60491D01*
X127008Y-60491D01*
X127018Y-60496D01*
X127022Y-60500D01*
X127027Y-60510D01*
X127027Y-60547D01*
X126975Y-60407D02*
X126975Y-60425D01*
X126980Y-60435D01*
X126985Y-60439D01*
X126999Y-60449D01*
X127018Y-60453D01*
X127055Y-60453D01*
X127064Y-60449D01*
X127069Y-60444D01*
X127074Y-60435D01*
X127074Y-60416D01*
X127069Y-60407D01*
X127064Y-60402D01*
X127055Y-60397D01*
X127032Y-60397D01*
X127022Y-60402D01*
X127018Y-60407D01*
X127013Y-60416D01*
X127013Y-60435D01*
X127018Y-60444D01*
X127022Y-60449D01*
X127032Y-60453D01*
X127074Y-64488D02*
X127027Y-64521D01*
X127074Y-64544D02*
X126975Y-64544D01*
X126975Y-64507D01*
X126980Y-64497D01*
X126985Y-64492D01*
X126994Y-64488D01*
X127008Y-64488D01*
X127018Y-64492D01*
X127022Y-64497D01*
X127027Y-64507D01*
X127027Y-64544D01*
X127074Y-64394D02*
X127074Y-64450D01*
X127074Y-64422D02*
X126975Y-64422D01*
X126989Y-64432D01*
X126999Y-64441D01*
X127003Y-64450D01*
X126975Y-64361D02*
X126975Y-64300D01*
X127013Y-64333D01*
X127013Y-64319D01*
X127018Y-64310D01*
X127022Y-64305D01*
X127032Y-64300D01*
X127055Y-64300D01*
X127064Y-64305D01*
X127069Y-64310D01*
X127074Y-64319D01*
X127074Y-64347D01*
X127069Y-64357D01*
X127064Y-64361D01*
X127074Y-56991D02*
X127027Y-57024D01*
X127074Y-57047D02*
X126975Y-57047D01*
X126975Y-57010D01*
X126980Y-57000D01*
X126985Y-56996D01*
X126994Y-56991D01*
X127008Y-56991D01*
X127018Y-56996D01*
X127022Y-57000D01*
X127027Y-57010D01*
X127027Y-57047D01*
X126985Y-56953D02*
X126980Y-56949D01*
X126975Y-56939D01*
X126975Y-56916D01*
X126980Y-56907D01*
X126985Y-56902D01*
X126994Y-56897D01*
X127003Y-56897D01*
X127018Y-56902D01*
X127074Y-56958D01*
X127074Y-56897D01*
X127074Y-57441D02*
X127027Y-57474D01*
X127074Y-57497D02*
X126975Y-57497D01*
X126975Y-57460D01*
X126980Y-57450D01*
X126985Y-57446D01*
X126994Y-57441D01*
X127008Y-57441D01*
X127018Y-57446D01*
X127022Y-57450D01*
X127027Y-57460D01*
X127027Y-57497D01*
X126975Y-57408D02*
X126975Y-57347D01*
X127013Y-57380D01*
X127013Y-57366D01*
X127018Y-57357D01*
X127022Y-57352D01*
X127032Y-57347D01*
X127055Y-57347D01*
X127064Y-57352D01*
X127069Y-57357D01*
X127074Y-57366D01*
X127074Y-57394D01*
X127069Y-57403D01*
X127064Y-57408D01*
G54D18*
X126529Y-57276D02*
X126435Y-57342D01*
X126529Y-57389D02*
X126332Y-57389D01*
X126332Y-57314D01*
X126342Y-57295D01*
X126351Y-57285D01*
X126370Y-57276D01*
X126398Y-57276D01*
X126417Y-57285D01*
X126426Y-57295D01*
X126435Y-57314D01*
X126435Y-57389D01*
X126529Y-57089D02*
X126529Y-57201D01*
X126529Y-57145D02*
X126332Y-57145D01*
X126360Y-57164D01*
X126379Y-57182D01*
X126389Y-57201D01*
X126332Y-56910D02*
X126332Y-57004D01*
X126426Y-57014D01*
X126417Y-57004D01*
X126407Y-56985D01*
X126407Y-56939D01*
X126417Y-56920D01*
X126426Y-56910D01*
X126445Y-56901D01*
X126492Y-56901D01*
X126510Y-56910D01*
X126520Y-56920D01*
X126529Y-56939D01*
X126529Y-56985D01*
X126520Y-57004D01*
X126510Y-57014D01*
X124498Y-70929D02*
X124432Y-70835D01*
X124385Y-70929D02*
X124385Y-70732D01*
X124460Y-70732D01*
X124479Y-70742D01*
X124489Y-70751D01*
X124498Y-70770D01*
X124498Y-70798D01*
X124489Y-70817D01*
X124479Y-70826D01*
X124460Y-70835D01*
X124385Y-70835D01*
X124685Y-70929D02*
X124573Y-70929D01*
X124629Y-70929D02*
X124629Y-70732D01*
X124610Y-70760D01*
X124592Y-70779D01*
X124573Y-70789D01*
X124807Y-70732D02*
X124826Y-70732D01*
X124845Y-70742D01*
X124854Y-70751D01*
X124864Y-70770D01*
X124873Y-70807D01*
X124873Y-70854D01*
X124864Y-70892D01*
X124854Y-70910D01*
X124845Y-70920D01*
X124826Y-70929D01*
X124807Y-70929D01*
X124789Y-70920D01*
X124779Y-70910D01*
X124770Y-70892D01*
X124760Y-70854D01*
X124760Y-70807D01*
X124770Y-70770D01*
X124779Y-70751D01*
X124789Y-70742D01*
X124807Y-70732D01*
G54D20*
X127074Y-58741D02*
X127027Y-58774D01*
X127074Y-58797D02*
X126975Y-58797D01*
X126975Y-58760D01*
X126980Y-58750D01*
X126985Y-58746D01*
X126994Y-58741D01*
X127008Y-58741D01*
X127018Y-58746D01*
X127022Y-58750D01*
X127027Y-58760D01*
X127027Y-58797D01*
X127008Y-58657D02*
X127074Y-58657D01*
X126971Y-58680D02*
X127041Y-58703D01*
X127041Y-58642D01*
X127074Y-59191D02*
X127027Y-59224D01*
X127074Y-59247D02*
X126975Y-59247D01*
X126975Y-59210D01*
X126980Y-59200D01*
X126985Y-59196D01*
X126994Y-59191D01*
X127008Y-59191D01*
X127018Y-59196D01*
X127022Y-59200D01*
X127027Y-59210D01*
X127027Y-59247D01*
X126975Y-59102D02*
X126975Y-59149D01*
X127022Y-59153D01*
X127018Y-59149D01*
X127013Y-59139D01*
X127013Y-59116D01*
X127018Y-59107D01*
X127022Y-59102D01*
X127032Y-59097D01*
X127055Y-59097D01*
X127064Y-59102D01*
X127069Y-59107D01*
X127074Y-59116D01*
X127074Y-59139D01*
X127069Y-59149D01*
X127064Y-59153D01*
X127074Y-64038D02*
X127027Y-64071D01*
X127074Y-64094D02*
X126975Y-64094D01*
X126975Y-64057D01*
X126980Y-64047D01*
X126985Y-64042D01*
X126994Y-64038D01*
X127008Y-64038D01*
X127018Y-64042D01*
X127022Y-64047D01*
X127027Y-64057D01*
X127027Y-64094D01*
X127074Y-63944D02*
X127074Y-64000D01*
X127074Y-63972D02*
X126975Y-63972D01*
X126989Y-63982D01*
X126999Y-63991D01*
X127003Y-64000D01*
X126985Y-63907D02*
X126980Y-63902D01*
X126975Y-63892D01*
X126975Y-63869D01*
X126980Y-63860D01*
X126985Y-63855D01*
X126994Y-63850D01*
X127003Y-63850D01*
X127018Y-63855D01*
X127074Y-63911D01*
X127074Y-63850D01*
X127074Y-62241D02*
X127027Y-62274D01*
X127074Y-62297D02*
X126975Y-62297D01*
X126975Y-62260D01*
X126980Y-62250D01*
X126985Y-62246D01*
X126994Y-62241D01*
X127008Y-62241D01*
X127018Y-62246D01*
X127022Y-62250D01*
X127027Y-62260D01*
X127027Y-62297D01*
X127018Y-62185D02*
X127013Y-62194D01*
X127008Y-62199D01*
X126999Y-62203D01*
X126994Y-62203D01*
X126985Y-62199D01*
X126980Y-62194D01*
X126975Y-62185D01*
X126975Y-62166D01*
X126980Y-62157D01*
X126985Y-62152D01*
X126994Y-62147D01*
X126999Y-62147D01*
X127008Y-62152D01*
X127013Y-62157D01*
X127018Y-62166D01*
X127018Y-62185D01*
X127022Y-62194D01*
X127027Y-62199D01*
X127036Y-62203D01*
X127055Y-62203D01*
X127064Y-62199D01*
X127069Y-62194D01*
X127074Y-62185D01*
X127074Y-62166D01*
X127069Y-62157D01*
X127064Y-62152D01*
X127055Y-62147D01*
X127036Y-62147D01*
X127027Y-62152D01*
X127022Y-62157D01*
X127018Y-62166D01*
X127074Y-62738D02*
X127027Y-62771D01*
X127074Y-62794D02*
X126975Y-62794D01*
X126975Y-62757D01*
X126980Y-62747D01*
X126985Y-62742D01*
X126994Y-62738D01*
X127008Y-62738D01*
X127018Y-62742D01*
X127022Y-62747D01*
X127027Y-62757D01*
X127027Y-62794D01*
X127074Y-62644D02*
X127074Y-62700D01*
X127074Y-62672D02*
X126975Y-62672D01*
X126989Y-62682D01*
X126999Y-62691D01*
X127003Y-62700D01*
X127074Y-62550D02*
X127074Y-62607D01*
X127074Y-62578D02*
X126975Y-62578D01*
X126989Y-62588D01*
X126999Y-62597D01*
X127003Y-62607D01*
X127074Y-66238D02*
X127027Y-66271D01*
X127074Y-66294D02*
X126975Y-66294D01*
X126975Y-66257D01*
X126980Y-66247D01*
X126985Y-66242D01*
X126994Y-66238D01*
X127008Y-66238D01*
X127018Y-66242D01*
X127022Y-66247D01*
X127027Y-66257D01*
X127027Y-66294D01*
X127074Y-66144D02*
X127074Y-66200D01*
X127074Y-66172D02*
X126975Y-66172D01*
X126989Y-66182D01*
X126999Y-66191D01*
X127003Y-66200D01*
X126975Y-66060D02*
X126975Y-66078D01*
X126980Y-66088D01*
X126985Y-66092D01*
X126999Y-66102D01*
X127018Y-66107D01*
X127055Y-66107D01*
X127064Y-66102D01*
X127069Y-66097D01*
X127074Y-66088D01*
X127074Y-66069D01*
X127069Y-66060D01*
X127064Y-66055D01*
X127055Y-66050D01*
X127032Y-66050D01*
X127022Y-66055D01*
X127018Y-66060D01*
X127013Y-66069D01*
X127013Y-66088D01*
X127018Y-66097D01*
X127022Y-66102D01*
X127032Y-66107D01*
X127074Y-65788D02*
X127027Y-65821D01*
X127074Y-65844D02*
X126975Y-65844D01*
X126975Y-65807D01*
X126980Y-65797D01*
X126985Y-65792D01*
X126994Y-65788D01*
X127008Y-65788D01*
X127018Y-65792D01*
X127022Y-65797D01*
X127027Y-65807D01*
X127027Y-65844D01*
X127074Y-65694D02*
X127074Y-65750D01*
X127074Y-65722D02*
X126975Y-65722D01*
X126989Y-65732D01*
X126999Y-65741D01*
X127003Y-65750D01*
X127008Y-65610D02*
X127074Y-65610D01*
X126971Y-65633D02*
X127041Y-65657D01*
X127041Y-65596D01*
X128206Y-66688D02*
X128211Y-66692D01*
X128216Y-66707D01*
X128216Y-66716D01*
X128211Y-66730D01*
X128201Y-66739D01*
X128192Y-66744D01*
X128173Y-66749D01*
X128159Y-66749D01*
X128141Y-66744D01*
X128131Y-66739D01*
X128122Y-66730D01*
X128117Y-66716D01*
X128117Y-66707D01*
X128122Y-66692D01*
X128126Y-66688D01*
X128126Y-66650D02*
X128122Y-66646D01*
X128117Y-66636D01*
X128117Y-66613D01*
X128122Y-66603D01*
X128126Y-66599D01*
X128136Y-66594D01*
X128145Y-66594D01*
X128159Y-66599D01*
X128216Y-66655D01*
X128216Y-66594D01*
X128159Y-66538D02*
X128155Y-66547D01*
X128150Y-66552D01*
X128141Y-66557D01*
X128136Y-66557D01*
X128126Y-66552D01*
X128122Y-66547D01*
X128117Y-66538D01*
X128117Y-66519D01*
X128122Y-66510D01*
X128126Y-66505D01*
X128136Y-66500D01*
X128141Y-66500D01*
X128150Y-66505D01*
X128155Y-66510D01*
X128159Y-66519D01*
X128159Y-66538D01*
X128164Y-66547D01*
X128169Y-66552D01*
X128178Y-66557D01*
X128197Y-66557D01*
X128206Y-66552D01*
X128211Y-66547D01*
X128216Y-66538D01*
X128216Y-66519D01*
X128211Y-66510D01*
X128206Y-66505D01*
X128197Y-66500D01*
X128178Y-66500D01*
X128169Y-66505D01*
X128164Y-66510D01*
X128159Y-66519D01*
X128206Y-65338D02*
X128211Y-65342D01*
X128216Y-65357D01*
X128216Y-65366D01*
X128211Y-65380D01*
X128201Y-65389D01*
X128192Y-65394D01*
X128173Y-65399D01*
X128159Y-65399D01*
X128141Y-65394D01*
X128131Y-65389D01*
X128122Y-65380D01*
X128117Y-65366D01*
X128117Y-65357D01*
X128122Y-65342D01*
X128126Y-65338D01*
X128126Y-65300D02*
X128122Y-65296D01*
X128117Y-65286D01*
X128117Y-65263D01*
X128122Y-65253D01*
X128126Y-65249D01*
X128136Y-65244D01*
X128145Y-65244D01*
X128159Y-65249D01*
X128216Y-65305D01*
X128216Y-65244D01*
X128117Y-65211D02*
X128117Y-65146D01*
X128216Y-65188D01*
X128206Y-64938D02*
X128211Y-64942D01*
X128216Y-64957D01*
X128216Y-64966D01*
X128211Y-64980D01*
X128201Y-64989D01*
X128192Y-64994D01*
X128173Y-64999D01*
X128159Y-64999D01*
X128141Y-64994D01*
X128131Y-64989D01*
X128122Y-64980D01*
X128117Y-64966D01*
X128117Y-64957D01*
X128122Y-64942D01*
X128126Y-64938D01*
X128126Y-64900D02*
X128122Y-64896D01*
X128117Y-64886D01*
X128117Y-64863D01*
X128122Y-64853D01*
X128126Y-64849D01*
X128136Y-64844D01*
X128145Y-64844D01*
X128159Y-64849D01*
X128216Y-64905D01*
X128216Y-64844D01*
X128150Y-64760D02*
X128216Y-64760D01*
X128112Y-64783D02*
X128183Y-64807D01*
X128183Y-64746D01*
X128206Y-63588D02*
X128211Y-63592D01*
X128216Y-63607D01*
X128216Y-63616D01*
X128211Y-63630D01*
X128201Y-63639D01*
X128192Y-63644D01*
X128173Y-63649D01*
X128159Y-63649D01*
X128141Y-63644D01*
X128131Y-63639D01*
X128122Y-63630D01*
X128117Y-63616D01*
X128117Y-63607D01*
X128122Y-63592D01*
X128126Y-63588D01*
X128126Y-63550D02*
X128122Y-63546D01*
X128117Y-63536D01*
X128117Y-63513D01*
X128122Y-63503D01*
X128126Y-63499D01*
X128136Y-63494D01*
X128145Y-63494D01*
X128159Y-63499D01*
X128216Y-63555D01*
X128216Y-63494D01*
X128117Y-63461D02*
X128117Y-63400D01*
X128155Y-63433D01*
X128155Y-63419D01*
X128159Y-63410D01*
X128164Y-63405D01*
X128173Y-63400D01*
X128197Y-63400D01*
X128206Y-63405D01*
X128211Y-63410D01*
X128216Y-63419D01*
X128216Y-63447D01*
X128211Y-63457D01*
X128206Y-63461D01*
X128206Y-67088D02*
X128211Y-67092D01*
X128216Y-67107D01*
X128216Y-67116D01*
X128211Y-67130D01*
X128201Y-67139D01*
X128192Y-67144D01*
X128173Y-67149D01*
X128159Y-67149D01*
X128141Y-67144D01*
X128131Y-67139D01*
X128122Y-67130D01*
X128117Y-67116D01*
X128117Y-67107D01*
X128122Y-67092D01*
X128126Y-67088D01*
X128117Y-67055D02*
X128117Y-66994D01*
X128155Y-67027D01*
X128155Y-67013D01*
X128159Y-67003D01*
X128164Y-66999D01*
X128173Y-66994D01*
X128197Y-66994D01*
X128206Y-66999D01*
X128211Y-67003D01*
X128216Y-67013D01*
X128216Y-67041D01*
X128211Y-67050D01*
X128206Y-67055D01*
X128117Y-66933D02*
X128117Y-66924D01*
X128122Y-66914D01*
X128126Y-66910D01*
X128136Y-66905D01*
X128155Y-66900D01*
X128178Y-66900D01*
X128197Y-66905D01*
X128206Y-66910D01*
X128211Y-66914D01*
X128216Y-66924D01*
X128216Y-66933D01*
X128211Y-66942D01*
X128206Y-66947D01*
X128197Y-66952D01*
X128178Y-66957D01*
X128155Y-66957D01*
X128136Y-66952D01*
X128126Y-66947D01*
X128122Y-66942D01*
X128117Y-66933D01*
X128206Y-68438D02*
X128211Y-68442D01*
X128216Y-68457D01*
X128216Y-68466D01*
X128211Y-68480D01*
X128201Y-68489D01*
X128192Y-68494D01*
X128173Y-68499D01*
X128159Y-68499D01*
X128141Y-68494D01*
X128131Y-68489D01*
X128122Y-68480D01*
X128117Y-68466D01*
X128117Y-68457D01*
X128122Y-68442D01*
X128126Y-68438D01*
X128117Y-68405D02*
X128117Y-68344D01*
X128155Y-68377D01*
X128155Y-68363D01*
X128159Y-68353D01*
X128164Y-68349D01*
X128173Y-68344D01*
X128197Y-68344D01*
X128206Y-68349D01*
X128211Y-68353D01*
X128216Y-68363D01*
X128216Y-68391D01*
X128211Y-68400D01*
X128206Y-68405D01*
X128216Y-68250D02*
X128216Y-68307D01*
X128216Y-68278D02*
X128117Y-68278D01*
X128131Y-68288D01*
X128141Y-68297D01*
X128145Y-68307D01*
X128206Y-63188D02*
X128211Y-63192D01*
X128216Y-63207D01*
X128216Y-63216D01*
X128211Y-63230D01*
X128201Y-63239D01*
X128192Y-63244D01*
X128173Y-63249D01*
X128159Y-63249D01*
X128141Y-63244D01*
X128131Y-63239D01*
X128122Y-63230D01*
X128117Y-63216D01*
X128117Y-63207D01*
X128122Y-63192D01*
X128126Y-63188D01*
X128216Y-63094D02*
X128216Y-63150D01*
X128216Y-63122D02*
X128117Y-63122D01*
X128131Y-63132D01*
X128141Y-63141D01*
X128145Y-63150D01*
X128117Y-63005D02*
X128117Y-63052D01*
X128164Y-63057D01*
X128159Y-63052D01*
X128155Y-63042D01*
X128155Y-63019D01*
X128159Y-63010D01*
X128164Y-63005D01*
X128173Y-63000D01*
X128197Y-63000D01*
X128206Y-63005D01*
X128211Y-63010D01*
X128216Y-63019D01*
X128216Y-63042D01*
X128211Y-63052D01*
X128206Y-63057D01*
X128206Y-61838D02*
X128211Y-61842D01*
X128216Y-61857D01*
X128216Y-61866D01*
X128211Y-61880D01*
X128201Y-61889D01*
X128192Y-61894D01*
X128173Y-61899D01*
X128159Y-61899D01*
X128141Y-61894D01*
X128131Y-61889D01*
X128122Y-61880D01*
X128117Y-61866D01*
X128117Y-61857D01*
X128122Y-61842D01*
X128126Y-61838D01*
X128216Y-61744D02*
X128216Y-61800D01*
X128216Y-61772D02*
X128117Y-61772D01*
X128131Y-61782D01*
X128141Y-61791D01*
X128145Y-61800D01*
X128150Y-61660D02*
X128216Y-61660D01*
X128112Y-61683D02*
X128183Y-61707D01*
X128183Y-61646D01*
X128206Y-68838D02*
X128211Y-68842D01*
X128216Y-68857D01*
X128216Y-68866D01*
X128211Y-68880D01*
X128201Y-68889D01*
X128192Y-68894D01*
X128173Y-68899D01*
X128159Y-68899D01*
X128141Y-68894D01*
X128131Y-68889D01*
X128122Y-68880D01*
X128117Y-68866D01*
X128117Y-68857D01*
X128122Y-68842D01*
X128126Y-68838D01*
X128117Y-68805D02*
X128117Y-68744D01*
X128155Y-68777D01*
X128155Y-68763D01*
X128159Y-68753D01*
X128164Y-68749D01*
X128173Y-68744D01*
X128197Y-68744D01*
X128206Y-68749D01*
X128211Y-68753D01*
X128216Y-68763D01*
X128216Y-68791D01*
X128211Y-68800D01*
X128206Y-68805D01*
X128126Y-68707D02*
X128122Y-68702D01*
X128117Y-68692D01*
X128117Y-68669D01*
X128122Y-68660D01*
X128126Y-68655D01*
X128136Y-68650D01*
X128145Y-68650D01*
X128159Y-68655D01*
X128216Y-68711D01*
X128216Y-68650D01*
X128206Y-70188D02*
X128211Y-70192D01*
X128216Y-70207D01*
X128216Y-70216D01*
X128211Y-70230D01*
X128201Y-70239D01*
X128192Y-70244D01*
X128173Y-70249D01*
X128159Y-70249D01*
X128141Y-70244D01*
X128131Y-70239D01*
X128122Y-70230D01*
X128117Y-70216D01*
X128117Y-70207D01*
X128122Y-70192D01*
X128126Y-70188D01*
X128117Y-70155D02*
X128117Y-70094D01*
X128155Y-70127D01*
X128155Y-70113D01*
X128159Y-70103D01*
X128164Y-70099D01*
X128173Y-70094D01*
X128197Y-70094D01*
X128206Y-70099D01*
X128211Y-70103D01*
X128216Y-70113D01*
X128216Y-70141D01*
X128211Y-70150D01*
X128206Y-70155D01*
X128117Y-70061D02*
X128117Y-70000D01*
X128155Y-70033D01*
X128155Y-70019D01*
X128159Y-70010D01*
X128164Y-70005D01*
X128173Y-70000D01*
X128197Y-70000D01*
X128206Y-70005D01*
X128211Y-70010D01*
X128216Y-70019D01*
X128216Y-70047D01*
X128211Y-70057D01*
X128206Y-70061D01*
X128206Y-61438D02*
X128211Y-61442D01*
X128216Y-61457D01*
X128216Y-61466D01*
X128211Y-61480D01*
X128201Y-61489D01*
X128192Y-61494D01*
X128173Y-61499D01*
X128159Y-61499D01*
X128141Y-61494D01*
X128131Y-61489D01*
X128122Y-61480D01*
X128117Y-61466D01*
X128117Y-61457D01*
X128122Y-61442D01*
X128126Y-61438D01*
X128216Y-61344D02*
X128216Y-61400D01*
X128216Y-61372D02*
X128117Y-61372D01*
X128131Y-61382D01*
X128141Y-61391D01*
X128145Y-61400D01*
X128117Y-61283D02*
X128117Y-61274D01*
X128122Y-61264D01*
X128126Y-61260D01*
X128136Y-61255D01*
X128155Y-61250D01*
X128178Y-61250D01*
X128197Y-61255D01*
X128206Y-61260D01*
X128211Y-61264D01*
X128216Y-61274D01*
X128216Y-61283D01*
X128211Y-61292D01*
X128206Y-61297D01*
X128197Y-61302D01*
X128178Y-61307D01*
X128155Y-61307D01*
X128136Y-61302D01*
X128126Y-61297D01*
X128122Y-61292D01*
X128117Y-61283D01*
X128206Y-60041D02*
X128211Y-60046D01*
X128216Y-60060D01*
X128216Y-60069D01*
X128211Y-60083D01*
X128201Y-60092D01*
X128192Y-60097D01*
X128173Y-60102D01*
X128159Y-60102D01*
X128141Y-60097D01*
X128131Y-60092D01*
X128122Y-60083D01*
X128117Y-60069D01*
X128117Y-60060D01*
X128122Y-60046D01*
X128126Y-60041D01*
X128216Y-59994D02*
X128216Y-59975D01*
X128211Y-59966D01*
X128206Y-59961D01*
X128192Y-59952D01*
X128173Y-59947D01*
X128136Y-59947D01*
X128126Y-59952D01*
X128122Y-59957D01*
X128117Y-59966D01*
X128117Y-59985D01*
X128122Y-59994D01*
X128126Y-59999D01*
X128136Y-60003D01*
X128159Y-60003D01*
X128169Y-59999D01*
X128173Y-59994D01*
X128178Y-59985D01*
X128178Y-59966D01*
X128173Y-59957D01*
X128169Y-59952D01*
X128159Y-59947D01*
X128206Y-57891D02*
X128211Y-57896D01*
X128216Y-57910D01*
X128216Y-57919D01*
X128211Y-57933D01*
X128201Y-57942D01*
X128192Y-57947D01*
X128173Y-57952D01*
X128159Y-57952D01*
X128141Y-57947D01*
X128131Y-57942D01*
X128122Y-57933D01*
X128117Y-57919D01*
X128117Y-57910D01*
X128122Y-57896D01*
X128126Y-57891D01*
X128150Y-57807D02*
X128216Y-57807D01*
X128112Y-57830D02*
X128183Y-57853D01*
X128183Y-57792D01*
X128206Y-58291D02*
X128211Y-58296D01*
X128216Y-58310D01*
X128216Y-58319D01*
X128211Y-58333D01*
X128201Y-58342D01*
X128192Y-58347D01*
X128173Y-58352D01*
X128159Y-58352D01*
X128141Y-58347D01*
X128131Y-58342D01*
X128122Y-58333D01*
X128117Y-58319D01*
X128117Y-58310D01*
X128122Y-58296D01*
X128126Y-58291D01*
X128117Y-58202D02*
X128117Y-58249D01*
X128164Y-58253D01*
X128159Y-58249D01*
X128155Y-58239D01*
X128155Y-58216D01*
X128159Y-58207D01*
X128164Y-58202D01*
X128173Y-58197D01*
X128197Y-58197D01*
X128206Y-58202D01*
X128211Y-58207D01*
X128216Y-58216D01*
X128216Y-58239D01*
X128211Y-58249D01*
X128206Y-58253D01*
G54D18*
X125335Y-57226D02*
X125345Y-57235D01*
X125354Y-57264D01*
X125354Y-57282D01*
X125345Y-57310D01*
X125326Y-57329D01*
X125307Y-57339D01*
X125270Y-57348D01*
X125242Y-57348D01*
X125204Y-57339D01*
X125185Y-57329D01*
X125167Y-57310D01*
X125157Y-57282D01*
X125157Y-57264D01*
X125167Y-57235D01*
X125176Y-57226D01*
X125176Y-57151D02*
X125167Y-57142D01*
X125157Y-57123D01*
X125157Y-57076D01*
X125167Y-57057D01*
X125176Y-57048D01*
X125195Y-57039D01*
X125214Y-57039D01*
X125242Y-57048D01*
X125354Y-57160D01*
X125354Y-57039D01*
X125354Y-56945D02*
X125354Y-56907D01*
X125345Y-56889D01*
X125335Y-56879D01*
X125307Y-56860D01*
X125270Y-56851D01*
X125195Y-56851D01*
X125176Y-56860D01*
X125167Y-56870D01*
X125157Y-56889D01*
X125157Y-56926D01*
X125167Y-56945D01*
X125176Y-56954D01*
X125195Y-56964D01*
X125242Y-56964D01*
X125260Y-56954D01*
X125270Y-56945D01*
X125279Y-56926D01*
X125279Y-56889D01*
X125270Y-56870D01*
X125260Y-56860D01*
X125242Y-56851D01*
G54D20*
X128206Y-59641D02*
X128211Y-59646D01*
X128216Y-59660D01*
X128216Y-59669D01*
X128211Y-59683D01*
X128201Y-59692D01*
X128192Y-59697D01*
X128173Y-59702D01*
X128159Y-59702D01*
X128141Y-59697D01*
X128131Y-59692D01*
X128122Y-59683D01*
X128117Y-59669D01*
X128117Y-59660D01*
X128122Y-59646D01*
X128126Y-59641D01*
X128117Y-59557D02*
X128117Y-59575D01*
X128122Y-59585D01*
X128126Y-59589D01*
X128141Y-59599D01*
X128159Y-59603D01*
X128197Y-59603D01*
X128206Y-59599D01*
X128211Y-59594D01*
X128216Y-59585D01*
X128216Y-59566D01*
X128211Y-59557D01*
X128206Y-59552D01*
X128197Y-59547D01*
X128173Y-59547D01*
X128164Y-59552D01*
X128159Y-59557D01*
X128155Y-59566D01*
X128155Y-59585D01*
X128159Y-59594D01*
X128164Y-59599D01*
X128173Y-59603D01*
G54D10*
X125742Y-71296D02*
X125742Y-70981D01*
X125862Y-70981D01*
X125892Y-70996D01*
X125907Y-71011D01*
X125922Y-71041D01*
X125922Y-71086D01*
X125907Y-71116D01*
X125892Y-71131D01*
X125862Y-71146D01*
X125742Y-71146D01*
X126027Y-70981D02*
X126237Y-70981D01*
X126102Y-71296D01*
G54D19*
X123809Y-56184D02*
X123809Y-55790D01*
X123959Y-55790D01*
X123996Y-55809D01*
X124015Y-55828D01*
X124034Y-55865D01*
X124034Y-55921D01*
X124015Y-55959D01*
X123996Y-55978D01*
X123959Y-55996D01*
X123809Y-55996D01*
X124371Y-55790D02*
X124296Y-55790D01*
X124259Y-55809D01*
X124240Y-55828D01*
X124203Y-55884D01*
X124184Y-55959D01*
X124184Y-56109D01*
X124203Y-56146D01*
X124221Y-56165D01*
X124259Y-56184D01*
X124334Y-56184D01*
X124371Y-56165D01*
X124390Y-56146D01*
X124409Y-56109D01*
X124409Y-56015D01*
X124390Y-55978D01*
X124371Y-55959D01*
X124334Y-55940D01*
X124259Y-55940D01*
X124221Y-55959D01*
X124203Y-55978D01*
X124184Y-56015D01*
G54D20*
X128206Y-56541D02*
X128211Y-56546D01*
X128216Y-56560D01*
X128216Y-56569D01*
X128211Y-56583D01*
X128201Y-56592D01*
X128192Y-56597D01*
X128173Y-56602D01*
X128159Y-56602D01*
X128141Y-56597D01*
X128131Y-56592D01*
X128122Y-56583D01*
X128117Y-56569D01*
X128117Y-56560D01*
X128122Y-56546D01*
X128126Y-56541D01*
X128216Y-56447D02*
X128216Y-56503D01*
X128216Y-56475D02*
X128117Y-56475D01*
X128131Y-56485D01*
X128141Y-56494D01*
X128145Y-56503D01*
G54D18*
X121626Y-69057D02*
X121739Y-69057D01*
X121682Y-69254D02*
X121682Y-69057D01*
X121804Y-69254D02*
X121804Y-69057D01*
X121879Y-69057D01*
X121898Y-69067D01*
X121907Y-69076D01*
X121917Y-69095D01*
X121917Y-69123D01*
X121907Y-69142D01*
X121898Y-69151D01*
X121879Y-69160D01*
X121804Y-69160D01*
X122104Y-69254D02*
X121992Y-69254D01*
X122048Y-69254D02*
X122048Y-69057D01*
X122029Y-69085D01*
X122010Y-69104D01*
X121992Y-69114D01*
X123101Y-68082D02*
X123214Y-68082D01*
X123157Y-68279D02*
X123157Y-68082D01*
X123279Y-68279D02*
X123279Y-68082D01*
X123354Y-68082D01*
X123373Y-68092D01*
X123382Y-68101D01*
X123392Y-68120D01*
X123392Y-68148D01*
X123382Y-68167D01*
X123373Y-68176D01*
X123354Y-68185D01*
X123279Y-68185D01*
X123467Y-68101D02*
X123476Y-68092D01*
X123495Y-68082D01*
X123542Y-68082D01*
X123560Y-68092D01*
X123570Y-68101D01*
X123579Y-68120D01*
X123579Y-68139D01*
X123570Y-68167D01*
X123457Y-68279D01*
X123579Y-68279D01*
X113901Y-56332D02*
X114014Y-56332D01*
X113957Y-56529D02*
X113957Y-56332D01*
X114079Y-56529D02*
X114079Y-56332D01*
X114154Y-56332D01*
X114173Y-56342D01*
X114182Y-56351D01*
X114192Y-56370D01*
X114192Y-56398D01*
X114182Y-56417D01*
X114173Y-56426D01*
X114154Y-56435D01*
X114079Y-56435D01*
X114257Y-56332D02*
X114379Y-56332D01*
X114314Y-56407D01*
X114342Y-56407D01*
X114360Y-56417D01*
X114370Y-56426D01*
X114379Y-56445D01*
X114379Y-56492D01*
X114370Y-56510D01*
X114360Y-56520D01*
X114342Y-56529D01*
X114285Y-56529D01*
X114267Y-56520D01*
X114257Y-56510D01*
X119026Y-59082D02*
X119139Y-59082D01*
X119082Y-59279D02*
X119082Y-59082D01*
X119204Y-59279D02*
X119204Y-59082D01*
X119279Y-59082D01*
X119298Y-59092D01*
X119307Y-59101D01*
X119317Y-59120D01*
X119317Y-59148D01*
X119307Y-59167D01*
X119298Y-59176D01*
X119279Y-59185D01*
X119204Y-59185D01*
X119485Y-59148D02*
X119485Y-59279D01*
X119439Y-59073D02*
X119392Y-59214D01*
X119514Y-59214D01*
G54D10*
X113015Y-62999D02*
X113334Y-62999D01*
X113371Y-62981D01*
X113390Y-62962D01*
X113409Y-62924D01*
X113409Y-62849D01*
X113390Y-62812D01*
X113371Y-62793D01*
X113334Y-62774D01*
X113015Y-62774D01*
X113015Y-62418D02*
X113015Y-62493D01*
X113034Y-62531D01*
X113053Y-62550D01*
X113109Y-62587D01*
X113184Y-62606D01*
X113334Y-62606D01*
X113371Y-62587D01*
X113390Y-62568D01*
X113409Y-62531D01*
X113409Y-62456D01*
X113390Y-62418D01*
X113371Y-62400D01*
X113334Y-62381D01*
X113240Y-62381D01*
X113203Y-62400D01*
X113184Y-62418D01*
X113165Y-62456D01*
X113165Y-62531D01*
X113184Y-62568D01*
X113203Y-62587D01*
X113240Y-62606D01*
X108384Y-66565D02*
X107990Y-66565D01*
X107990Y-66415D01*
X108009Y-66378D01*
X108028Y-66359D01*
X108065Y-66340D01*
X108121Y-66340D01*
X108159Y-66359D01*
X108178Y-66378D01*
X108196Y-66415D01*
X108196Y-66565D01*
X107990Y-66209D02*
X107990Y-65965D01*
X108140Y-66096D01*
X108140Y-66040D01*
X108159Y-66003D01*
X108178Y-65984D01*
X108215Y-65965D01*
X108309Y-65965D01*
X108346Y-65984D01*
X108365Y-66003D01*
X108384Y-66040D01*
X108384Y-66153D01*
X108365Y-66190D01*
X108346Y-66209D01*
X115150Y-71090D02*
X115206Y-71109D01*
X115300Y-71109D01*
X115337Y-71090D01*
X115356Y-71071D01*
X115375Y-71034D01*
X115375Y-70996D01*
X115356Y-70959D01*
X115337Y-70940D01*
X115300Y-70921D01*
X115225Y-70903D01*
X115187Y-70884D01*
X115168Y-70865D01*
X115150Y-70828D01*
X115150Y-70790D01*
X115168Y-70753D01*
X115187Y-70734D01*
X115225Y-70715D01*
X115318Y-70715D01*
X115375Y-70734D01*
X115506Y-70715D02*
X115600Y-71109D01*
X115675Y-70828D01*
X115749Y-71109D01*
X115843Y-70715D01*
X116199Y-71109D02*
X115974Y-71109D01*
X116087Y-71109D02*
X116087Y-70715D01*
X116049Y-70771D01*
X116012Y-70809D01*
X115974Y-70828D01*
G54D18*
X112729Y-65579D02*
X112729Y-65382D01*
X112776Y-65382D01*
X112804Y-65392D01*
X112823Y-65410D01*
X112832Y-65429D01*
X112842Y-65467D01*
X112842Y-65495D01*
X112832Y-65532D01*
X112823Y-65551D01*
X112804Y-65570D01*
X112776Y-65579D01*
X112729Y-65579D01*
X113029Y-65579D02*
X112917Y-65579D01*
X112973Y-65579D02*
X112973Y-65382D01*
X112954Y-65410D01*
X112935Y-65429D01*
X112917Y-65439D01*
X113854Y-64504D02*
X113854Y-64307D01*
X113901Y-64307D01*
X113929Y-64317D01*
X113948Y-64335D01*
X113957Y-64354D01*
X113967Y-64392D01*
X113967Y-64420D01*
X113957Y-64457D01*
X113948Y-64476D01*
X113929Y-64495D01*
X113901Y-64504D01*
X113854Y-64504D01*
X114042Y-64326D02*
X114051Y-64317D01*
X114070Y-64307D01*
X114117Y-64307D01*
X114135Y-64317D01*
X114145Y-64326D01*
X114154Y-64345D01*
X114154Y-64364D01*
X114145Y-64392D01*
X114032Y-64504D01*
X114154Y-64504D01*
X122723Y-57209D02*
X122714Y-57219D01*
X122685Y-57228D01*
X122667Y-57228D01*
X122639Y-57219D01*
X122620Y-57200D01*
X122610Y-57181D01*
X122601Y-57144D01*
X122601Y-57116D01*
X122610Y-57078D01*
X122620Y-57059D01*
X122639Y-57041D01*
X122667Y-57031D01*
X122685Y-57031D01*
X122714Y-57041D01*
X122723Y-57050D01*
X122798Y-57050D02*
X122807Y-57041D01*
X122826Y-57031D01*
X122873Y-57031D01*
X122892Y-57041D01*
X122901Y-57050D01*
X122910Y-57069D01*
X122910Y-57087D01*
X122901Y-57116D01*
X122789Y-57228D01*
X122910Y-57228D01*
X123098Y-57228D02*
X122985Y-57228D01*
X123042Y-57228D02*
X123042Y-57031D01*
X123023Y-57059D01*
X123004Y-57078D01*
X122985Y-57087D01*
X123023Y-66235D02*
X123014Y-66245D01*
X122985Y-66254D01*
X122967Y-66254D01*
X122939Y-66245D01*
X122920Y-66226D01*
X122910Y-66207D01*
X122901Y-66170D01*
X122901Y-66142D01*
X122910Y-66104D01*
X122920Y-66085D01*
X122939Y-66067D01*
X122967Y-66057D01*
X122985Y-66057D01*
X123014Y-66067D01*
X123023Y-66076D01*
X123089Y-66057D02*
X123210Y-66057D01*
X123145Y-66132D01*
X123173Y-66132D01*
X123192Y-66142D01*
X123201Y-66151D01*
X123210Y-66170D01*
X123210Y-66217D01*
X123201Y-66235D01*
X123192Y-66245D01*
X123173Y-66254D01*
X123117Y-66254D01*
X123098Y-66245D01*
X123089Y-66235D01*
X123276Y-66057D02*
X123407Y-66057D01*
X123323Y-66254D01*
X120148Y-66085D02*
X120139Y-66095D01*
X120110Y-66104D01*
X120092Y-66104D01*
X120064Y-66095D01*
X120045Y-66076D01*
X120035Y-66057D01*
X120026Y-66020D01*
X120026Y-65992D01*
X120035Y-65954D01*
X120045Y-65935D01*
X120064Y-65917D01*
X120092Y-65907D01*
X120110Y-65907D01*
X120139Y-65917D01*
X120148Y-65926D01*
X120223Y-65926D02*
X120232Y-65917D01*
X120251Y-65907D01*
X120298Y-65907D01*
X120317Y-65917D01*
X120326Y-65926D01*
X120335Y-65945D01*
X120335Y-65964D01*
X120326Y-65992D01*
X120214Y-66104D01*
X120335Y-66104D01*
X120504Y-65907D02*
X120467Y-65907D01*
X120448Y-65917D01*
X120439Y-65926D01*
X120420Y-65954D01*
X120410Y-65992D01*
X120410Y-66067D01*
X120420Y-66085D01*
X120429Y-66095D01*
X120448Y-66104D01*
X120485Y-66104D01*
X120504Y-66095D01*
X120514Y-66085D01*
X120523Y-66067D01*
X120523Y-66020D01*
X120514Y-66001D01*
X120504Y-65992D01*
X120485Y-65982D01*
X120448Y-65982D01*
X120429Y-65992D01*
X120420Y-66001D01*
X120410Y-66020D01*
X120748Y-66085D02*
X120739Y-66095D01*
X120710Y-66104D01*
X120692Y-66104D01*
X120664Y-66095D01*
X120645Y-66076D01*
X120635Y-66057D01*
X120626Y-66020D01*
X120626Y-65992D01*
X120635Y-65954D01*
X120645Y-65935D01*
X120664Y-65917D01*
X120692Y-65907D01*
X120710Y-65907D01*
X120739Y-65917D01*
X120748Y-65926D01*
X120823Y-65926D02*
X120832Y-65917D01*
X120851Y-65907D01*
X120898Y-65907D01*
X120917Y-65917D01*
X120926Y-65926D01*
X120935Y-65945D01*
X120935Y-65964D01*
X120926Y-65992D01*
X120814Y-66104D01*
X120935Y-66104D01*
X121114Y-65907D02*
X121020Y-65907D01*
X121010Y-66001D01*
X121020Y-65992D01*
X121039Y-65982D01*
X121085Y-65982D01*
X121104Y-65992D01*
X121114Y-66001D01*
X121123Y-66020D01*
X121123Y-66067D01*
X121114Y-66085D01*
X121104Y-66095D01*
X121085Y-66104D01*
X121039Y-66104D01*
X121020Y-66095D01*
X121010Y-66085D01*
X122098Y-57234D02*
X122089Y-57244D01*
X122060Y-57253D01*
X122042Y-57253D01*
X122014Y-57244D01*
X121995Y-57225D01*
X121985Y-57206D01*
X121976Y-57169D01*
X121976Y-57141D01*
X121985Y-57103D01*
X121995Y-57084D01*
X122014Y-57066D01*
X122042Y-57056D01*
X122060Y-57056D01*
X122089Y-57066D01*
X122098Y-57075D01*
X122173Y-57075D02*
X122182Y-57066D01*
X122201Y-57056D01*
X122248Y-57056D01*
X122267Y-57066D01*
X122276Y-57075D01*
X122285Y-57094D01*
X122285Y-57112D01*
X122276Y-57141D01*
X122164Y-57253D01*
X122285Y-57253D01*
X122407Y-57056D02*
X122426Y-57056D01*
X122445Y-57066D01*
X122454Y-57075D01*
X122464Y-57094D01*
X122473Y-57131D01*
X122473Y-57178D01*
X122464Y-57216D01*
X122454Y-57234D01*
X122445Y-57244D01*
X122426Y-57253D01*
X122407Y-57253D01*
X122389Y-57244D01*
X122379Y-57234D01*
X122370Y-57216D01*
X122360Y-57178D01*
X122360Y-57131D01*
X122370Y-57094D01*
X122379Y-57075D01*
X122389Y-57066D01*
X122407Y-57056D01*
X122610Y-66026D02*
X122620Y-66035D01*
X122629Y-66064D01*
X122629Y-66082D01*
X122620Y-66110D01*
X122601Y-66129D01*
X122582Y-66139D01*
X122545Y-66148D01*
X122517Y-66148D01*
X122479Y-66139D01*
X122460Y-66129D01*
X122442Y-66110D01*
X122432Y-66082D01*
X122432Y-66064D01*
X122442Y-66035D01*
X122451Y-66026D01*
X122629Y-65839D02*
X122629Y-65951D01*
X122629Y-65895D02*
X122432Y-65895D01*
X122460Y-65914D01*
X122479Y-65932D01*
X122489Y-65951D01*
X122629Y-65745D02*
X122629Y-65707D01*
X122620Y-65689D01*
X122610Y-65679D01*
X122582Y-65660D01*
X122545Y-65651D01*
X122470Y-65651D01*
X122451Y-65660D01*
X122442Y-65670D01*
X122432Y-65689D01*
X122432Y-65726D01*
X122442Y-65745D01*
X122451Y-65754D01*
X122470Y-65764D01*
X122517Y-65764D01*
X122535Y-65754D01*
X122545Y-65745D01*
X122554Y-65726D01*
X122554Y-65689D01*
X122545Y-65670D01*
X122535Y-65660D01*
X122517Y-65651D01*
X122610Y-65426D02*
X122620Y-65435D01*
X122629Y-65464D01*
X122629Y-65482D01*
X122620Y-65510D01*
X122601Y-65529D01*
X122582Y-65539D01*
X122545Y-65548D01*
X122517Y-65548D01*
X122479Y-65539D01*
X122460Y-65529D01*
X122442Y-65510D01*
X122432Y-65482D01*
X122432Y-65464D01*
X122442Y-65435D01*
X122451Y-65426D01*
X122629Y-65239D02*
X122629Y-65351D01*
X122629Y-65295D02*
X122432Y-65295D01*
X122460Y-65314D01*
X122479Y-65332D01*
X122489Y-65351D01*
X122517Y-65126D02*
X122507Y-65145D01*
X122498Y-65154D01*
X122479Y-65164D01*
X122470Y-65164D01*
X122451Y-65154D01*
X122442Y-65145D01*
X122432Y-65126D01*
X122432Y-65089D01*
X122442Y-65070D01*
X122451Y-65060D01*
X122470Y-65051D01*
X122479Y-65051D01*
X122498Y-65060D01*
X122507Y-65070D01*
X122517Y-65089D01*
X122517Y-65126D01*
X122526Y-65145D01*
X122535Y-65154D01*
X122554Y-65164D01*
X122592Y-65164D01*
X122610Y-65154D01*
X122620Y-65145D01*
X122629Y-65126D01*
X122629Y-65089D01*
X122620Y-65070D01*
X122610Y-65060D01*
X122592Y-65051D01*
X122554Y-65051D01*
X122535Y-65060D01*
X122526Y-65070D01*
X122517Y-65089D01*
X120123Y-57135D02*
X120114Y-57145D01*
X120085Y-57154D01*
X120067Y-57154D01*
X120039Y-57145D01*
X120020Y-57126D01*
X120010Y-57107D01*
X120001Y-57070D01*
X120001Y-57042D01*
X120010Y-57004D01*
X120020Y-56985D01*
X120039Y-56967D01*
X120067Y-56957D01*
X120085Y-56957D01*
X120114Y-56967D01*
X120123Y-56976D01*
X120310Y-57154D02*
X120198Y-57154D01*
X120254Y-57154D02*
X120254Y-56957D01*
X120235Y-56985D01*
X120217Y-57004D01*
X120198Y-57014D01*
X120376Y-56957D02*
X120507Y-56957D01*
X120423Y-57154D01*
X124798Y-58410D02*
X124789Y-58420D01*
X124760Y-58429D01*
X124742Y-58429D01*
X124714Y-58420D01*
X124695Y-58401D01*
X124685Y-58382D01*
X124676Y-58345D01*
X124676Y-58317D01*
X124685Y-58279D01*
X124695Y-58260D01*
X124714Y-58242D01*
X124742Y-58232D01*
X124760Y-58232D01*
X124789Y-58242D01*
X124798Y-58251D01*
X124985Y-58429D02*
X124873Y-58429D01*
X124929Y-58429D02*
X124929Y-58232D01*
X124910Y-58260D01*
X124892Y-58279D01*
X124873Y-58289D01*
X125173Y-58429D02*
X125060Y-58429D01*
X125117Y-58429D02*
X125117Y-58232D01*
X125098Y-58260D01*
X125079Y-58279D01*
X125060Y-58289D01*
X124123Y-58410D02*
X124114Y-58420D01*
X124085Y-58429D01*
X124067Y-58429D01*
X124039Y-58420D01*
X124020Y-58401D01*
X124010Y-58382D01*
X124001Y-58345D01*
X124001Y-58317D01*
X124010Y-58279D01*
X124020Y-58260D01*
X124039Y-58242D01*
X124067Y-58232D01*
X124085Y-58232D01*
X124114Y-58242D01*
X124123Y-58251D01*
X124310Y-58429D02*
X124198Y-58429D01*
X124254Y-58429D02*
X124254Y-58232D01*
X124235Y-58260D01*
X124217Y-58279D01*
X124198Y-58289D01*
X124385Y-58251D02*
X124395Y-58242D01*
X124414Y-58232D01*
X124460Y-58232D01*
X124479Y-58242D01*
X124489Y-58251D01*
X124498Y-58270D01*
X124498Y-58289D01*
X124489Y-58317D01*
X124376Y-58429D01*
X124498Y-58429D01*
X118517Y-64560D02*
X118507Y-64570D01*
X118479Y-64579D01*
X118460Y-64579D01*
X118432Y-64570D01*
X118414Y-64551D01*
X118404Y-64532D01*
X118395Y-64495D01*
X118395Y-64467D01*
X118404Y-64429D01*
X118414Y-64410D01*
X118432Y-64392D01*
X118460Y-64382D01*
X118479Y-64382D01*
X118507Y-64392D01*
X118517Y-64401D01*
X118582Y-64382D02*
X118714Y-64382D01*
X118629Y-64579D01*
X118592Y-63585D02*
X118582Y-63595D01*
X118554Y-63604D01*
X118535Y-63604D01*
X118507Y-63595D01*
X118489Y-63576D01*
X118479Y-63557D01*
X118470Y-63520D01*
X118470Y-63492D01*
X118479Y-63454D01*
X118489Y-63435D01*
X118507Y-63417D01*
X118535Y-63407D01*
X118554Y-63407D01*
X118582Y-63417D01*
X118592Y-63426D01*
X118704Y-63492D02*
X118685Y-63482D01*
X118676Y-63473D01*
X118667Y-63454D01*
X118667Y-63445D01*
X118676Y-63426D01*
X118685Y-63417D01*
X118704Y-63407D01*
X118742Y-63407D01*
X118760Y-63417D01*
X118770Y-63426D01*
X118779Y-63445D01*
X118779Y-63454D01*
X118770Y-63473D01*
X118760Y-63482D01*
X118742Y-63492D01*
X118704Y-63492D01*
X118685Y-63501D01*
X118676Y-63510D01*
X118667Y-63529D01*
X118667Y-63567D01*
X118676Y-63585D01*
X118685Y-63595D01*
X118704Y-63604D01*
X118742Y-63604D01*
X118760Y-63595D01*
X118770Y-63585D01*
X118779Y-63567D01*
X118779Y-63529D01*
X118770Y-63510D01*
X118760Y-63501D01*
X118742Y-63492D01*
X119991Y-67284D02*
X120000Y-67293D01*
X120009Y-67321D01*
X120009Y-67340D01*
X120000Y-67368D01*
X119981Y-67387D01*
X119963Y-67396D01*
X119925Y-67405D01*
X119897Y-67405D01*
X119860Y-67396D01*
X119841Y-67387D01*
X119822Y-67368D01*
X119813Y-67340D01*
X119813Y-67321D01*
X119822Y-67293D01*
X119831Y-67284D01*
X119813Y-67218D02*
X119813Y-67096D01*
X119888Y-67162D01*
X119888Y-67134D01*
X119897Y-67115D01*
X119906Y-67105D01*
X119925Y-67096D01*
X119972Y-67096D01*
X119991Y-67105D01*
X120000Y-67115D01*
X120009Y-67134D01*
X120009Y-67190D01*
X120000Y-67209D01*
X119991Y-67218D01*
X119813Y-66918D02*
X119813Y-67012D01*
X119906Y-67021D01*
X119897Y-67012D01*
X119888Y-66993D01*
X119888Y-66946D01*
X119897Y-66927D01*
X119906Y-66918D01*
X119925Y-66909D01*
X119972Y-66909D01*
X119991Y-66918D01*
X120000Y-66927D01*
X120009Y-66946D01*
X120009Y-66993D01*
X120000Y-67012D01*
X119991Y-67021D01*
X121835Y-67307D02*
X121845Y-67317D01*
X121854Y-67345D01*
X121854Y-67364D01*
X121845Y-67392D01*
X121826Y-67410D01*
X121807Y-67420D01*
X121770Y-67429D01*
X121742Y-67429D01*
X121704Y-67420D01*
X121685Y-67410D01*
X121667Y-67392D01*
X121657Y-67364D01*
X121657Y-67345D01*
X121667Y-67317D01*
X121676Y-67307D01*
X121676Y-67232D02*
X121667Y-67223D01*
X121657Y-67204D01*
X121657Y-67157D01*
X121667Y-67139D01*
X121676Y-67129D01*
X121695Y-67120D01*
X121714Y-67120D01*
X121742Y-67129D01*
X121854Y-67242D01*
X121854Y-67120D01*
X121785Y-66732D02*
X121795Y-66742D01*
X121804Y-66770D01*
X121804Y-66789D01*
X121795Y-66817D01*
X121776Y-66835D01*
X121757Y-66845D01*
X121720Y-66854D01*
X121692Y-66854D01*
X121654Y-66845D01*
X121635Y-66835D01*
X121617Y-66817D01*
X121607Y-66789D01*
X121607Y-66770D01*
X121617Y-66742D01*
X121626Y-66732D01*
X121607Y-66667D02*
X121607Y-66545D01*
X121682Y-66610D01*
X121682Y-66582D01*
X121692Y-66564D01*
X121701Y-66554D01*
X121720Y-66545D01*
X121767Y-66545D01*
X121785Y-66554D01*
X121795Y-66564D01*
X121804Y-66582D01*
X121804Y-66639D01*
X121795Y-66657D01*
X121785Y-66667D01*
X118748Y-69060D02*
X118739Y-69070D01*
X118710Y-69079D01*
X118692Y-69079D01*
X118664Y-69070D01*
X118645Y-69051D01*
X118635Y-69032D01*
X118626Y-68995D01*
X118626Y-68967D01*
X118635Y-68929D01*
X118645Y-68910D01*
X118664Y-68892D01*
X118692Y-68882D01*
X118710Y-68882D01*
X118739Y-68892D01*
X118748Y-68901D01*
X118814Y-68882D02*
X118935Y-68882D01*
X118870Y-68957D01*
X118898Y-68957D01*
X118917Y-68967D01*
X118926Y-68976D01*
X118935Y-68995D01*
X118935Y-69042D01*
X118926Y-69060D01*
X118917Y-69070D01*
X118898Y-69079D01*
X118842Y-69079D01*
X118823Y-69070D01*
X118814Y-69060D01*
X119104Y-68948D02*
X119104Y-69079D01*
X119057Y-68873D02*
X119010Y-69014D01*
X119132Y-69014D01*
X124423Y-67485D02*
X124414Y-67495D01*
X124385Y-67504D01*
X124367Y-67504D01*
X124339Y-67495D01*
X124320Y-67476D01*
X124310Y-67457D01*
X124301Y-67420D01*
X124301Y-67392D01*
X124310Y-67354D01*
X124320Y-67335D01*
X124339Y-67317D01*
X124367Y-67307D01*
X124385Y-67307D01*
X124414Y-67317D01*
X124423Y-67326D01*
X124489Y-67307D02*
X124610Y-67307D01*
X124545Y-67382D01*
X124573Y-67382D01*
X124592Y-67392D01*
X124601Y-67401D01*
X124610Y-67420D01*
X124610Y-67467D01*
X124601Y-67485D01*
X124592Y-67495D01*
X124573Y-67504D01*
X124517Y-67504D01*
X124498Y-67495D01*
X124489Y-67485D01*
X124779Y-67307D02*
X124742Y-67307D01*
X124723Y-67317D01*
X124714Y-67326D01*
X124695Y-67354D01*
X124685Y-67392D01*
X124685Y-67467D01*
X124695Y-67485D01*
X124704Y-67495D01*
X124723Y-67504D01*
X124760Y-67504D01*
X124779Y-67495D01*
X124789Y-67485D01*
X124798Y-67467D01*
X124798Y-67420D01*
X124789Y-67401D01*
X124779Y-67392D01*
X124760Y-67382D01*
X124723Y-67382D01*
X124704Y-67392D01*
X124695Y-67401D01*
X124685Y-67420D01*
X109760Y-60701D02*
X109770Y-60710D01*
X109779Y-60739D01*
X109779Y-60757D01*
X109770Y-60785D01*
X109751Y-60804D01*
X109732Y-60814D01*
X109695Y-60823D01*
X109667Y-60823D01*
X109629Y-60814D01*
X109610Y-60804D01*
X109592Y-60785D01*
X109582Y-60757D01*
X109582Y-60739D01*
X109592Y-60710D01*
X109601Y-60701D01*
X109648Y-60532D02*
X109779Y-60532D01*
X109573Y-60579D02*
X109714Y-60626D01*
X109714Y-60504D01*
X109582Y-60448D02*
X109582Y-60317D01*
X109779Y-60401D01*
X112285Y-64326D02*
X112295Y-64335D01*
X112304Y-64364D01*
X112304Y-64382D01*
X112295Y-64410D01*
X112276Y-64429D01*
X112257Y-64439D01*
X112220Y-64448D01*
X112192Y-64448D01*
X112154Y-64439D01*
X112135Y-64429D01*
X112117Y-64410D01*
X112107Y-64382D01*
X112107Y-64364D01*
X112117Y-64335D01*
X112126Y-64326D01*
X112173Y-64157D02*
X112304Y-64157D01*
X112098Y-64204D02*
X112239Y-64251D01*
X112239Y-64129D01*
X112173Y-63970D02*
X112304Y-63970D01*
X112098Y-64017D02*
X112239Y-64064D01*
X112239Y-63942D01*
X111395Y-60576D02*
X111404Y-60585D01*
X111414Y-60614D01*
X111414Y-60632D01*
X111404Y-60660D01*
X111386Y-60679D01*
X111367Y-60689D01*
X111329Y-60698D01*
X111301Y-60698D01*
X111264Y-60689D01*
X111245Y-60679D01*
X111226Y-60660D01*
X111217Y-60632D01*
X111217Y-60614D01*
X111226Y-60585D01*
X111236Y-60576D01*
X111283Y-60407D02*
X111414Y-60407D01*
X111208Y-60454D02*
X111348Y-60501D01*
X111348Y-60379D01*
X111301Y-60276D02*
X111292Y-60295D01*
X111283Y-60304D01*
X111264Y-60314D01*
X111254Y-60314D01*
X111236Y-60304D01*
X111226Y-60295D01*
X111217Y-60276D01*
X111217Y-60239D01*
X111226Y-60220D01*
X111236Y-60210D01*
X111254Y-60201D01*
X111264Y-60201D01*
X111283Y-60210D01*
X111292Y-60220D01*
X111301Y-60239D01*
X111301Y-60276D01*
X111311Y-60295D01*
X111320Y-60304D01*
X111339Y-60314D01*
X111376Y-60314D01*
X111395Y-60304D01*
X111404Y-60295D01*
X111414Y-60276D01*
X111414Y-60239D01*
X111404Y-60220D01*
X111395Y-60210D01*
X111376Y-60201D01*
X111339Y-60201D01*
X111320Y-60210D01*
X111311Y-60220D01*
X111301Y-60239D01*
X110898Y-64260D02*
X110889Y-64270D01*
X110860Y-64279D01*
X110842Y-64279D01*
X110814Y-64270D01*
X110795Y-64251D01*
X110785Y-64232D01*
X110776Y-64195D01*
X110776Y-64167D01*
X110785Y-64129D01*
X110795Y-64110D01*
X110814Y-64092D01*
X110842Y-64082D01*
X110860Y-64082D01*
X110889Y-64092D01*
X110898Y-64101D01*
X111067Y-64148D02*
X111067Y-64279D01*
X111020Y-64073D02*
X110973Y-64214D01*
X111095Y-64214D01*
X111264Y-64082D02*
X111170Y-64082D01*
X111160Y-64176D01*
X111170Y-64167D01*
X111189Y-64157D01*
X111235Y-64157D01*
X111254Y-64167D01*
X111264Y-64176D01*
X111273Y-64195D01*
X111273Y-64242D01*
X111264Y-64260D01*
X111254Y-64270D01*
X111235Y-64279D01*
X111189Y-64279D01*
X111170Y-64270D01*
X111160Y-64260D01*
X114698Y-65020D02*
X114689Y-65029D01*
X114660Y-65039D01*
X114642Y-65039D01*
X114614Y-65029D01*
X114595Y-65011D01*
X114585Y-64992D01*
X114576Y-64954D01*
X114576Y-64926D01*
X114585Y-64889D01*
X114595Y-64870D01*
X114614Y-64851D01*
X114642Y-64842D01*
X114660Y-64842D01*
X114689Y-64851D01*
X114698Y-64861D01*
X114867Y-64908D02*
X114867Y-65039D01*
X114820Y-64833D02*
X114773Y-64973D01*
X114895Y-64973D01*
X114951Y-64842D02*
X115073Y-64842D01*
X115007Y-64917D01*
X115035Y-64917D01*
X115054Y-64926D01*
X115064Y-64936D01*
X115073Y-64954D01*
X115073Y-65001D01*
X115064Y-65020D01*
X115054Y-65029D01*
X115035Y-65039D01*
X114979Y-65039D01*
X114960Y-65029D01*
X114951Y-65020D01*
X111635Y-60576D02*
X111645Y-60585D01*
X111654Y-60614D01*
X111654Y-60632D01*
X111645Y-60660D01*
X111626Y-60679D01*
X111607Y-60689D01*
X111570Y-60698D01*
X111542Y-60698D01*
X111504Y-60689D01*
X111485Y-60679D01*
X111467Y-60660D01*
X111457Y-60632D01*
X111457Y-60614D01*
X111467Y-60585D01*
X111476Y-60576D01*
X111523Y-60407D02*
X111654Y-60407D01*
X111448Y-60454D02*
X111589Y-60501D01*
X111589Y-60379D01*
X111654Y-60295D02*
X111654Y-60257D01*
X111645Y-60239D01*
X111635Y-60229D01*
X111607Y-60210D01*
X111570Y-60201D01*
X111495Y-60201D01*
X111476Y-60210D01*
X111467Y-60220D01*
X111457Y-60239D01*
X111457Y-60276D01*
X111467Y-60295D01*
X111476Y-60304D01*
X111495Y-60314D01*
X111542Y-60314D01*
X111560Y-60304D01*
X111570Y-60295D01*
X111579Y-60276D01*
X111579Y-60239D01*
X111570Y-60220D01*
X111560Y-60210D01*
X111542Y-60201D01*
X112923Y-61245D02*
X112914Y-61254D01*
X112885Y-61264D01*
X112867Y-61264D01*
X112839Y-61254D01*
X112820Y-61236D01*
X112810Y-61217D01*
X112801Y-61179D01*
X112801Y-61151D01*
X112810Y-61114D01*
X112820Y-61095D01*
X112839Y-61076D01*
X112867Y-61067D01*
X112885Y-61067D01*
X112914Y-61076D01*
X112923Y-61086D01*
X113101Y-61067D02*
X113007Y-61067D01*
X112998Y-61161D01*
X113007Y-61151D01*
X113026Y-61142D01*
X113073Y-61142D01*
X113092Y-61151D01*
X113101Y-61161D01*
X113110Y-61179D01*
X113110Y-61226D01*
X113101Y-61245D01*
X113092Y-61254D01*
X113073Y-61264D01*
X113026Y-61264D01*
X113007Y-61254D01*
X112998Y-61245D01*
X113232Y-61067D02*
X113251Y-61067D01*
X113270Y-61076D01*
X113279Y-61086D01*
X113289Y-61104D01*
X113298Y-61142D01*
X113298Y-61189D01*
X113289Y-61226D01*
X113279Y-61245D01*
X113270Y-61254D01*
X113251Y-61264D01*
X113232Y-61264D01*
X113214Y-61254D01*
X113204Y-61245D01*
X113195Y-61226D01*
X113185Y-61189D01*
X113185Y-61142D01*
X113195Y-61104D01*
X113204Y-61086D01*
X113214Y-61076D01*
X113232Y-61067D01*
X111148Y-58285D02*
X111139Y-58295D01*
X111110Y-58304D01*
X111092Y-58304D01*
X111064Y-58295D01*
X111045Y-58276D01*
X111035Y-58257D01*
X111026Y-58220D01*
X111026Y-58192D01*
X111035Y-58154D01*
X111045Y-58135D01*
X111064Y-58117D01*
X111092Y-58107D01*
X111110Y-58107D01*
X111139Y-58117D01*
X111148Y-58126D01*
X111326Y-58107D02*
X111232Y-58107D01*
X111223Y-58201D01*
X111232Y-58192D01*
X111251Y-58182D01*
X111298Y-58182D01*
X111317Y-58192D01*
X111326Y-58201D01*
X111335Y-58220D01*
X111335Y-58267D01*
X111326Y-58285D01*
X111317Y-58295D01*
X111298Y-58304D01*
X111251Y-58304D01*
X111232Y-58295D01*
X111223Y-58285D01*
X111504Y-58107D02*
X111467Y-58107D01*
X111448Y-58117D01*
X111439Y-58126D01*
X111420Y-58154D01*
X111410Y-58192D01*
X111410Y-58267D01*
X111420Y-58285D01*
X111429Y-58295D01*
X111448Y-58304D01*
X111485Y-58304D01*
X111504Y-58295D01*
X111514Y-58285D01*
X111523Y-58267D01*
X111523Y-58220D01*
X111514Y-58201D01*
X111504Y-58192D01*
X111485Y-58182D01*
X111448Y-58182D01*
X111429Y-58192D01*
X111420Y-58201D01*
X111410Y-58220D01*
X109573Y-63910D02*
X109564Y-63920D01*
X109535Y-63929D01*
X109517Y-63929D01*
X109489Y-63920D01*
X109470Y-63901D01*
X109460Y-63882D01*
X109451Y-63845D01*
X109451Y-63817D01*
X109460Y-63779D01*
X109470Y-63760D01*
X109489Y-63742D01*
X109517Y-63732D01*
X109535Y-63732D01*
X109564Y-63742D01*
X109573Y-63751D01*
X109751Y-63732D02*
X109657Y-63732D01*
X109648Y-63826D01*
X109657Y-63817D01*
X109676Y-63807D01*
X109723Y-63807D01*
X109742Y-63817D01*
X109751Y-63826D01*
X109760Y-63845D01*
X109760Y-63892D01*
X109751Y-63910D01*
X109742Y-63920D01*
X109723Y-63929D01*
X109676Y-63929D01*
X109657Y-63920D01*
X109648Y-63910D01*
X109826Y-63732D02*
X109948Y-63732D01*
X109882Y-63807D01*
X109910Y-63807D01*
X109929Y-63817D01*
X109939Y-63826D01*
X109948Y-63845D01*
X109948Y-63892D01*
X109939Y-63910D01*
X109929Y-63920D01*
X109910Y-63929D01*
X109854Y-63929D01*
X109835Y-63920D01*
X109826Y-63910D01*
X113573Y-61845D02*
X113564Y-61854D01*
X113535Y-61864D01*
X113517Y-61864D01*
X113489Y-61854D01*
X113470Y-61836D01*
X113460Y-61817D01*
X113451Y-61779D01*
X113451Y-61751D01*
X113460Y-61714D01*
X113470Y-61695D01*
X113489Y-61676D01*
X113517Y-61667D01*
X113535Y-61667D01*
X113564Y-61676D01*
X113573Y-61686D01*
X113751Y-61667D02*
X113657Y-61667D01*
X113648Y-61761D01*
X113657Y-61751D01*
X113676Y-61742D01*
X113723Y-61742D01*
X113742Y-61751D01*
X113751Y-61761D01*
X113760Y-61779D01*
X113760Y-61826D01*
X113751Y-61845D01*
X113742Y-61854D01*
X113723Y-61864D01*
X113676Y-61864D01*
X113657Y-61854D01*
X113648Y-61845D01*
X113854Y-61864D02*
X113892Y-61864D01*
X113910Y-61854D01*
X113920Y-61845D01*
X113939Y-61817D01*
X113948Y-61779D01*
X113948Y-61704D01*
X113939Y-61686D01*
X113929Y-61676D01*
X113910Y-61667D01*
X113873Y-61667D01*
X113854Y-61676D01*
X113845Y-61686D01*
X113835Y-61704D01*
X113835Y-61751D01*
X113845Y-61770D01*
X113854Y-61779D01*
X113873Y-61789D01*
X113910Y-61789D01*
X113929Y-61779D01*
X113939Y-61770D01*
X113948Y-61751D01*
X109610Y-64601D02*
X109620Y-64610D01*
X109629Y-64639D01*
X109629Y-64657D01*
X109620Y-64685D01*
X109601Y-64704D01*
X109582Y-64714D01*
X109545Y-64723D01*
X109517Y-64723D01*
X109479Y-64714D01*
X109460Y-64704D01*
X109442Y-64685D01*
X109432Y-64657D01*
X109432Y-64639D01*
X109442Y-64610D01*
X109451Y-64601D01*
X109432Y-64423D02*
X109432Y-64517D01*
X109526Y-64526D01*
X109517Y-64517D01*
X109507Y-64498D01*
X109507Y-64451D01*
X109517Y-64432D01*
X109526Y-64423D01*
X109545Y-64414D01*
X109592Y-64414D01*
X109610Y-64423D01*
X109620Y-64432D01*
X109629Y-64451D01*
X109629Y-64498D01*
X109620Y-64517D01*
X109610Y-64526D01*
X109498Y-64245D02*
X109629Y-64245D01*
X109423Y-64292D02*
X109564Y-64339D01*
X109564Y-64217D01*
X109610Y-65476D02*
X109620Y-65485D01*
X109629Y-65514D01*
X109629Y-65532D01*
X109620Y-65560D01*
X109601Y-65579D01*
X109582Y-65589D01*
X109545Y-65598D01*
X109517Y-65598D01*
X109479Y-65589D01*
X109460Y-65579D01*
X109442Y-65560D01*
X109432Y-65532D01*
X109432Y-65514D01*
X109442Y-65485D01*
X109451Y-65476D01*
X109432Y-65298D02*
X109432Y-65392D01*
X109526Y-65401D01*
X109517Y-65392D01*
X109507Y-65373D01*
X109507Y-65326D01*
X109517Y-65307D01*
X109526Y-65298D01*
X109545Y-65289D01*
X109592Y-65289D01*
X109610Y-65298D01*
X109620Y-65307D01*
X109629Y-65326D01*
X109629Y-65373D01*
X109620Y-65392D01*
X109610Y-65401D01*
X109432Y-65110D02*
X109432Y-65204D01*
X109526Y-65214D01*
X109517Y-65204D01*
X109507Y-65185D01*
X109507Y-65139D01*
X109517Y-65120D01*
X109526Y-65110D01*
X109545Y-65101D01*
X109592Y-65101D01*
X109610Y-65110D01*
X109620Y-65120D01*
X109629Y-65139D01*
X109629Y-65185D01*
X109620Y-65204D01*
X109610Y-65214D01*
X109548Y-62485D02*
X109539Y-62495D01*
X109510Y-62504D01*
X109492Y-62504D01*
X109464Y-62495D01*
X109445Y-62476D01*
X109435Y-62457D01*
X109426Y-62420D01*
X109426Y-62392D01*
X109435Y-62354D01*
X109445Y-62335D01*
X109464Y-62317D01*
X109492Y-62307D01*
X109510Y-62307D01*
X109539Y-62317D01*
X109548Y-62326D01*
X109717Y-62373D02*
X109717Y-62504D01*
X109670Y-62298D02*
X109623Y-62439D01*
X109745Y-62439D01*
X109904Y-62307D02*
X109867Y-62307D01*
X109848Y-62317D01*
X109839Y-62326D01*
X109820Y-62354D01*
X109810Y-62392D01*
X109810Y-62467D01*
X109820Y-62485D01*
X109829Y-62495D01*
X109848Y-62504D01*
X109885Y-62504D01*
X109904Y-62495D01*
X109914Y-62485D01*
X109923Y-62467D01*
X109923Y-62420D01*
X109914Y-62401D01*
X109904Y-62392D01*
X109885Y-62382D01*
X109848Y-62382D01*
X109829Y-62392D01*
X109820Y-62401D01*
X109810Y-62420D01*
X106985Y-62126D02*
X106995Y-62135D01*
X107004Y-62164D01*
X107004Y-62182D01*
X106995Y-62210D01*
X106976Y-62229D01*
X106957Y-62239D01*
X106920Y-62248D01*
X106892Y-62248D01*
X106854Y-62239D01*
X106835Y-62229D01*
X106817Y-62210D01*
X106807Y-62182D01*
X106807Y-62164D01*
X106817Y-62135D01*
X106826Y-62126D01*
X106807Y-61948D02*
X106807Y-62042D01*
X106901Y-62051D01*
X106892Y-62042D01*
X106882Y-62023D01*
X106882Y-61976D01*
X106892Y-61957D01*
X106901Y-61948D01*
X106920Y-61939D01*
X106967Y-61939D01*
X106985Y-61948D01*
X106995Y-61957D01*
X107004Y-61976D01*
X107004Y-62023D01*
X106995Y-62042D01*
X106985Y-62051D01*
X107004Y-61751D02*
X107004Y-61864D01*
X107004Y-61807D02*
X106807Y-61807D01*
X106835Y-61826D01*
X106854Y-61845D01*
X106864Y-61864D01*
X106951Y-61076D02*
X106960Y-61085D01*
X106970Y-61114D01*
X106970Y-61132D01*
X106960Y-61160D01*
X106941Y-61179D01*
X106923Y-61189D01*
X106885Y-61198D01*
X106857Y-61198D01*
X106820Y-61189D01*
X106801Y-61179D01*
X106782Y-61160D01*
X106773Y-61132D01*
X106773Y-61114D01*
X106782Y-61085D01*
X106791Y-61076D01*
X106773Y-60898D02*
X106773Y-60992D01*
X106866Y-61001D01*
X106857Y-60992D01*
X106848Y-60973D01*
X106848Y-60926D01*
X106857Y-60907D01*
X106866Y-60898D01*
X106885Y-60889D01*
X106932Y-60889D01*
X106951Y-60898D01*
X106960Y-60907D01*
X106970Y-60926D01*
X106970Y-60973D01*
X106960Y-60992D01*
X106951Y-61001D01*
X106791Y-60814D02*
X106782Y-60804D01*
X106773Y-60785D01*
X106773Y-60739D01*
X106782Y-60720D01*
X106791Y-60710D01*
X106810Y-60701D01*
X106829Y-60701D01*
X106857Y-60710D01*
X106970Y-60823D01*
X106970Y-60701D01*
X114935Y-59051D02*
X114945Y-59060D01*
X114954Y-59089D01*
X114954Y-59107D01*
X114945Y-59135D01*
X114926Y-59154D01*
X114907Y-59164D01*
X114870Y-59173D01*
X114842Y-59173D01*
X114804Y-59164D01*
X114785Y-59154D01*
X114767Y-59135D01*
X114757Y-59107D01*
X114757Y-59089D01*
X114767Y-59060D01*
X114776Y-59051D01*
X114757Y-58873D02*
X114757Y-58967D01*
X114851Y-58976D01*
X114842Y-58967D01*
X114832Y-58948D01*
X114832Y-58901D01*
X114842Y-58882D01*
X114851Y-58873D01*
X114870Y-58864D01*
X114917Y-58864D01*
X114935Y-58873D01*
X114945Y-58882D01*
X114954Y-58901D01*
X114954Y-58948D01*
X114945Y-58967D01*
X114935Y-58976D01*
X114842Y-58751D02*
X114832Y-58770D01*
X114823Y-58779D01*
X114804Y-58789D01*
X114795Y-58789D01*
X114776Y-58779D01*
X114767Y-58770D01*
X114757Y-58751D01*
X114757Y-58714D01*
X114767Y-58695D01*
X114776Y-58685D01*
X114795Y-58676D01*
X114804Y-58676D01*
X114823Y-58685D01*
X114832Y-58695D01*
X114842Y-58714D01*
X114842Y-58751D01*
X114851Y-58770D01*
X114860Y-58779D01*
X114879Y-58789D01*
X114917Y-58789D01*
X114935Y-58779D01*
X114945Y-58770D01*
X114954Y-58751D01*
X114954Y-58714D01*
X114945Y-58695D01*
X114935Y-58685D01*
X114917Y-58676D01*
X114879Y-58676D01*
X114860Y-58685D01*
X114851Y-58695D01*
X114842Y-58714D01*
X114935Y-60151D02*
X114945Y-60160D01*
X114954Y-60189D01*
X114954Y-60207D01*
X114945Y-60235D01*
X114926Y-60254D01*
X114907Y-60264D01*
X114870Y-60273D01*
X114842Y-60273D01*
X114804Y-60264D01*
X114785Y-60254D01*
X114767Y-60235D01*
X114757Y-60207D01*
X114757Y-60189D01*
X114767Y-60160D01*
X114776Y-60151D01*
X114757Y-59973D02*
X114757Y-60067D01*
X114851Y-60076D01*
X114842Y-60067D01*
X114832Y-60048D01*
X114832Y-60001D01*
X114842Y-59982D01*
X114851Y-59973D01*
X114870Y-59964D01*
X114917Y-59964D01*
X114935Y-59973D01*
X114945Y-59982D01*
X114954Y-60001D01*
X114954Y-60048D01*
X114945Y-60067D01*
X114935Y-60076D01*
X114757Y-59898D02*
X114757Y-59767D01*
X114954Y-59851D01*
G54D10*
X109593Y-57721D02*
X109781Y-57721D01*
X109556Y-57834D02*
X109687Y-57440D01*
X109818Y-57834D01*
X110156Y-57834D02*
X109931Y-57834D01*
X110043Y-57834D02*
X110043Y-57440D01*
X110006Y-57496D01*
X109968Y-57534D01*
X109931Y-57553D01*
M02*
