M48
;DRILL file {Pcbnew (2013-07-07 BZR 4022)-stable} date 2/4/2015 10:54:48 AM
;FORMAT={2:4/ absolute / inch / keep zeros}
FMAT,2
INCH,TZ
T1C0.013
T2C0.025
T3C0.031
T4C0.032
T5C0.035
T6C0.036
T7C0.039
T8C0.091
%
G90
G05
M72
T1
X104425Y-058075
X104425Y-063575
X104425Y-064575
X104425Y-065575
X104425Y-066575
X104425Y-067575
X104425Y-068575
X104425Y-069575
X104425Y-070575
X104925Y-057575
X105425Y-071075
X105850Y-063500
X105925Y-057575
X106425Y-071075
X106550Y-063325
X106550Y-065300
X106800Y-063850
X106925Y-057575
X106925Y-058575
X106925Y-059575
X107075Y-069500
X107150Y-064350
X107275Y-060150
X107350Y-062975
X107425Y-058075
X107425Y-059075
X107425Y-071075
X107525Y-063650
X107650Y-064525
X107925Y-057575
X107925Y-058575
X107925Y-059575
X108025Y-063425
X108400Y-064000
X108425Y-058075
X108425Y-059075
X108425Y-071075
X108775Y-063075
X108925Y-057575
X108925Y-058575
X108925Y-059575
X109425Y-058075
X109425Y-059075
X109425Y-071075
X109925Y-057575
X109975Y-060175
X110175Y-058675
X110425Y-071075
X110550Y-057875
X110850Y-059750
X110909Y-061809
X110909Y-062203
X110909Y-062597
X110909Y-062991
X111303Y-061809
X111303Y-062203
X111303Y-062597
X111303Y-062991
X111425Y-071075
X111475Y-065025
X111697Y-061809
X111697Y-062203
X111697Y-062597
X111697Y-062991
X112091Y-061809
X112091Y-062203
X112091Y-062597
X112091Y-062991
X112200Y-059700
X112425Y-058325
X112425Y-058775
X112425Y-071075
X112925Y-058075
X112925Y-058575
X113249Y-057450
X113425Y-064525
X113425Y-071075
X113675Y-057825
X113675Y-060525
X114425Y-071075
X114950Y-059550
X115075Y-061000
X115425Y-059575
X115425Y-060575
X115425Y-071075
X115925Y-059075
X115925Y-060075
X115925Y-064825
X116425Y-059575
X116425Y-060575
X116425Y-071075
X116675Y-065075
X116775Y-056600
X116925Y-059075
X116925Y-060075
X116925Y-063575
X117425Y-059575
X117925Y-059075
X117925Y-060075
X117925Y-063325
X118425Y-059575
X118500Y-063875
X118898Y-060236
X118937Y-062717
X118950Y-062025
X119425Y-056075
X119685Y-068937
X120118Y-064528
X120315Y-058819
X120425Y-056075
X121425Y-056075
X121425Y-069950
X122425Y-056075
X122425Y-071075
X122913Y-064764
X123425Y-056075
X123425Y-071075
X124094Y-067559
X124252Y-056890
X124425Y-056075
X124425Y-071075
X125425Y-071075
X125600Y-056500
X126425Y-071075
X127425Y-071075
X128300Y-056525
X128300Y-058075
X128300Y-059825
X128300Y-061575
X128300Y-063325
X128300Y-065075
X128300Y-066825
X128300Y-068575
X128300Y-070150
X128425Y-071075
T2
X106700Y-061600
X109225Y-063050
X109550Y-061075
X110575Y-065225
X111025Y-064575
X112300Y-060200
X112800Y-063725
X113225Y-060400
X114525Y-061025
X114575Y-063800
X115550Y-065400
X115875Y-063200
X116425Y-062050
X117475Y-061000
X117950Y-061025
T3
X125975Y-070500
T4
X104850Y-058500
X104850Y-059500
X104850Y-060500
X104850Y-061500
X104850Y-062500
X105850Y-058500
X105850Y-059500
X105850Y-060500
X105850Y-061500
X105850Y-062500
X118075Y-066200
X118075Y-067200
X120425Y-070775
X121425Y-070775
X125175Y-055975
X126175Y-055975
X129675Y-055825
X129675Y-056825
X129675Y-057825
X129675Y-058825
X129675Y-059825
X129675Y-060825
X129675Y-061825
X129675Y-062825
X129675Y-063825
X129675Y-064825
X129675Y-065825
X129675Y-066825
X129675Y-067825
X129675Y-068825
X129675Y-069825
X129675Y-070825
T5
X117109Y-070850
X118291Y-070850
T6
X106617Y-066333
X106617Y-067317
X107404Y-066333
X107404Y-067317
T7
X109964Y-065970
X109964Y-068530
X111736Y-065970
X111736Y-068530
X112589Y-065970
X112589Y-068530
X114361Y-065970
X114361Y-068530
X115214Y-065970
X115214Y-068530
X116986Y-065970
X116986Y-068530
T8
X105550Y-064455
X105550Y-069195
T0
M30
